<svg width="400" height="400" viewBox="0 0 400 400" fill="none"
  xmlns="http://www.w3.org/2000/svg">
  <g filter="url(#filter0_dd_1_2)">
    <path d="M258 105H142C140.409 105 138.883 105.632 137.757 106.757C136.632 107.883 136 109.409 136 111V281C136 282.591 136.632 284.117 137.757 285.243C138.883 286.368 140.409 287 142 287H258C259.591 287 261.117 286.368 262.243 285.243C263.368 284.117 264 282.591 264 281V111C264 109.409 263.368 107.883 262.243 106.757C261.117 105.632 259.591 105 258 105Z" fill="white"/>
  </g>
  <g filter="url(#filter1_dd_1_2)">
    <path d="M353 171H265C263.409 171 261.883 171.632 260.757 172.757C259.632 173.883 259 175.409 259 177V250C259 251.591 259.632 253.117 260.757 254.243C261.883 255.368 263.409 256 265 256H353C354.591 256 356.117 255.368 357.243 254.243C358.368 253.117 359 251.591 359 250V177C359 175.409 358.368 173.883 357.243 172.757C356.117 171.632 354.591 171 353 171Z" fill="white"/>
  </g>
  <path d="M204.5 105L200 100L195.5 105H204.5Z" fill="white"/>
  <path d="M234 70H166C164.409 70 162.883 70.6321 161.757 71.7574C160.632 72.8826 160 74.4087 160 76V89C160 90.5913 160.632 92.1174 161.757 93.2426C162.883 94.3679 164.409 95 166 95H234C235.591 95 237.117 94.3679 238.243 93.2426C239.368 92.1174 240 90.5913 240 89V76C240 74.4087 239.368 72.8826 238.243 71.7574C237.117 70.6321 235.591 70 234 70Z" fill="#EBEBEF"/>
  <path d="M255 171H145C143.939 171 142.922 171.421 142.172 172.172C141.421 172.922 141 173.939 141 175V192C141 193.061 141.421 194.078 142.172 194.828C142.922 195.579 143.939 196 145 196H255C256.061 196 257.078 195.579 257.828 194.828C258.579 194.078 259 193.061 259 192V175C259 173.939 258.579 172.922 257.828 172.172C257.078 171.421 256.061 171 255 171Z" fill="#2A333B"/>
  <path d="M174.875 77.562C176.132 77.562 177.15 78.008 177.93 78.901C178.71 79.785 179.1 80.938 179.1 82.359C179.1 83.78 178.71 84.937 177.93 85.83C177.159 86.714 176.14 87.156 174.875 87.156C173.61 87.156 172.587 86.714 171.807 85.83C171.036 84.937 170.65 83.78 170.65 82.359C170.65 80.938 171.04 79.785 171.82 78.901C172.6 78.008 173.618 77.562 174.875 77.562ZM174.875 86.207C175.837 86.207 176.587 85.865 177.124 85.18C177.67 84.495 177.943 83.555 177.943 82.359C177.943 81.172 177.67 80.236 177.124 79.551C176.587 78.858 175.837 78.511 174.875 78.511C173.913 78.511 173.159 78.858 172.613 79.551C172.067 80.236 171.794 81.171 171.794 82.359C171.794 83.555 172.063 84.495 172.6 85.18C173.146 85.865 173.904 86.207 174.875 86.207ZM184.157 87.156C183.68 87.156 183.247 87.039 182.857 86.805C182.482 86.5783 182.18 86.249 181.986 85.856V89.314H180.907V80.461H181.947V81.657C182.129 81.258 182.419 80.933 182.818 80.682C183.219 80.4301 183.684 80.2992 184.157 80.305C185.015 80.305 185.713 80.625 186.25 81.267C186.796 81.9 187.069 82.723 187.069 83.737C187.069 84.751 186.796 85.574 186.25 86.207C185.704 86.84 185.006 87.156 184.157 87.156ZM183.936 81.15C183.321 81.15 182.831 81.375 182.467 81.826C182.112 82.268 181.934 82.87 181.934 83.633V83.815C181.934 84.578 182.112 85.185 182.467 85.635C182.831 86.085 183.321 86.311 183.936 86.311C184.56 86.311 185.054 86.077 185.418 85.609C185.791 85.141 185.977 84.517 185.977 83.737C185.977 82.948 185.791 82.32 185.418 81.852C185.054 81.384 184.56 81.15 183.936 81.15ZM190.998 86.194C191.154 86.194 191.306 86.181 191.453 86.155C191.609 86.129 191.774 86.09 191.947 86.038V86.922C191.739 86.982 191.54 87.026 191.349 87.052C191.169 87.0865 190.986 87.1039 190.803 87.104C190.196 87.104 189.741 86.957 189.438 86.662C189.143 86.367 188.996 85.921 188.996 85.323V81.28H188.034V80.461H188.996V78.797H190.062V80.461H191.778V81.28H190.049V85.271C190.049 85.591 190.123 85.826 190.27 85.973C190.426 86.12 190.669 86.194 190.998 86.194ZM194.848 79.096H193.626V77.783H194.848V79.096ZM194.783 87H193.704V80.461H194.783V87ZM199.72 80.305C200.647 80.305 201.397 80.621 201.969 81.254C202.541 81.878 202.827 82.706 202.827 83.737C202.827 84.768 202.541 85.596 201.969 86.22C201.397 86.844 200.647 87.156 199.72 87.156C198.792 87.156 198.043 86.844 197.471 86.22C196.899 85.596 196.613 84.768 196.613 83.737C196.613 82.706 196.899 81.878 197.471 81.254C198.043 80.621 198.792 80.305 199.72 80.305ZM199.72 81.176C199.087 81.176 198.589 81.406 198.225 81.865C197.861 82.325 197.679 82.948 197.679 83.737C197.679 84.526 197.861 85.15 198.225 85.609C198.589 86.059 199.087 86.285 199.72 86.285C200.352 86.285 200.851 86.06 201.215 85.609C201.579 85.149 201.761 84.526 201.761 83.737C201.761 82.948 201.579 82.324 201.215 81.865C200.851 81.405 200.352 81.176 199.72 81.176ZM204.66 80.461H205.7V81.657C205.856 81.25 206.125 80.925 206.506 80.682C206.896 80.431 207.338 80.305 207.832 80.305C208.569 80.305 209.141 80.526 209.548 80.968C209.964 81.401 210.172 82.008 210.172 82.788V87H209.093V83.022C209.093 82.415 208.959 81.96 208.69 81.657C208.43 81.345 208.044 81.189 207.533 81.189C206.97 81.189 206.528 81.379 206.207 81.761C205.895 82.142 205.739 82.688 205.739 83.399V87H204.66V80.461ZM214.705 87.156C213.873 87.156 213.201 86.974 212.69 86.61C212.187 86.237 211.91 85.722 211.858 85.063H212.898C212.932 85.462 213.11 85.773 213.431 85.999C213.76 86.224 214.18 86.337 214.692 86.337C215.16 86.337 215.532 86.237 215.81 86.038C216.096 85.83 216.239 85.557 216.239 85.219C216.243 85.1036 216.219 84.9889 216.17 84.8848C216.12 84.7806 216.045 84.6901 215.953 84.621C215.771 84.465 215.485 84.348 215.095 84.27L213.938 84.036C213.296 83.915 212.833 83.716 212.547 83.438C212.261 83.152 212.118 82.762 212.118 82.268C212.118 81.705 212.347 81.237 212.807 80.864C213.266 80.491 213.847 80.305 214.549 80.305C215.311 80.305 215.914 80.47 216.356 80.799C216.798 81.119 217.049 81.583 217.11 82.19H216.109C216.096 82.0346 216.047 81.8845 215.965 81.7514C215.884 81.6182 215.773 81.5058 215.641 81.423C215.363 81.233 214.999 81.137 214.549 81.137C214.115 81.137 213.769 81.237 213.509 81.436C213.386 81.5217 213.286 81.6366 213.217 81.7704C213.149 81.9043 213.116 82.0529 213.119 82.203C213.119 82.463 213.205 82.667 213.379 82.814C213.552 82.953 213.847 83.061 214.263 83.139L215.563 83.386C216.135 83.499 216.559 83.702 216.837 83.997C217.114 84.283 217.253 84.673 217.253 85.167C217.253 85.739 217.01 86.216 216.525 86.597C216.048 86.97 215.441 87.156 214.705 87.156ZM162.116 118.432H163.388L167.96 125.272H167.984V118.432H168.98V127H168.02L163.148 119.692H163.124V127H162.116V118.432ZM175.193 125.224H176.129C176.001 125.824 175.713 126.296 175.265 126.64C174.817 126.976 174.273 127.144 173.633 127.144C172.761 127.144 172.057 126.86 171.521 126.292C170.993 125.724 170.729 124.964 170.729 124.012C170.729 123.06 170.993 122.292 171.521 121.708C172.057 121.116 172.741 120.82 173.573 120.82C174.373 120.82 175.005 121.096 175.469 121.648C175.933 122.192 176.165 122.908 176.165 123.796V124.192H171.701C171.725 124.88 171.905 125.412 172.241 125.788C172.585 126.164 173.049 126.352 173.633 126.352C174.025 126.352 174.349 126.26 174.605 126.076C174.869 125.884 175.065 125.6 175.193 125.224ZM173.573 121.624C173.069 121.624 172.657 121.788 172.337 122.116C172.017 122.436 171.817 122.888 171.737 123.472H175.193C175.177 122.896 175.025 122.444 174.737 122.116C174.457 121.788 174.069 121.624 173.573 121.624ZM180.889 120.964H181.897L183.265 125.92H183.289L184.681 120.964H185.641L183.817 127H182.785L181.393 122.116H181.357L179.989 127H178.945L177.121 120.964H178.105L179.509 125.92H179.545L180.889 120.964ZM193.266 127H192.234V119.296H189.042V118.432H196.47V119.296H193.266V127ZM201.518 127H200.522C200.489 126.833 200.461 126.665 200.438 126.496C200.423 126.324 200.415 126.152 200.414 125.98C200.286 126.332 200.03 126.612 199.646 126.82C199.27 127.028 198.826 127.132 198.314 127.132C197.738 127.132 197.266 126.976 196.898 126.664C196.538 126.344 196.358 125.924 196.358 125.404C196.358 124.884 196.53 124.472 196.874 124.168C197.226 123.864 197.75 123.672 198.446 123.592L200.39 123.34V122.992C200.39 122.552 200.266 122.216 200.018 121.984C199.778 121.744 199.43 121.624 198.974 121.624C198.574 121.624 198.254 121.724 198.014 121.924C197.774 122.116 197.634 122.388 197.594 122.74H196.634C196.69 122.148 196.93 121.68 197.354 121.336C197.786 120.992 198.334 120.82 198.998 120.82C199.766 120.82 200.354 121.004 200.762 121.372C201.17 121.74 201.374 122.272 201.374 122.968V125.74C201.374 126.02 201.386 126.26 201.41 126.46C201.434 126.652 201.47 126.832 201.518 127ZM197.366 125.38C197.366 125.684 197.47 125.928 197.678 126.112C197.886 126.288 198.166 126.376 198.518 126.376C199.054 126.376 199.498 126.216 199.85 125.896C200.21 125.568 200.39 125.144 200.39 124.624V124.084L198.746 124.264C198.226 124.336 197.866 124.46 197.666 124.636C197.466 124.812 197.366 125.06 197.366 125.38ZM206.447 127.144C205.999 127.144 205.591 127.032 205.223 126.808C204.874 126.604 204.591 126.304 204.407 125.944V127H203.447V118.168H204.443V122.032C204.611 121.664 204.871 121.372 205.223 121.156C205.583 120.932 205.991 120.82 206.447 120.82C207.239 120.82 207.883 121.116 208.379 121.708C208.883 122.292 209.135 123.052 209.135 123.988C209.135 124.924 208.883 125.684 208.379 126.268C207.875 126.852 207.231 127.144 206.447 127.144ZM206.243 121.6C205.675 121.6 205.223 121.808 204.887 122.224C204.559 122.632 204.395 123.188 204.395 123.892V124.06C204.395 124.764 204.559 125.324 204.887 125.74C205.223 126.156 205.675 126.364 206.243 126.364C206.819 126.364 207.275 126.148 207.611 125.716C207.955 125.284 208.127 124.708 208.127 123.988C208.127 123.26 207.955 122.68 207.611 122.248C207.275 121.816 206.819 121.6 206.243 121.6ZM162.116 143.432H163.388L167.96 150.272H167.984V143.432H168.98V152H168.02L163.148 144.692H163.124V152H162.116V143.432ZM175.193 150.224H176.129C176.001 150.824 175.713 151.296 175.265 151.64C174.817 151.976 174.273 152.144 173.633 152.144C172.761 152.144 172.057 151.86 171.521 151.292C170.993 150.724 170.729 149.964 170.729 149.012C170.729 148.06 170.993 147.292 171.521 146.708C172.057 146.116 172.741 145.82 173.573 145.82C174.373 145.82 175.005 146.096 175.469 146.648C175.933 147.192 176.165 147.908 176.165 148.796V149.192H171.701C171.725 149.88 171.905 150.412 172.241 150.788C172.585 151.164 173.049 151.352 173.633 151.352C174.025 151.352 174.349 151.26 174.605 151.076C174.869 150.884 175.065 150.6 175.193 150.224ZM173.573 146.624C173.069 146.624 172.657 146.788 172.337 147.116C172.017 147.436 171.817 147.888 171.737 148.472H175.193C175.177 147.896 175.025 147.444 174.737 147.116C174.457 146.788 174.069 146.624 173.573 146.624ZM180.889 145.964H181.897L183.265 150.92H183.289L184.681 145.964H185.641L183.817 152H182.785L181.393 147.116H181.357L179.989 152H178.945L177.121 145.964H178.105L179.509 150.92H179.545L180.889 145.964ZM197.514 152H196.338L194.406 144.8H194.382L192.438 152H191.274L188.862 143.432H189.954L191.922 150.716H191.946L193.878 143.432H194.97L196.914 150.716H196.938L198.894 143.432H199.926L197.514 152ZM202.347 144.704H201.219V143.492H202.347V144.704ZM202.287 152H201.291V145.964H202.287V152ZM204.42 145.964H205.38V147.068C205.524 146.692 205.772 146.392 206.124 146.168C206.489 145.935 206.915 145.814 207.348 145.82C208.028 145.82 208.556 146.024 208.932 146.432C209.316 146.832 209.508 147.392 209.508 148.112V152H208.512V148.328C208.512 147.768 208.388 147.348 208.14 147.068C207.9 146.78 207.544 146.636 207.072 146.636C206.552 146.636 206.144 146.812 205.848 147.164C205.56 147.516 205.416 148.02 205.416 148.676V152H204.42V145.964ZM213.824 152.144C213.04 152.144 212.396 151.852 211.892 151.268C211.388 150.684 211.136 149.924 211.136 148.988C211.136 148.052 211.384 147.292 211.88 146.708C212.384 146.116 213.032 145.82 213.824 145.82C214.28 145.82 214.684 145.932 215.036 146.156C215.396 146.372 215.66 146.664 215.828 147.032V143.168H216.824V152H215.864V150.944C215.688 151.296 215.416 151.584 215.048 151.808C214.68 152.032 214.255 152.149 213.824 152.144ZM214.028 146.6C213.452 146.6 212.992 146.816 212.648 147.248C212.312 147.68 212.144 148.26 212.144 148.988C212.144 149.708 212.312 150.284 212.648 150.716C212.992 151.148 213.452 151.364 214.028 151.364C214.596 151.364 215.044 151.156 215.372 150.74C215.708 150.324 215.876 149.764 215.876 149.06V148.892C215.876 148.188 215.708 147.632 215.372 147.224C215.044 146.808 214.596 146.6 214.028 146.6ZM221.386 145.82C222.242 145.82 222.934 146.112 223.462 146.696C223.99 147.272 224.254 148.036 224.254 148.988C224.254 149.94 223.99 150.704 223.462 151.28C222.934 151.856 222.242 152.144 221.386 152.144C220.53 152.144 219.838 151.856 219.31 151.28C218.782 150.704 218.518 149.94 218.518 148.988C218.518 148.036 218.782 147.272 219.31 146.696C219.838 146.112 220.53 145.82 221.386 145.82ZM221.386 146.624C220.802 146.624 220.342 146.836 220.006 147.26C219.67 147.684 219.502 148.26 219.502 148.988C219.502 149.716 219.67 150.292 220.006 150.716C220.342 151.132 220.802 151.34 221.386 151.34C221.97 151.34 222.43 151.132 222.766 150.716C223.102 150.292 223.27 149.716 223.27 148.988C223.27 148.26 223.102 147.684 222.766 147.26C222.43 146.836 221.97 146.624 221.386 146.624ZM228.983 145.964H229.991L231.359 150.92H231.383L232.775 145.964H233.735L231.911 152H230.879L229.487 147.116H229.451L228.083 152H227.039L225.215 145.964H226.199L227.603 150.92H227.639L228.983 145.964Z" fill="#11181C"/>
  <path d="M163.148 188H162.116V179.432H167.6V180.296H163.148V183.428H167.192V184.292H163.148V188ZM173.768 188H172.772C172.739 187.833 172.711 187.665 172.688 187.496C172.673 187.324 172.665 187.152 172.664 186.98C172.536 187.332 172.28 187.612 171.896 187.82C171.52 188.028 171.076 188.132 170.564 188.132C169.988 188.132 169.516 187.976 169.148 187.664C168.788 187.344 168.608 186.924 168.608 186.404C168.608 185.884 168.78 185.472 169.124 185.168C169.476 184.864 170 184.672 170.696 184.592L172.64 184.34V183.992C172.64 183.552 172.516 183.216 172.268 182.984C172.028 182.744 171.68 182.624 171.224 182.624C170.824 182.624 170.504 182.724 170.264 182.924C170.024 183.116 169.884 183.388 169.844 183.74H168.884C168.94 183.148 169.18 182.68 169.604 182.336C170.036 181.992 170.584 181.82 171.248 181.82C172.016 181.82 172.604 182.004 173.012 182.372C173.42 182.74 173.624 183.272 173.624 183.968V186.74C173.624 187.02 173.636 187.26 173.66 187.46C173.684 187.652 173.72 187.832 173.768 188ZM169.616 186.38C169.616 186.684 169.72 186.928 169.928 187.112C170.136 187.288 170.416 187.376 170.768 187.376C171.304 187.376 171.748 187.216 172.1 186.896C172.46 186.568 172.64 186.144 172.64 185.624V185.084L170.996 185.264C170.476 185.336 170.116 185.46 169.916 185.636C169.716 185.812 169.616 186.06 169.616 186.38ZM178.376 188H177.26L174.848 181.964H175.868L177.812 187.016H177.836L179.696 181.964H180.692L178.376 188ZM184.297 181.82C185.153 181.82 185.845 182.112 186.373 182.696C186.901 183.272 187.165 184.036 187.165 184.988C187.165 185.94 186.901 186.704 186.373 187.28C185.845 187.856 185.153 188.144 184.297 188.144C183.441 188.144 182.749 187.856 182.221 187.28C181.693 186.704 181.429 185.94 181.429 184.988C181.429 184.036 181.693 183.272 182.221 182.696C182.749 182.112 183.441 181.82 184.297 181.82ZM184.297 182.624C183.713 182.624 183.253 182.836 182.917 183.26C182.581 183.684 182.413 184.26 182.413 184.988C182.413 185.716 182.581 186.292 182.917 186.716C183.253 187.132 183.713 187.34 184.297 187.34C184.881 187.34 185.341 187.132 185.677 186.716C186.013 186.292 186.181 185.716 186.181 184.988C186.181 184.26 186.013 183.684 185.677 183.26C185.341 182.836 184.881 182.624 184.297 182.624ZM191.737 181.832C191.825 181.832 191.909 181.836 191.989 181.844C192.069 181.852 192.141 181.864 192.205 181.88V182.792C192.126 182.774 192.046 182.762 191.965 182.756C191.873 182.748 191.781 182.744 191.689 182.744C191.153 182.744 190.713 182.952 190.369 183.368C190.025 183.776 189.853 184.328 189.853 185.024V188H188.857V181.964H189.817V183.392C189.945 182.912 190.181 182.532 190.525 182.252C190.869 181.972 191.273 181.832 191.737 181.832ZM194.53 180.704H193.402V179.492H194.53V180.704ZM194.47 188H193.474V181.964H194.47V188ZM198.535 187.256C198.679 187.256 198.819 187.244 198.955 187.22C199.099 187.196 199.251 187.16 199.411 187.112V187.928C199.23 187.982 199.046 188.022 198.859 188.048C198.693 188.08 198.524 188.096 198.355 188.096C197.795 188.096 197.375 187.96 197.095 187.688C196.823 187.416 196.687 187.004 196.687 186.452V182.72H195.799V181.964H196.687V180.428H197.671V181.964H199.255V182.72H197.659V186.404C197.659 186.7 197.727 186.916 197.863 187.052C198.007 187.188 198.231 187.256 198.535 187.256ZM205.053 186.224H205.989C205.861 186.824 205.573 187.296 205.125 187.64C204.677 187.976 204.133 188.144 203.493 188.144C202.621 188.144 201.917 187.86 201.381 187.292C200.853 186.724 200.589 185.964 200.589 185.012C200.589 184.06 200.853 183.292 201.381 182.708C201.917 182.116 202.601 181.82 203.433 181.82C204.233 181.82 204.865 182.096 205.329 182.648C205.793 183.192 206.025 183.908 206.025 184.796V185.192H201.561C201.585 185.88 201.765 186.412 202.101 186.788C202.445 187.164 202.909 187.352 203.493 187.352C203.885 187.352 204.209 187.26 204.465 187.076C204.729 186.884 204.925 186.6 205.053 186.224ZM203.433 182.624C202.929 182.624 202.517 182.788 202.197 183.116C201.877 183.436 201.677 183.888 201.597 184.472H205.053C205.037 183.896 204.885 183.444 204.597 183.116C204.317 182.788 203.929 182.624 203.433 182.624ZM209.824 188.144C209.056 188.144 208.436 187.976 207.964 187.64C207.5 187.296 207.244 186.82 207.196 186.212H208.156C208.188 186.58 208.352 186.868 208.648 187.076C208.952 187.284 209.34 187.388 209.812 187.388C210.244 187.388 210.588 187.296 210.844 187.112C210.968 187.029 211.069 186.917 211.138 186.784C211.207 186.652 211.242 186.505 211.24 186.356C211.244 186.249 211.222 186.144 211.176 186.047C211.13 185.951 211.062 185.868 210.976 185.804C210.808 185.66 210.544 185.552 210.184 185.48L209.116 185.264C208.524 185.152 208.096 184.968 207.832 184.712C207.568 184.448 207.436 184.088 207.436 183.632C207.436 183.112 207.648 182.68 208.072 182.336C208.496 181.992 209.032 181.82 209.68 181.82C210.384 181.82 210.94 181.972 211.348 182.276C211.756 182.572 211.988 183 212.044 183.56H211.12C211.108 183.416 211.063 183.278 210.988 183.155C210.913 183.032 210.81 182.928 210.688 182.852C210.432 182.676 210.096 182.588 209.68 182.588C209.28 182.588 208.96 182.68 208.72 182.864C208.606 182.943 208.513 183.049 208.45 183.172C208.387 183.296 208.356 183.433 208.36 183.572C208.36 183.812 208.44 184 208.6 184.136C208.76 184.264 209.032 184.364 209.416 184.436L210.616 184.664C211.144 184.768 211.536 184.956 211.792 185.228C212.048 185.492 212.176 185.852 212.176 186.308C212.176 186.836 211.952 187.276 211.504 187.628C211.064 187.972 210.504 188.144 209.824 188.144Z" fill="white"/>
  <path d="M298.512 193.144C297.352 193.144 296.408 192.736 295.68 191.92C294.96 191.096 294.6 190.024 294.6 188.704C294.6 187.392 294.968 186.328 295.704 185.512C296.44 184.696 297.392 184.288 298.56 184.288C299.472 184.288 300.216 184.52 300.792 184.984C301.376 185.448 301.748 186.096 301.908 186.928H300.876C300.756 186.368 300.496 185.936 300.096 185.632C299.696 185.32 299.184 185.164 298.56 185.164C297.664 185.164 296.956 185.484 296.436 186.124C295.916 186.756 295.656 187.616 295.656 188.704C295.656 189.8 295.912 190.668 296.424 191.308C296.936 191.948 297.636 192.268 298.524 192.268C299.26 192.268 299.86 192.06 300.324 191.644C300.796 191.22 301.032 190.668 301.032 189.988V189.544H299.004V188.728H302.04V193H301.224L301.128 191.572C300.968 192.02 300.636 192.396 300.132 192.7C299.643 192.994 299.083 193.148 298.512 193.144ZM305.077 185.704H303.949V184.492H305.077V185.704ZM305.017 193H304.021V186.964H305.017V193ZM309.082 192.256C309.226 192.256 309.366 192.244 309.502 192.22C309.646 192.196 309.798 192.16 309.958 192.112V192.928C309.777 192.982 309.593 193.022 309.406 193.048C309.24 193.08 309.071 193.096 308.902 193.096C308.342 193.096 307.922 192.96 307.642 192.688C307.37 192.416 307.234 192.004 307.234 191.452V187.72H306.346V186.964H307.234V185.428H308.218V186.964H309.802V187.72H308.206V191.404C308.206 191.7 308.274 191.916 308.41 192.052C308.554 192.188 308.778 192.256 309.082 192.256ZM312.66 193H311.628V184.432H312.66V188.212H317.676V184.432H318.708V193H317.676V189.076H312.66V193ZM325.864 186.964V193H324.892V191.908C324.754 192.284 324.497 192.604 324.16 192.82C323.816 193.036 323.42 193.144 322.972 193.144C322.292 193.144 321.764 192.948 321.388 192.556C321.02 192.156 320.836 191.588 320.836 190.852V186.964H321.844V190.66C321.844 191.228 321.96 191.656 322.192 191.944C322.432 192.224 322.788 192.364 323.26 192.364C323.764 192.364 324.156 192.184 324.436 191.824C324.716 191.464 324.856 190.952 324.856 190.288V186.964H325.864ZM330.998 193.144C330.55 193.144 330.142 193.032 329.774 192.808C329.425 192.604 329.142 192.304 328.958 191.944V193H327.998V184.168H328.994V188.032C329.162 187.664 329.422 187.372 329.774 187.156C330.134 186.932 330.542 186.82 330.998 186.82C331.79 186.82 332.434 187.116 332.93 187.708C333.434 188.292 333.686 189.052 333.686 189.988C333.686 190.924 333.434 191.684 332.93 192.268C332.426 192.852 331.782 193.144 330.998 193.144ZM330.794 187.6C330.226 187.6 329.774 187.808 329.438 188.224C329.11 188.632 328.946 189.188 328.946 189.892V190.06C328.946 190.764 329.11 191.324 329.438 191.74C329.774 192.156 330.226 192.364 330.794 192.364C331.37 192.364 331.826 192.148 332.162 191.716C332.506 191.284 332.678 190.708 332.678 189.988C332.678 189.26 332.506 188.68 332.162 188.248C331.826 187.816 331.37 187.6 330.794 187.6ZM162.116 204.432H165.152C166.4 204.432 167.408 204.828 168.176 205.62C168.944 206.404 169.328 207.436 169.328 208.716C169.328 209.996 168.944 211.032 168.176 211.824C167.408 212.608 166.4 213 165.152 213H162.116V204.432ZM168.26 208.716C168.26 207.652 167.984 206.816 167.432 206.208C166.88 205.6 166.12 205.296 165.152 205.296H163.136V212.136H165.152C166.128 212.136 166.888 211.832 167.432 211.224C167.984 210.616 168.26 209.78 168.26 208.716ZM173.422 206.82C174.278 206.82 174.97 207.112 175.498 207.696C176.026 208.272 176.29 209.036 176.29 209.988C176.29 210.94 176.026 211.704 175.498 212.28C174.97 212.856 174.278 213.144 173.422 213.144C172.566 213.144 171.874 212.856 171.346 212.28C170.818 211.704 170.554 210.94 170.554 209.988C170.554 209.036 170.818 208.272 171.346 207.696C171.874 207.112 172.566 206.82 173.422 206.82ZM173.422 207.624C172.838 207.624 172.378 207.836 172.042 208.26C171.706 208.684 171.538 209.26 171.538 209.988C171.538 210.716 171.706 211.292 172.042 211.716C172.378 212.132 172.838 212.34 173.422 212.34C174.006 212.34 174.466 212.132 174.802 211.716C175.138 211.292 175.306 210.716 175.306 209.988C175.306 209.26 175.138 208.684 174.802 208.26C174.466 207.836 174.006 207.624 173.422 207.624ZM181.018 206.964H182.026L183.394 211.92H183.418L184.81 206.964H185.77L183.946 213H182.914L181.522 208.116H181.486L180.118 213H179.074L177.25 206.964H178.234L179.638 211.92H179.674L181.018 206.964ZM187.158 206.964H188.118V208.068C188.262 207.692 188.51 207.392 188.862 207.168C189.227 206.934 189.653 206.813 190.086 206.82C190.766 206.82 191.294 207.024 191.67 207.432C192.054 207.832 192.246 208.392 192.246 209.112V213H191.25V209.328C191.25 208.768 191.126 208.348 190.878 208.068C190.638 207.78 190.282 207.636 189.81 207.636C189.29 207.636 188.882 207.812 188.586 208.164C188.298 208.516 188.154 209.02 188.154 209.676V213H187.158V206.964ZM195.314 204.168V213H194.318V204.168H195.314ZM199.871 206.82C200.727 206.82 201.419 207.112 201.947 207.696C202.475 208.272 202.739 209.036 202.739 209.988C202.739 210.94 202.475 211.704 201.947 212.28C201.419 212.856 200.727 213.144 199.871 213.144C199.015 213.144 198.323 212.856 197.795 212.28C197.267 211.704 197.003 210.94 197.003 209.988C197.003 209.036 197.267 208.272 197.795 207.696C198.323 207.112 199.015 206.82 199.871 206.82ZM199.871 207.624C199.287 207.624 198.827 207.836 198.491 208.26C198.155 208.684 197.987 209.26 197.987 209.988C197.987 210.716 198.155 211.292 198.491 211.716C198.827 212.132 199.287 212.34 199.871 212.34C200.455 212.34 200.915 212.132 201.251 211.716C201.587 211.292 201.755 210.716 201.755 209.988C201.755 209.26 201.587 208.684 201.251 208.26C200.915 207.836 200.455 207.624 199.871 207.624ZM209.123 213H208.127C208.094 212.833 208.066 212.665 208.043 212.496C208.028 212.324 208.02 212.152 208.019 211.98C207.891 212.332 207.635 212.612 207.251 212.82C206.875 213.028 206.431 213.132 205.919 213.132C205.343 213.132 204.871 212.976 204.503 212.664C204.143 212.344 203.963 211.924 203.963 211.404C203.963 210.884 204.135 210.472 204.479 210.168C204.831 209.864 205.355 209.672 206.051 209.592L207.995 209.34V208.992C207.995 208.552 207.871 208.216 207.623 207.984C207.383 207.744 207.035 207.624 206.579 207.624C206.179 207.624 205.859 207.724 205.619 207.924C205.379 208.116 205.239 208.388 205.199 208.74H204.239C204.295 208.148 204.535 207.68 204.959 207.336C205.391 206.992 205.939 206.82 206.603 206.82C207.371 206.82 207.959 207.004 208.367 207.372C208.775 207.74 208.979 208.272 208.979 208.968V211.74C208.979 212.02 208.991 212.26 209.015 212.46C209.039 212.652 209.075 212.832 209.123 213ZM204.971 211.38C204.971 211.684 205.075 211.928 205.283 212.112C205.491 212.288 205.771 212.376 206.123 212.376C206.659 212.376 207.103 212.216 207.455 211.896C207.815 211.568 207.995 211.144 207.995 210.624V210.084L206.351 210.264C205.831 210.336 205.471 210.46 205.271 210.636C205.071 210.812 204.971 211.06 204.971 211.38ZM213.296 213.144C212.512 213.144 211.868 212.852 211.364 212.268C210.86 211.684 210.608 210.924 210.608 209.988C210.608 209.052 210.856 208.292 211.352 207.708C211.856 207.116 212.504 206.82 213.296 206.82C213.752 206.82 214.156 206.932 214.508 207.156C214.868 207.372 215.132 207.664 215.3 208.032V204.168H216.296V213H215.336V211.944C215.16 212.296 214.888 212.584 214.52 212.808C214.151 213.032 213.727 213.149 213.296 213.144ZM213.5 207.6C212.924 207.6 212.464 207.816 212.12 208.248C211.784 208.68 211.616 209.26 211.616 209.988C211.616 210.708 211.784 211.284 212.12 211.716C212.464 212.148 212.924 212.364 213.5 212.364C214.068 212.364 214.516 212.156 214.844 211.74C215.18 211.324 215.348 210.764 215.348 210.06V209.892C215.348 209.188 215.18 208.632 214.844 208.224C214.516 207.808 214.068 207.6 213.5 207.6ZM220.547 213.144C219.779 213.144 219.159 212.976 218.687 212.64C218.223 212.296 217.967 211.82 217.919 211.212H218.879C218.911 211.58 219.075 211.868 219.371 212.076C219.675 212.284 220.063 212.388 220.535 212.388C220.967 212.388 221.311 212.296 221.567 212.112C221.691 212.029 221.792 211.917 221.861 211.784C221.93 211.652 221.965 211.505 221.963 211.356C221.967 211.249 221.946 211.143 221.9 211.047C221.854 210.951 221.785 210.868 221.699 210.804C221.531 210.66 221.267 210.552 220.907 210.48L219.839 210.264C219.247 210.152 218.819 209.968 218.555 209.712C218.291 209.448 218.159 209.088 218.159 208.632C218.159 208.112 218.371 207.68 218.795 207.336C219.219 206.992 219.755 206.82 220.403 206.82C221.107 206.82 221.663 206.972 222.071 207.276C222.479 207.572 222.711 208 222.767 208.56H221.843C221.831 208.416 221.786 208.278 221.711 208.155C221.636 208.032 221.533 207.928 221.411 207.852C221.155 207.676 220.819 207.588 220.403 207.588C220.003 207.588 219.683 207.68 219.443 207.864C219.329 207.942 219.236 208.048 219.173 208.172C219.11 208.296 219.079 208.433 219.083 208.572C219.083 208.812 219.163 209 219.323 209.136C219.483 209.264 219.755 209.364 220.139 209.436L221.339 209.664C221.867 209.768 222.259 209.956 222.515 210.228C222.771 210.492 222.899 210.852 222.899 211.308C222.899 211.836 222.675 212.276 222.227 212.628C221.787 212.972 221.227 213.144 220.547 213.144ZM165.104 249.144C164.056 249.144 163.216 248.912 162.584 248.448C161.96 247.976 161.62 247.316 161.564 246.468H162.56C162.616 247.068 162.86 247.528 163.292 247.848C163.732 248.16 164.332 248.316 165.092 248.316C165.732 248.316 166.244 248.172 166.628 247.884C167.02 247.588 167.216 247.192 167.216 246.696C167.216 246.304 167.092 246 166.844 245.784C166.596 245.56 166.2 245.396 165.656 245.292L164.024 244.968C163.28 244.832 162.728 244.58 162.368 244.212C162.016 243.844 161.84 243.356 161.84 242.748C161.84 242.036 162.12 241.448 162.68 240.984C163.24 240.52 163.956 240.288 164.828 240.288C165.772 240.288 166.524 240.492 167.084 240.9C167.644 241.3 167.964 241.876 168.044 242.628H167.048C167.019 242.405 166.942 242.19 166.822 241.999C166.701 241.809 166.541 241.647 166.352 241.524C165.96 241.252 165.456 241.116 164.84 241.116C164.24 241.116 163.756 241.264 163.388 241.56C163.028 241.856 162.848 242.24 162.848 242.712C162.848 243.104 162.956 243.4 163.172 243.6C163.396 243.8 163.796 243.956 164.372 244.068L166.052 244.416C166.796 244.568 167.34 244.824 167.684 245.184C168.036 245.544 168.212 246.032 168.212 246.648C168.212 247.376 167.92 247.976 167.336 248.448C166.76 248.912 166.016 249.144 165.104 249.144ZM170.939 240.168V244.068C171.083 243.676 171.327 243.372 171.671 243.156C172.029 242.928 172.447 242.811 172.871 242.82C173.551 242.82 174.079 243.024 174.455 243.432C174.839 243.832 175.031 244.392 175.031 245.112V249H174.035V245.328C174.035 244.768 173.911 244.348 173.663 244.068C173.423 243.78 173.067 243.636 172.595 243.636C172.075 243.636 171.667 243.812 171.371 244.164C171.083 244.516 170.939 245.02 170.939 245.676V249H169.943V240.168H170.939ZM179.527 242.82C180.383 242.82 181.075 243.112 181.603 243.696C182.131 244.272 182.395 245.036 182.395 245.988C182.395 246.94 182.131 247.704 181.603 248.28C181.075 248.856 180.383 249.144 179.527 249.144C178.671 249.144 177.979 248.856 177.451 248.28C176.923 247.704 176.659 246.94 176.659 245.988C176.659 245.036 176.923 244.272 177.451 243.696C177.979 243.112 178.671 242.82 179.527 242.82ZM179.527 243.624C178.943 243.624 178.483 243.836 178.147 244.26C177.811 244.684 177.643 245.26 177.643 245.988C177.643 246.716 177.811 247.292 178.147 247.716C178.483 248.132 178.943 248.34 179.527 248.34C180.111 248.34 180.571 248.132 180.907 247.716C181.243 247.292 181.411 246.716 181.411 245.988C181.411 245.26 181.243 244.684 180.907 244.26C180.571 243.836 180.111 243.624 179.527 243.624ZM187.123 242.964H188.131L189.499 247.92H189.523L190.915 242.964H191.875L190.051 249H189.019L187.627 244.116H187.591L186.223 249H185.179L183.355 242.964H184.339L185.743 247.92H185.779L187.123 242.964ZM199.501 249H198.469V241.296H195.277V240.432H202.705V241.296H199.501V249ZM205.484 242.82C206.34 242.82 207.032 243.112 207.56 243.696C208.088 244.272 208.352 245.036 208.352 245.988C208.352 246.94 208.088 247.704 207.56 248.28C207.032 248.856 206.34 249.144 205.484 249.144C204.628 249.144 203.936 248.856 203.408 248.28C202.88 247.704 202.616 246.94 202.616 245.988C202.616 245.036 202.88 244.272 203.408 243.696C203.936 243.112 204.628 242.82 205.484 242.82ZM205.484 243.624C204.9 243.624 204.44 243.836 204.104 244.26C203.768 244.684 203.6 245.26 203.6 245.988C203.6 246.716 203.768 247.292 204.104 247.716C204.44 248.132 204.9 248.34 205.484 248.34C206.068 248.34 206.528 248.132 206.864 247.716C207.2 247.292 207.368 246.716 207.368 245.988C207.368 245.26 207.2 244.684 206.864 244.26C206.528 243.836 206.068 243.624 205.484 243.624ZM212.469 242.82C213.325 242.82 214.017 243.112 214.545 243.696C215.073 244.272 215.337 245.036 215.337 245.988C215.337 246.94 215.073 247.704 214.545 248.28C214.017 248.856 213.325 249.144 212.469 249.144C211.613 249.144 210.921 248.856 210.393 248.28C209.865 247.704 209.601 246.94 209.601 245.988C209.601 245.036 209.865 244.272 210.393 243.696C210.921 243.112 211.613 242.82 212.469 242.82ZM212.469 243.624C211.885 243.624 211.425 243.836 211.089 244.26C210.753 244.684 210.585 245.26 210.585 245.988C210.585 246.716 210.753 247.292 211.089 247.716C211.425 248.132 211.885 248.34 212.469 248.34C213.053 248.34 213.513 248.132 213.849 247.716C214.185 247.292 214.353 246.716 214.353 245.988C214.353 245.26 214.185 244.684 213.849 244.26C213.513 243.836 213.053 243.624 212.469 243.624ZM218.025 240.168V249H217.029V240.168H218.025ZM223.158 249.144C222.71 249.144 222.302 249.032 221.934 248.808C221.585 248.604 221.302 248.304 221.118 247.944V249H220.158V240.168H221.154V244.032C221.322 243.664 221.582 243.372 221.934 243.156C222.294 242.932 222.702 242.82 223.158 242.82C223.95 242.82 224.594 243.116 225.09 243.708C225.594 244.292 225.846 245.052 225.846 245.988C225.846 246.924 225.594 247.684 225.09 248.268C224.586 248.852 223.942 249.144 223.158 249.144ZM222.954 243.6C222.386 243.6 221.934 243.808 221.598 244.224C221.27 244.632 221.106 245.188 221.106 245.892V246.06C221.106 246.764 221.27 247.324 221.598 247.74C221.934 248.156 222.386 248.364 222.954 248.364C223.53 248.364 223.986 248.148 224.322 247.716C224.666 247.284 224.838 246.708 224.838 245.988C224.838 245.26 224.666 244.68 224.322 244.248C223.986 243.816 223.53 243.6 222.954 243.6ZM232.233 249H231.237C231.204 248.833 231.176 248.665 231.153 248.496C231.138 248.324 231.13 248.152 231.129 247.98C231.001 248.332 230.745 248.612 230.361 248.82C229.985 249.028 229.541 249.132 229.029 249.132C228.453 249.132 227.981 248.976 227.613 248.664C227.253 248.344 227.073 247.924 227.073 247.404C227.073 246.884 227.245 246.472 227.589 246.168C227.941 245.864 228.465 245.672 229.161 245.592L231.105 245.34V244.992C231.105 244.552 230.981 244.216 230.733 243.984C230.493 243.744 230.145 243.624 229.689 243.624C229.289 243.624 228.969 243.724 228.729 243.924C228.489 244.116 228.349 244.388 228.309 244.74H227.349C227.405 244.148 227.645 243.68 228.069 243.336C228.501 242.992 229.049 242.82 229.713 242.82C230.481 242.82 231.069 243.004 231.477 243.372C231.885 243.74 232.089 244.272 232.089 244.968V247.74C232.089 248.02 232.101 248.26 232.125 248.46C232.149 248.652 232.185 248.832 232.233 249ZM228.081 247.38C228.081 247.684 228.185 247.928 228.393 248.112C228.601 248.288 228.881 248.376 229.233 248.376C229.769 248.376 230.213 248.216 230.565 247.896C230.925 247.568 231.105 247.144 231.105 246.624V246.084L229.461 246.264C228.941 246.336 228.581 246.46 228.381 246.636C228.181 246.812 228.081 247.06 228.081 247.38ZM237.042 242.832C237.13 242.832 237.214 242.836 237.294 242.844C237.374 242.852 237.446 242.864 237.51 242.88V243.792C237.431 243.774 237.351 243.762 237.27 243.756C237.178 243.748 237.086 243.744 236.994 243.744C236.458 243.744 236.018 243.952 235.674 244.368C235.33 244.776 235.158 245.328 235.158 246.024V249H234.162V242.964H235.122V244.392C235.25 243.912 235.486 243.532 235.83 243.252C236.174 242.972 236.578 242.832 237.042 242.832ZM165.104 274.144C164.056 274.144 163.216 273.912 162.584 273.448C161.96 272.976 161.62 272.316 161.564 271.468H162.56C162.616 272.068 162.86 272.528 163.292 272.848C163.732 273.16 164.332 273.316 165.092 273.316C165.732 273.316 166.244 273.172 166.628 272.884C167.02 272.588 167.216 272.192 167.216 271.696C167.216 271.304 167.092 271 166.844 270.784C166.596 270.56 166.2 270.396 165.656 270.292L164.024 269.968C163.28 269.832 162.728 269.58 162.368 269.212C162.016 268.844 161.84 268.356 161.84 267.748C161.84 267.036 162.12 266.448 162.68 265.984C163.24 265.52 163.956 265.288 164.828 265.288C165.772 265.288 166.524 265.492 167.084 265.9C167.644 266.3 167.964 266.876 168.044 267.628H167.048C167.019 267.405 166.942 267.19 166.822 266.999C166.701 266.809 166.541 266.647 166.352 266.524C165.96 266.252 165.456 266.116 164.84 266.116C164.24 266.116 163.756 266.264 163.388 266.56C163.028 266.856 162.848 267.24 162.848 267.712C162.848 268.104 162.956 268.4 163.172 268.6C163.396 268.8 163.796 268.956 164.372 269.068L166.052 269.416C166.796 269.568 167.34 269.824 167.684 270.184C168.036 270.544 168.212 271.032 168.212 271.648C168.212 272.376 167.92 272.976 167.336 273.448C166.76 273.912 166.016 274.144 165.104 274.144ZM170.939 265.168V269.068C171.083 268.676 171.327 268.372 171.671 268.156C172.029 267.928 172.447 267.811 172.871 267.82C173.551 267.82 174.079 268.024 174.455 268.432C174.839 268.832 175.031 269.392 175.031 270.112V274H174.035V270.328C174.035 269.768 173.911 269.348 173.663 269.068C173.423 268.78 173.067 268.636 172.595 268.636C172.075 268.636 171.667 268.812 171.371 269.164C171.083 269.516 170.939 270.02 170.939 270.676V274H169.943V265.168H170.939ZM179.527 267.82C180.383 267.82 181.075 268.112 181.603 268.696C182.131 269.272 182.395 270.036 182.395 270.988C182.395 271.94 182.131 272.704 181.603 273.28C181.075 273.856 180.383 274.144 179.527 274.144C178.671 274.144 177.979 273.856 177.451 273.28C176.923 272.704 176.659 271.94 176.659 270.988C176.659 270.036 176.923 269.272 177.451 268.696C177.979 268.112 178.671 267.82 179.527 267.82ZM179.527 268.624C178.943 268.624 178.483 268.836 178.147 269.26C177.811 269.684 177.643 270.26 177.643 270.988C177.643 271.716 177.811 272.292 178.147 272.716C178.483 273.132 178.943 273.34 179.527 273.34C180.111 273.34 180.571 273.132 180.907 272.716C181.243 272.292 181.411 271.716 181.411 270.988C181.411 270.26 181.243 269.684 180.907 269.26C180.571 268.836 180.111 268.624 179.527 268.624ZM187.123 267.964H188.131L189.499 272.92H189.523L190.915 267.964H191.875L190.051 274H189.019L187.627 269.116H187.591L186.223 274H185.179L183.355 267.964H184.339L185.743 272.92H185.779L187.123 267.964ZM196.945 274H195.913V265.432H201.397V266.296H196.945V269.428H200.989V270.292H196.945V274ZM207.841 267.964V274H206.869V272.908C206.731 273.284 206.474 273.604 206.137 273.82C205.793 274.036 205.397 274.144 204.949 274.144C204.269 274.144 203.741 273.948 203.365 273.556C202.997 273.156 202.813 272.588 202.813 271.852V267.964H203.821V271.66C203.821 272.228 203.937 272.656 204.169 272.944C204.409 273.224 204.765 273.364 205.237 273.364C205.741 273.364 206.133 273.184 206.413 272.824C206.693 272.464 206.833 271.952 206.833 271.288V267.964H207.841ZM210.97 265.168V274H209.974V265.168H210.97ZM214.099 265.168V274H213.103V265.168H214.099ZM225.686 265.432V270.508C225.686 271.676 225.386 272.576 224.786 273.208C224.186 273.832 223.33 274.144 222.218 274.144C221.114 274.144 220.258 273.828 219.65 273.196C219.05 272.556 218.75 271.652 218.75 270.484V265.432H219.782V270.568C219.782 271.44 219.99 272.108 220.406 272.572C220.83 273.036 221.434 273.268 222.218 273.268C223.01 273.268 223.614 273.04 224.03 272.584C224.446 272.12 224.654 271.448 224.654 270.568V265.432H225.686ZM228.82 270.532V274H227.8V265.432H231.1C232.068 265.432 232.812 265.652 233.332 266.092C233.852 266.532 234.112 267.16 234.112 267.976C234.112 268.584 233.932 269.104 233.572 269.536C233.212 269.96 232.732 270.24 232.132 270.376L234.484 274H233.32L231.1 270.532H228.82ZM228.82 266.296V269.668H231.04C231.696 269.668 232.196 269.524 232.54 269.236C232.892 268.948 233.068 268.528 233.068 267.976C233.068 267.44 232.892 267.028 232.54 266.74C232.188 266.444 231.688 266.296 231.04 266.296H228.82ZM241.713 274H236.073V265.432H237.105V273.136H241.713V274ZM245.59 274.144C244.822 274.144 244.202 273.976 243.73 273.64C243.266 273.296 243.01 272.82 242.962 272.212H243.922C243.954 272.58 244.118 272.868 244.414 273.076C244.718 273.284 245.106 273.388 245.578 273.388C246.01 273.388 246.354 273.296 246.61 273.112C246.734 273.029 246.835 272.916 246.904 272.784C246.973 272.652 247.008 272.505 247.006 272.356C247.01 272.249 246.989 272.143 246.943 272.047C246.897 271.951 246.828 271.867 246.742 271.804C246.574 271.66 246.31 271.552 245.95 271.48L244.882 271.264C244.29 271.152 243.862 270.968 243.598 270.712C243.334 270.448 243.202 270.088 243.202 269.632C243.202 269.112 243.414 268.68 243.838 268.336C244.262 267.992 244.798 267.82 245.446 267.82C246.15 267.82 246.706 267.972 247.114 268.276C247.522 268.572 247.754 269 247.81 269.56H246.886C246.874 269.416 246.829 269.278 246.754 269.155C246.679 269.032 246.576 268.928 246.454 268.852C246.198 268.676 245.862 268.588 245.446 268.588C245.046 268.588 244.726 268.68 244.486 268.864C244.372 268.942 244.279 269.048 244.216 269.172C244.153 269.296 244.122 269.433 244.126 269.572C244.126 269.812 244.206 270 244.366 270.136C244.526 270.264 244.798 270.364 245.182 270.436L246.382 270.664C246.91 270.768 247.302 270.956 247.558 271.228C247.814 271.492 247.942 271.852 247.942 272.308C247.942 272.836 247.718 273.276 247.27 273.628C246.83 273.972 246.27 274.144 245.59 274.144Z" fill="#11181C"/>
  <path fill-rule="evenodd" clip-rule="evenodd" d="M224.182 81.182C224.267 81.098 224.381 81.0508 224.5 81.0508C224.619 81.0508 224.733 81.098 224.818 81.182L227.5 83.864L230.182 81.182C230.223 81.1378 230.273 81.1023 230.328 81.0777C230.383 81.0531 230.443 81.0399 230.503 81.0388C230.564 81.0378 230.624 81.0489 230.68 81.0715C230.736 81.0942 230.787 81.1278 230.829 81.1706C230.872 81.2133 230.906 81.2642 230.928 81.3202C230.951 81.3763 230.962 81.4363 230.961 81.4967C230.96 81.5571 230.947 81.6167 230.922 81.6719C230.898 81.7271 230.862 81.7768 230.818 81.818L227.818 84.818C227.734 84.9023 227.619 84.9496 227.5 84.9496C227.381 84.9496 227.266 84.9023 227.182 84.818L224.182 81.818C224.098 81.7336 224.05 81.6193 224.05 81.5C224.05 81.3808 224.098 81.2664 224.182 81.182ZM154.467 240.727C154.756 240.916 154.837 241.303 154.648 241.592L150.398 248.092C150.349 248.168 150.284 248.233 150.207 248.281C150.13 248.329 150.044 248.359 149.954 248.37C149.864 248.382 149.773 248.373 149.687 248.346C149.601 248.319 149.522 248.273 149.455 248.212L146.705 245.712C146.584 245.6 146.51 245.445 146.501 245.28C146.495 245.157 146.526 245.034 146.589 244.928C146.653 244.822 146.747 244.738 146.858 244.685C146.97 244.632 147.095 244.614 147.217 244.632C147.339 244.65 147.453 244.704 147.545 244.787L149.753 246.794L153.602 240.908C153.693 240.77 153.835 240.673 153.997 240.639C154.159 240.605 154.328 240.637 154.467 240.727Z" fill="#11181C"/>
  <path fill-rule="evenodd" clip-rule="evenodd" d="M245.182 180.182C245.245 180.119 245.325 180.077 245.412 180.059C245.499 180.042 245.59 180.05 245.672 180.084C245.727 180.107 245.776 180.14 245.818 180.182L248.818 183.182C248.881 183.245 248.923 183.325 248.941 183.412C248.958 183.499 248.95 183.59 248.916 183.672C248.893 183.727 248.86 183.776 248.818 183.818L245.818 186.818C245.776 186.86 245.727 186.893 245.672 186.916C245.618 186.939 245.559 186.95 245.5 186.95C245.441 186.95 245.382 186.938 245.328 186.915C245.218 186.869 245.131 186.782 245.085 186.672C245.04 186.562 245.039 186.438 245.084 186.328C245.107 186.273 245.14 186.224 245.182 186.182L247.864 183.5L245.182 180.818C245.119 180.755 245.077 180.675 245.059 180.588C245.042 180.501 245.05 180.41 245.084 180.328C245.107 180.273 245.14 180.224 245.182 180.182Z" fill="white"/>
  <path fill-rule="evenodd" clip-rule="evenodd" d="M276.499 181.85C274.919 181.85 273.391 182.411 272.188 183.435C270.985 184.458 270.186 185.877 269.933 187.436C269.68 188.995 269.991 190.593 270.809 191.944C271.627 193.296 272.899 194.311 274.398 194.81C274.73 194.871 274.852 194.666 274.852 194.489C274.852 194.332 274.846 193.913 274.843 193.359C272.993 193.76 272.603 192.467 272.603 192.467C272.3 191.699 271.864 191.494 271.864 191.494C271.26 191.082 271.91 191.09 271.91 191.09C272.577 191.137 272.929 191.776 272.929 191.776C273.522 192.792 274.485 192.498 274.864 192.328C274.924 191.898 275.096 191.605 275.286 191.439C273.809 191.271 272.257 190.701 272.257 188.152C272.257 187.426 272.516 186.833 272.942 186.368C272.873 186.2 272.645 185.524 273.007 184.608C273.007 184.608 273.565 184.429 274.835 185.289C275.366 185.142 275.935 185.069 276.5 185.066C277.062 185.067 277.622 185.142 278.165 185.289C279.435 184.429 279.992 184.608 279.992 184.608C280.355 185.524 280.127 186.2 280.058 186.368C280.485 186.833 280.742 187.426 280.742 188.152C280.742 190.707 279.187 191.269 277.706 191.434C277.944 191.639 278.157 192.045 278.157 192.665C278.157 193.554 278.149 194.271 278.149 194.489C278.149 194.667 278.269 194.874 278.606 194.81C280.105 194.311 281.378 193.295 282.196 191.943C283.014 190.591 283.324 188.992 283.071 187.433C282.817 185.873 282.017 184.455 280.812 183.432C279.608 182.409 278.079 181.848 276.499 181.85Z" fill="#11181C"/>
  <g clip-path="url(#clip0_1_2)">
    <path d="M276.138 220.499C273.664 220.499 271.658 218.494 271.658 216.019C271.658 213.545 273.664 211.539 276.138 211.539V220.499Z" fill="#11181C"/>
    <path d="M276.138 206.499H271.658V210.979H276.138V206.499Z" fill="#11181C"/>
    <path d="M278.938 210.979C280.176 210.979 281.178 209.977 281.178 208.739C281.178 207.502 280.176 206.499 278.938 206.499C277.701 206.499 276.698 207.502 276.698 208.739C276.698 209.977 277.701 210.979 278.938 210.979Z" fill="#11181C"/>
  </g>
  <path d="M161 225.5H239M161 165.5H239" stroke="#ECEEF0"/>
  <path fill-rule="evenodd" clip-rule="evenodd" d="M276.233 235.696C276.233 233.969 277.633 232.569 279.36 232.569C280.374 232.569 281.183 233.048 281.726 233.744C282.299 233.627 282.848 233.414 283.351 233.115C283.157 233.721 282.749 234.237 282.203 234.565L282.205 234.568C282.723 234.506 283.228 234.367 283.705 234.155L283.704 234.157C283.367 234.662 282.943 235.107 282.456 235.47C282.482 235.647 282.496 235.824 282.496 236.001C282.496 239.687 279.687 243.975 274.521 243.975C272.998 243.976 271.506 243.539 270.225 242.715C270.165 242.676 270.113 242.625 270.075 242.565C270.036 242.505 270.01 242.437 270 242.366C269.99 242.295 269.995 242.222 270.015 242.154C270.035 242.085 270.07 242.021 270.117 241.967C270.162 241.893 270.227 241.833 270.305 241.795C270.383 241.757 270.47 241.742 270.556 241.752C271.471 241.86 272.386 241.748 273.192 241.396C272.794 241.22 272.438 240.962 272.146 240.639C271.855 240.316 271.635 239.934 271.502 239.52C271.477 239.443 271.474 239.361 271.492 239.282C271.51 239.203 271.549 239.131 271.605 239.072C271.276 238.784 271.013 238.428 270.833 238.029C270.652 237.631 270.559 237.198 270.56 236.761V236.728C270.56 236.623 270.596 236.522 270.663 236.441C270.729 236.36 270.822 236.306 270.925 236.286C270.699 235.848 270.581 235.363 270.581 234.87C270.581 234.402 270.584 233.812 270.913 233.281C270.948 233.224 270.995 233.176 271.051 233.14C271.108 233.104 271.171 233.081 271.237 233.072C271.332 233.042 271.434 233.041 271.53 233.07C271.626 233.099 271.711 233.156 271.774 233.233C272.889 234.604 274.483 235.5 276.234 235.74L276.233 235.696ZM274.521 242.975C273.756 242.975 272.997 242.849 272.273 242.602C273.144 242.459 273.965 242.1 274.662 241.56C274.736 241.503 274.79 241.424 274.817 241.335C274.844 241.246 274.842 241.151 274.813 241.062C274.783 240.974 274.727 240.897 274.652 240.842C274.577 240.787 274.486 240.757 274.393 240.756C274.058 240.75 273.729 240.667 273.431 240.513C273.134 240.359 272.876 240.138 272.678 239.868C272.868 239.853 273.054 239.82 273.235 239.772C273.332 239.745 273.418 239.686 273.478 239.604C273.537 239.523 273.568 239.424 273.565 239.323C273.561 239.222 273.524 239.125 273.459 239.047C273.394 238.97 273.305 238.917 273.206 238.896C272.826 238.819 272.473 238.642 272.183 238.383C271.894 238.124 271.68 237.792 271.562 237.422C271.763 237.47 271.971 237.499 272.185 237.506C272.283 237.51 272.38 237.482 272.461 237.426C272.541 237.369 272.601 237.288 272.631 237.195C272.661 237.101 272.66 237.001 272.627 236.908C272.594 236.815 272.532 236.736 272.45 236.682C272.152 236.483 271.907 236.214 271.738 235.898C271.569 235.582 271.481 235.229 271.481 234.87C271.481 234.702 271.484 234.553 271.494 234.417C272.893 235.845 274.779 236.694 276.776 236.793C276.853 236.797 276.93 236.782 277 236.751C277.071 236.72 277.133 236.674 277.183 236.615C277.233 236.556 277.268 236.486 277.286 236.411C277.305 236.336 277.306 236.258 277.289 236.183C277.216 235.871 277.214 235.546 277.284 235.233C277.353 234.92 277.493 234.627 277.692 234.375C277.892 234.124 278.145 233.921 278.434 233.781C278.723 233.641 279.039 233.569 279.36 233.569C280.594 233.569 281.496 234.712 281.496 236.001C281.496 239.257 279.02 242.975 274.521 242.975Z" fill="#11181C"/>
  <path d="M297.672 243H298.704V235.296H301.908V234.432H294.48V235.296H297.672V243ZM306.46 236.964H305.452L304.108 241.92H304.072L302.668 236.964H301.684L303.508 243H304.552L305.92 238.116H305.956L307.348 243H308.38L310.204 236.964H309.244L307.852 241.92H307.828L306.46 236.964ZM311.519 235.704H312.647V234.492H311.519V235.704ZM311.591 243H312.587V236.964H311.591V243ZM317.528 242.112C317.246 242.207 316.95 242.255 316.652 242.256C316.1 242.256 315.776 242.04 315.776 241.404V237.72H317.372V236.964H315.788V235.428H314.804V236.964H313.916V237.72H314.804V241.452C314.804 242.568 315.368 243.096 316.472 243.096C316.736 243.096 317.084 243.06 317.528 242.928V242.112ZM321.958 242.112C321.676 242.207 321.38 242.255 321.082 242.256C320.53 242.256 320.206 242.04 320.206 241.404V237.72H321.802V236.964H320.218V235.428H319.234V236.964H318.346V237.72H319.234V241.452C319.234 242.568 319.798 243.096 320.902 243.096C321.166 243.096 321.514 243.06 321.958 242.928V242.112ZM328.465 241.224H327.529C327.277 241.956 326.785 242.352 325.969 242.352C324.817 242.352 324.085 241.584 324.037 240.192H328.501V239.796C328.501 238.248 327.697 236.82 325.909 236.82C324.301 236.82 323.065 238.044 323.065 240.012C323.065 241.956 324.265 243.144 325.969 243.144C327.145 243.144 328.189 242.508 328.465 241.224ZM325.909 237.624C326.989 237.624 327.505 238.428 327.529 239.472H324.073C324.241 238.236 324.961 237.624 325.909 237.624ZM333.537 236.88C333.383 236.846 333.226 236.83 333.069 236.832C332.181 236.832 331.413 237.396 331.149 238.392V236.964H330.189V243H331.185V240.024C331.185 238.5 332.061 237.744 333.021 237.744C333.177 237.744 333.393 237.756 333.537 237.792V236.88Z" fill="#11181C"/>
  <path d="M296.119 214.528V218H295.095V209.431H298.391C299.364 209.431 300.109 209.651 300.627 210.091C301.145 210.53 301.404 211.158 301.404 211.974C301.404 212.578 301.223 213.096 300.862 213.527C300.509 213.959 300.031 214.241 299.427 214.375L301.781 218H300.615L298.391 214.528H296.119ZM296.119 210.291V213.669H298.332C298.991 213.669 299.493 213.523 299.838 213.233C300.192 212.943 300.368 212.523 300.368 211.974C300.368 211.44 300.192 211.028 299.838 210.738C299.485 210.44 298.983 210.291 298.332 210.291H296.119ZM308.155 218H307.155C307.123 217.843 307.096 217.674 307.072 217.494C307.057 217.313 307.049 217.141 307.049 216.976C306.915 217.329 306.66 217.612 306.284 217.823C305.907 218.027 305.46 218.129 304.942 218.129C304.369 218.129 303.898 217.973 303.53 217.659C303.169 217.345 302.988 216.925 302.988 216.399C302.988 215.881 303.161 215.473 303.506 215.175C303.859 214.869 304.381 214.673 305.071 214.587L307.025 214.34V213.986C307.025 213.547 306.904 213.21 306.66 212.974C306.417 212.739 306.064 212.621 305.601 212.621C305.201 212.621 304.879 212.719 304.636 212.915C304.401 213.112 304.263 213.386 304.224 213.739H303.259C303.322 213.143 303.565 212.676 303.989 212.339C304.42 211.993 304.965 211.821 305.625 211.821C306.394 211.821 306.982 212.005 307.39 212.374C307.798 212.743 308.002 213.272 308.002 213.963V216.741C308.002 217.023 308.014 217.262 308.037 217.459C308.061 217.655 308.1 217.835 308.155 218ZM304 216.376C304 216.682 304.102 216.925 304.306 217.105C304.518 217.286 304.801 217.376 305.154 217.376C305.687 217.376 306.131 217.215 306.484 216.894C306.845 216.564 307.025 216.14 307.025 215.622V215.081L305.377 215.258C304.86 215.336 304.499 215.462 304.295 215.634C304.098 215.807 304 216.054 304 216.376ZM312.336 218.141C311.552 218.141 310.904 217.851 310.394 217.27C309.892 216.682 309.641 215.921 309.641 214.987C309.641 214.053 309.892 213.292 310.394 212.703C310.896 212.115 311.544 211.821 312.336 211.821C312.791 211.821 313.195 211.931 313.549 212.15C313.902 212.37 314.165 212.664 314.337 213.033V209.161H315.338V218H314.372V216.941C314.192 217.294 313.917 217.584 313.549 217.812C313.188 218.031 312.784 218.141 312.336 218.141ZM312.536 212.598C311.956 212.598 311.497 212.813 311.159 213.245C310.822 213.676 310.653 214.257 310.653 214.987C310.653 215.709 310.822 216.286 311.159 216.717C311.497 217.149 311.956 217.364 312.536 217.364C313.101 217.364 313.549 217.156 313.878 216.741C314.216 216.325 314.384 215.764 314.384 215.057V214.893C314.384 214.187 314.216 213.629 313.878 213.221C313.549 212.806 313.101 212.598 312.536 212.598ZM318.535 210.703H317.405V209.49H318.535V210.703ZM318.465 218H317.476V211.962H318.465V218ZM322.812 215.575L321.07 218H319.999L322.294 214.893L320.117 211.962H321.294L322.906 214.187L324.495 211.962H325.578L323.448 214.846L325.766 218H324.601L322.812 215.575Z" fill="#11181C"/>
  <defs>
    <filter id="filter0_dd_1_2" x="106" y="80" width="188" height="242" filterUnits="userSpaceOnUse" color-interpolation-filters="sRGB">
      <feFlood flood-opacity="0" result="BackgroundImageFix"/>
      <feColorMatrix in="SourceAlpha" type="matrix" values="0 0 0 0 0 0 0 0 0 0 0 0 0 0 0 0 0 0 127 0" result="hardAlpha"/>
      <feOffset dy="5"/>
      <feGaussianBlur stdDeviation="15"/>
      <feColorMatrix type="matrix" values="0 0 0 0 0 0 0 0 0 0 0 0 0 0 0 0 0 0 0.1 0"/>
      <feBlend mode="normal" in2="BackgroundImageFix" result="effect1_dropShadow_1_2"/>
      <feColorMatrix in="SourceAlpha" type="matrix" values="0 0 0 0 0 0 0 0 0 0 0 0 0 0 0 0 0 0 127 0" result="hardAlpha"/>
      <feOffset dy="1"/>
      <feGaussianBlur stdDeviation="1.5"/>
      <feColorMatrix type="matrix" values="0 0 0 0 0 0 0 0 0 0 0 0 0 0 0 0 0 0 0.2 0"/>
      <feBlend mode="normal" in2="effect1_dropShadow_1_2" result="effect2_dropShadow_1_2"/>
      <feBlend mode="normal" in="SourceGraphic" in2="effect2_dropShadow_1_2" result="shape"/>
    </filter>
    <filter id="filter1_dd_1_2" x="229" y="146" width="160" height="145" filterUnits="userSpaceOnUse" color-interpolation-filters="sRGB">
      <feFlood flood-opacity="0" result="BackgroundImageFix"/>
      <feColorMatrix in="SourceAlpha" type="matrix" values="0 0 0 0 0 0 0 0 0 0 0 0 0 0 0 0 0 0 127 0" result="hardAlpha"/>
      <feOffset dy="5"/>
      <feGaussianBlur stdDeviation="15"/>
      <feColorMatrix type="matrix" values="0 0 0 0 0 0 0 0 0 0 0 0 0 0 0 0 0 0 0.1 0"/>
      <feBlend mode="normal" in2="BackgroundImageFix" result="effect1_dropShadow_1_2"/>
      <feColorMatrix in="SourceAlpha" type="matrix" values="0 0 0 0 0 0 0 0 0 0 0 0 0 0 0 0 0 0 127 0" result="hardAlpha"/>
      <feOffset dy="1"/>
      <feGaussianBlur stdDeviation="1.5"/>
      <feColorMatrix type="matrix" values="0 0 0 0 0 0 0 0 0 0 0 0 0 0 0 0 0 0 0.2 0"/>
      <feBlend mode="normal" in2="effect1_dropShadow_1_2" result="effect2_dropShadow_1_2"/>
      <feBlend mode="normal" in="SourceGraphic" in2="effect2_dropShadow_1_2" result="shape"/>
    </filter>
    <clipPath id="clip0_1_2">
      <rect width="14" height="14" fill="white" transform="translate(269.418 206.499)"/>
    </clipPath>
  </defs>
</svg>
