<svg width="400" height="400" viewBox="0 0 400 400" fill="none" xmlns="http://www.w3.org/2000/svg">
<g filter="url(#filter0_dd)">
<rect x="136" y="105" width="128" height="182" rx="6" fill="white"/>
</g>
<g filter="url(#filter1_dd)">
<rect x="259" y="171" width="100" height="85" rx="6" fill="white"/>
</g>
<path d="M197.5 105L193 100L188.5 105H197.5Z" fill="white"/>
<rect x="160" y="70" width="80" height="25" rx="6" fill="#ECEEF0"/>
<rect x="141" y="171" width="118" height="25" rx="4" fill="#3E62DD"/>
<path d="M174.875 77.562C176.132 77.562 177.15 78.0083 177.93 78.901C178.71 79.785 179.1 80.9377 179.1 82.359C179.1 83.7803 178.71 84.9373 177.93 85.83C177.159 86.714 176.14 87.156 174.875 87.156C173.61 87.156 172.587 86.714 171.807 85.83C171.036 84.9373 170.65 83.7803 170.65 82.359C170.65 80.9377 171.04 79.785 171.82 78.901C172.6 78.0083 173.618 77.562 174.875 77.562ZM174.875 86.207C175.837 86.207 176.587 85.8647 177.124 85.18C177.67 84.4953 177.943 83.555 177.943 82.359C177.943 81.1717 177.67 80.2357 177.124 79.551C176.587 78.8577 175.837 78.511 174.875 78.511C173.913 78.511 173.159 78.8577 172.613 79.551C172.067 80.2357 171.794 81.1717 171.794 82.359C171.794 83.555 172.063 84.4953 172.6 85.18C173.146 85.8647 173.904 86.207 174.875 86.207Z" fill="#11181C"/>
<path d="M184.157 87.156C183.68 87.156 183.247 87.039 182.857 86.805C182.467 86.5623 182.177 86.246 181.986 85.856V89.314H180.907V80.461H181.947V81.657C182.129 81.2583 182.419 80.9333 182.818 80.682C183.217 80.4307 183.663 80.305 184.157 80.305C185.015 80.305 185.713 80.6257 186.25 81.267C186.796 81.8997 187.069 82.723 187.069 83.737C187.069 84.751 186.796 85.5743 186.25 86.207C185.704 86.8397 185.006 87.156 184.157 87.156ZM183.936 81.15C183.321 81.15 182.831 81.3753 182.467 81.826C182.112 82.268 181.934 82.8703 181.934 83.633V83.815C181.934 84.5777 182.112 85.1843 182.467 85.635C182.831 86.0857 183.321 86.311 183.936 86.311C184.56 86.311 185.054 86.077 185.418 85.609C185.791 85.141 185.977 84.517 185.977 83.737C185.977 82.9483 185.791 82.32 185.418 81.852C185.054 81.384 184.56 81.15 183.936 81.15Z" fill="#11181C"/>
<path d="M190.998 86.194C191.154 86.194 191.306 86.181 191.453 86.155C191.609 86.129 191.774 86.09 191.947 86.038V86.922C191.739 86.9827 191.54 87.026 191.349 87.052C191.167 87.0867 190.985 87.104 190.803 87.104C190.196 87.104 189.741 86.9567 189.438 86.662C189.143 86.3673 188.996 85.921 188.996 85.323V81.28H188.034V80.461H188.996V78.797H190.062V80.461H191.778V81.28H190.049V85.271C190.049 85.5917 190.123 85.8257 190.27 85.973C190.426 86.1203 190.669 86.194 190.998 86.194Z" fill="#11181C"/>
<path d="M194.848 79.096H193.626V77.783H194.848V79.096ZM194.783 87H193.704V80.461H194.783V87Z" fill="#11181C"/>
<path d="M199.72 80.305C200.647 80.305 201.397 80.6213 201.969 81.254C202.541 81.878 202.827 82.7057 202.827 83.737C202.827 84.7683 202.541 85.596 201.969 86.22C201.397 86.844 200.647 87.156 199.72 87.156C198.792 87.156 198.043 86.844 197.471 86.22C196.899 85.596 196.613 84.7683 196.613 83.737C196.613 82.7057 196.899 81.878 197.471 81.254C198.043 80.6213 198.792 80.305 199.72 80.305ZM199.72 81.176C199.087 81.176 198.589 81.4057 198.225 81.865C197.861 82.3243 197.679 82.9483 197.679 83.737C197.679 84.5257 197.861 85.1497 198.225 85.609C198.589 86.0597 199.087 86.285 199.72 86.285C200.352 86.285 200.851 86.0597 201.215 85.609C201.579 85.1497 201.761 84.5257 201.761 83.737C201.761 82.9483 201.579 82.3243 201.215 81.865C200.851 81.4057 200.352 81.176 199.72 81.176Z" fill="#11181C"/>
<path d="M204.66 80.461H205.7V81.657C205.856 81.2497 206.125 80.9247 206.506 80.682C206.896 80.4307 207.338 80.305 207.832 80.305C208.569 80.305 209.141 80.526 209.548 80.968C209.964 81.4013 210.172 82.008 210.172 82.788V87H209.093V83.022C209.093 82.4153 208.959 81.9603 208.69 81.657C208.43 81.345 208.044 81.189 207.533 81.189C206.97 81.189 206.528 81.3797 206.207 81.761C205.895 82.1423 205.739 82.6883 205.739 83.399V87H204.66V80.461Z" fill="#11181C"/>
<path d="M214.705 87.156C213.873 87.156 213.201 86.974 212.69 86.61C212.187 86.2373 211.91 85.7217 211.858 85.063H212.898C212.932 85.4617 213.11 85.7737 213.431 85.999C213.76 86.2243 214.18 86.337 214.692 86.337C215.16 86.337 215.532 86.2373 215.81 86.038C216.096 85.83 216.239 85.557 216.239 85.219C216.239 84.9677 216.143 84.7683 215.953 84.621C215.771 84.465 215.485 84.348 215.095 84.27L213.938 84.036C213.296 83.9147 212.833 83.7153 212.547 83.438C212.261 83.152 212.118 82.762 212.118 82.268C212.118 81.7047 212.347 81.2367 212.807 80.864C213.266 80.4913 213.847 80.305 214.549 80.305C215.311 80.305 215.914 80.4697 216.356 80.799C216.798 81.1197 217.049 81.5833 217.11 82.19H216.109C216.074 81.8607 215.918 81.605 215.641 81.423C215.363 81.2323 214.999 81.137 214.549 81.137C214.115 81.137 213.769 81.2367 213.509 81.436C213.249 81.6267 213.119 81.8823 213.119 82.203C213.119 82.463 213.205 82.6667 213.379 82.814C213.552 82.9527 213.847 83.061 214.263 83.139L215.563 83.386C216.135 83.4987 216.559 83.7023 216.837 83.997C217.114 84.283 217.253 84.673 217.253 85.167C217.253 85.739 217.01 86.2157 216.525 86.597C216.048 86.9697 215.441 87.156 214.705 87.156Z" fill="#11181C"/>
<path d="M162.116 118.432H163.388L167.96 125.272H167.984V118.432H168.98V127H168.02L163.148 119.692H163.124V127H162.116V118.432Z" fill="#11181C"/>
<path d="M175.193 125.224H176.129C176.001 125.824 175.713 126.296 175.265 126.64C174.817 126.976 174.273 127.144 173.633 127.144C172.761 127.144 172.057 126.86 171.521 126.292C170.993 125.724 170.729 124.964 170.729 124.012C170.729 123.06 170.993 122.292 171.521 121.708C172.057 121.116 172.741 120.82 173.573 120.82C174.373 120.82 175.005 121.096 175.469 121.648C175.933 122.192 176.165 122.908 176.165 123.796V124.192H171.701C171.725 124.88 171.905 125.412 172.241 125.788C172.585 126.164 173.049 126.352 173.633 126.352C174.025 126.352 174.349 126.26 174.605 126.076C174.869 125.884 175.065 125.6 175.193 125.224ZM173.573 121.624C173.069 121.624 172.657 121.788 172.337 122.116C172.017 122.436 171.817 122.888 171.737 123.472H175.193C175.177 122.896 175.025 122.444 174.737 122.116C174.457 121.788 174.069 121.624 173.573 121.624Z" fill="#11181C"/>
<path d="M180.889 120.964H181.897L183.265 125.92H183.289L184.681 120.964H185.641L183.817 127H182.785L181.393 122.116H181.357L179.989 127H178.945L177.121 120.964H178.105L179.509 125.92H179.545L180.889 120.964Z" fill="#11181C"/>
<path d="M193.266 127H192.234V119.296H189.042V118.432H196.47V119.296H193.266V127Z" fill="#11181C"/>
<path d="M201.518 127H200.522C200.49 126.84 200.462 126.672 200.438 126.496C200.422 126.312 200.414 126.14 200.414 125.98C200.286 126.332 200.03 126.612 199.646 126.82C199.27 127.028 198.826 127.132 198.314 127.132C197.738 127.132 197.266 126.976 196.898 126.664C196.538 126.344 196.358 125.924 196.358 125.404C196.358 124.884 196.53 124.472 196.874 124.168C197.226 123.864 197.75 123.672 198.446 123.592L200.39 123.34V122.992C200.39 122.552 200.266 122.216 200.018 121.984C199.778 121.744 199.43 121.624 198.974 121.624C198.574 121.624 198.254 121.724 198.014 121.924C197.774 122.116 197.634 122.388 197.594 122.74H196.634C196.69 122.148 196.93 121.68 197.354 121.336C197.786 120.992 198.334 120.82 198.998 120.82C199.766 120.82 200.354 121.004 200.762 121.372C201.17 121.74 201.374 122.272 201.374 122.968V125.74C201.374 126.02 201.386 126.26 201.41 126.46C201.434 126.652 201.47 126.832 201.518 127ZM197.366 125.38C197.366 125.684 197.47 125.928 197.678 126.112C197.886 126.288 198.166 126.376 198.518 126.376C199.054 126.376 199.498 126.216 199.85 125.896C200.21 125.568 200.39 125.144 200.39 124.624V124.084L198.746 124.264C198.226 124.336 197.866 124.46 197.666 124.636C197.466 124.812 197.366 125.06 197.366 125.38Z" fill="#11181C"/>
<path d="M206.447 127.144C205.999 127.144 205.591 127.032 205.223 126.808C204.855 126.584 204.583 126.296 204.407 125.944V127H203.447V118.168H204.443V122.032C204.611 121.664 204.871 121.372 205.223 121.156C205.583 120.932 205.991 120.82 206.447 120.82C207.239 120.82 207.883 121.116 208.379 121.708C208.883 122.292 209.135 123.052 209.135 123.988C209.135 124.924 208.883 125.684 208.379 126.268C207.875 126.852 207.231 127.144 206.447 127.144ZM206.243 121.6C205.675 121.6 205.223 121.808 204.887 122.224C204.559 122.632 204.395 123.188 204.395 123.892V124.06C204.395 124.764 204.559 125.324 204.887 125.74C205.223 126.156 205.675 126.364 206.243 126.364C206.819 126.364 207.275 126.148 207.611 125.716C207.955 125.284 208.127 124.708 208.127 123.988C208.127 123.26 207.955 122.68 207.611 122.248C207.275 121.816 206.819 121.6 206.243 121.6Z" fill="#11181C"/>
<path d="M162.116 143.432H163.388L167.96 150.272H167.984V143.432H168.98V152H168.02L163.148 144.692H163.124V152H162.116V143.432Z" fill="#11181C"/>
<path d="M175.193 150.224H176.129C176.001 150.824 175.713 151.296 175.265 151.64C174.817 151.976 174.273 152.144 173.633 152.144C172.761 152.144 172.057 151.86 171.521 151.292C170.993 150.724 170.729 149.964 170.729 149.012C170.729 148.06 170.993 147.292 171.521 146.708C172.057 146.116 172.741 145.82 173.573 145.82C174.373 145.82 175.005 146.096 175.469 146.648C175.933 147.192 176.165 147.908 176.165 148.796V149.192H171.701C171.725 149.88 171.905 150.412 172.241 150.788C172.585 151.164 173.049 151.352 173.633 151.352C174.025 151.352 174.349 151.26 174.605 151.076C174.869 150.884 175.065 150.6 175.193 150.224ZM173.573 146.624C173.069 146.624 172.657 146.788 172.337 147.116C172.017 147.436 171.817 147.888 171.737 148.472H175.193C175.177 147.896 175.025 147.444 174.737 147.116C174.457 146.788 174.069 146.624 173.573 146.624Z" fill="#11181C"/>
<path d="M180.889 145.964H181.897L183.265 150.92H183.289L184.681 145.964H185.641L183.817 152H182.785L181.393 147.116H181.357L179.989 152H178.945L177.121 145.964H178.105L179.509 150.92H179.545L180.889 145.964Z" fill="#11181C"/>
<path d="M197.514 152H196.338L194.406 144.8H194.382L192.438 152H191.274L188.862 143.432H189.954L191.922 150.716H191.946L193.878 143.432H194.97L196.914 150.716H196.938L198.894 143.432H199.926L197.514 152Z" fill="#11181C"/>
<path d="M202.347 144.704H201.219V143.492H202.347V144.704ZM202.287 152H201.291V145.964H202.287V152Z" fill="#11181C"/>
<path d="M204.42 145.964H205.38V147.068C205.524 146.692 205.772 146.392 206.124 146.168C206.484 145.936 206.892 145.82 207.348 145.82C208.028 145.82 208.556 146.024 208.932 146.432C209.316 146.832 209.508 147.392 209.508 148.112V152H208.512V148.328C208.512 147.768 208.388 147.348 208.14 147.068C207.9 146.78 207.544 146.636 207.072 146.636C206.552 146.636 206.144 146.812 205.848 147.164C205.56 147.516 205.416 148.02 205.416 148.676V152H204.42V145.964Z" fill="#11181C"/>
<path d="M213.824 152.144C213.04 152.144 212.396 151.852 211.892 151.268C211.388 150.684 211.136 149.924 211.136 148.988C211.136 148.052 211.384 147.292 211.88 146.708C212.384 146.116 213.032 145.82 213.824 145.82C214.28 145.82 214.684 145.932 215.036 146.156C215.396 146.372 215.66 146.664 215.828 147.032V143.168H216.824V152H215.864V150.944C215.688 151.296 215.416 151.584 215.048 151.808C214.68 152.032 214.272 152.144 213.824 152.144ZM214.028 146.6C213.452 146.6 212.992 146.816 212.648 147.248C212.312 147.68 212.144 148.26 212.144 148.988C212.144 149.708 212.312 150.284 212.648 150.716C212.992 151.148 213.452 151.364 214.028 151.364C214.596 151.364 215.044 151.156 215.372 150.74C215.708 150.324 215.876 149.764 215.876 149.06V148.892C215.876 148.188 215.708 147.632 215.372 147.224C215.044 146.808 214.596 146.6 214.028 146.6Z" fill="#11181C"/>
<path d="M221.386 145.82C222.242 145.82 222.934 146.112 223.462 146.696C223.99 147.272 224.254 148.036 224.254 148.988C224.254 149.94 223.99 150.704 223.462 151.28C222.934 151.856 222.242 152.144 221.386 152.144C220.53 152.144 219.838 151.856 219.31 151.28C218.782 150.704 218.518 149.94 218.518 148.988C218.518 148.036 218.782 147.272 219.31 146.696C219.838 146.112 220.53 145.82 221.386 145.82ZM221.386 146.624C220.802 146.624 220.342 146.836 220.006 147.26C219.67 147.684 219.502 148.26 219.502 148.988C219.502 149.716 219.67 150.292 220.006 150.716C220.342 151.132 220.802 151.34 221.386 151.34C221.97 151.34 222.43 151.132 222.766 150.716C223.102 150.292 223.27 149.716 223.27 148.988C223.27 148.26 223.102 147.684 222.766 147.26C222.43 146.836 221.97 146.624 221.386 146.624Z" fill="#11181C"/>
<path d="M228.983 145.964H229.991L231.359 150.92H231.383L232.775 145.964H233.735L231.911 152H230.879L229.487 147.116H229.451L228.083 152H227.039L225.215 145.964H226.199L227.603 150.92H227.639L228.983 145.964Z" fill="#11181C"/>
<path d="M163.148 188H162.116V179.432H167.6V180.296H163.148V183.428H167.192V184.292H163.148V188Z" fill="white"/>
<path d="M173.768 188H172.772C172.74 187.84 172.712 187.672 172.688 187.496C172.672 187.312 172.664 187.14 172.664 186.98C172.536 187.332 172.28 187.612 171.896 187.82C171.52 188.028 171.076 188.132 170.564 188.132C169.988 188.132 169.516 187.976 169.148 187.664C168.788 187.344 168.608 186.924 168.608 186.404C168.608 185.884 168.78 185.472 169.124 185.168C169.476 184.864 170 184.672 170.696 184.592L172.64 184.34V183.992C172.64 183.552 172.516 183.216 172.268 182.984C172.028 182.744 171.68 182.624 171.224 182.624C170.824 182.624 170.504 182.724 170.264 182.924C170.024 183.116 169.884 183.388 169.844 183.74H168.884C168.94 183.148 169.18 182.68 169.604 182.336C170.036 181.992 170.584 181.82 171.248 181.82C172.016 181.82 172.604 182.004 173.012 182.372C173.42 182.74 173.624 183.272 173.624 183.968V186.74C173.624 187.02 173.636 187.26 173.66 187.46C173.684 187.652 173.72 187.832 173.768 188ZM169.616 186.38C169.616 186.684 169.72 186.928 169.928 187.112C170.136 187.288 170.416 187.376 170.768 187.376C171.304 187.376 171.748 187.216 172.1 186.896C172.46 186.568 172.64 186.144 172.64 185.624V185.084L170.996 185.264C170.476 185.336 170.116 185.46 169.916 185.636C169.716 185.812 169.616 186.06 169.616 186.38Z" fill="white"/>
<path d="M178.376 188H177.26L174.848 181.964H175.868L177.812 187.016H177.836L179.696 181.964H180.692L178.376 188Z" fill="white"/>
<path d="M184.297 181.82C185.153 181.82 185.845 182.112 186.373 182.696C186.901 183.272 187.165 184.036 187.165 184.988C187.165 185.94 186.901 186.704 186.373 187.28C185.845 187.856 185.153 188.144 184.297 188.144C183.441 188.144 182.749 187.856 182.221 187.28C181.693 186.704 181.429 185.94 181.429 184.988C181.429 184.036 181.693 183.272 182.221 182.696C182.749 182.112 183.441 181.82 184.297 181.82ZM184.297 182.624C183.713 182.624 183.253 182.836 182.917 183.26C182.581 183.684 182.413 184.26 182.413 184.988C182.413 185.716 182.581 186.292 182.917 186.716C183.253 187.132 183.713 187.34 184.297 187.34C184.881 187.34 185.341 187.132 185.677 186.716C186.013 186.292 186.181 185.716 186.181 184.988C186.181 184.26 186.013 183.684 185.677 183.26C185.341 182.836 184.881 182.624 184.297 182.624Z" fill="white"/>
<path d="M191.737 181.832C191.825 181.832 191.909 181.836 191.989 181.844C192.069 181.852 192.141 181.864 192.205 181.88V182.792C192.141 182.776 192.061 182.764 191.965 182.756C191.877 182.748 191.785 182.744 191.689 182.744C191.153 182.744 190.713 182.952 190.369 183.368C190.025 183.776 189.853 184.328 189.853 185.024V188H188.857V181.964H189.817V183.392C189.945 182.912 190.181 182.532 190.525 182.252C190.869 181.972 191.273 181.832 191.737 181.832Z" fill="white"/>
<path d="M194.53 180.704H193.402V179.492H194.53V180.704ZM194.47 188H193.474V181.964H194.47V188Z" fill="white"/>
<path d="M198.535 187.256C198.679 187.256 198.819 187.244 198.955 187.22C199.099 187.196 199.251 187.16 199.411 187.112V187.928C199.219 187.984 199.035 188.024 198.859 188.048C198.691 188.08 198.523 188.096 198.355 188.096C197.795 188.096 197.375 187.96 197.095 187.688C196.823 187.416 196.687 187.004 196.687 186.452V182.72H195.799V181.964H196.687V180.428H197.671V181.964H199.255V182.72H197.659V186.404C197.659 186.7 197.727 186.916 197.863 187.052C198.007 187.188 198.231 187.256 198.535 187.256Z" fill="white"/>
<path d="M205.053 186.224H205.989C205.861 186.824 205.573 187.296 205.125 187.64C204.677 187.976 204.133 188.144 203.493 188.144C202.621 188.144 201.917 187.86 201.381 187.292C200.853 186.724 200.589 185.964 200.589 185.012C200.589 184.06 200.853 183.292 201.381 182.708C201.917 182.116 202.601 181.82 203.433 181.82C204.233 181.82 204.865 182.096 205.329 182.648C205.793 183.192 206.025 183.908 206.025 184.796V185.192H201.561C201.585 185.88 201.765 186.412 202.101 186.788C202.445 187.164 202.909 187.352 203.493 187.352C203.885 187.352 204.209 187.26 204.465 187.076C204.729 186.884 204.925 186.6 205.053 186.224ZM203.433 182.624C202.929 182.624 202.517 182.788 202.197 183.116C201.877 183.436 201.677 183.888 201.597 184.472H205.053C205.037 183.896 204.885 183.444 204.597 183.116C204.317 182.788 203.929 182.624 203.433 182.624Z" fill="white"/>
<path d="M209.824 188.144C209.056 188.144 208.436 187.976 207.964 187.64C207.5 187.296 207.244 186.82 207.196 186.212H208.156C208.188 186.58 208.352 186.868 208.648 187.076C208.952 187.284 209.34 187.388 209.812 187.388C210.244 187.388 210.588 187.296 210.844 187.112C211.108 186.92 211.24 186.668 211.24 186.356C211.24 186.124 211.152 185.94 210.976 185.804C210.808 185.66 210.544 185.552 210.184 185.48L209.116 185.264C208.524 185.152 208.096 184.968 207.832 184.712C207.568 184.448 207.436 184.088 207.436 183.632C207.436 183.112 207.648 182.68 208.072 182.336C208.496 181.992 209.032 181.82 209.68 181.82C210.384 181.82 210.94 181.972 211.348 182.276C211.756 182.572 211.988 183 212.044 183.56H211.12C211.088 183.256 210.944 183.02 210.688 182.852C210.432 182.676 210.096 182.588 209.68 182.588C209.28 182.588 208.96 182.68 208.72 182.864C208.48 183.04 208.36 183.276 208.36 183.572C208.36 183.812 208.44 184 208.6 184.136C208.76 184.264 209.032 184.364 209.416 184.436L210.616 184.664C211.144 184.768 211.536 184.956 211.792 185.228C212.048 185.492 212.176 185.852 212.176 186.308C212.176 186.836 211.952 187.276 211.504 187.628C211.064 187.972 210.504 188.144 209.824 188.144Z" fill="white"/>
<path d="M298.512 193.144C297.352 193.144 296.408 192.736 295.68 191.92C294.96 191.096 294.6 190.024 294.6 188.704C294.6 187.392 294.968 186.328 295.704 185.512C296.44 184.696 297.392 184.288 298.56 184.288C299.472 184.288 300.216 184.52 300.792 184.984C301.376 185.448 301.748 186.096 301.908 186.928H300.876C300.756 186.368 300.496 185.936 300.096 185.632C299.696 185.32 299.184 185.164 298.56 185.164C297.664 185.164 296.956 185.484 296.436 186.124C295.916 186.756 295.656 187.616 295.656 188.704C295.656 189.8 295.912 190.668 296.424 191.308C296.936 191.948 297.636 192.268 298.524 192.268C299.26 192.268 299.86 192.06 300.324 191.644C300.796 191.22 301.032 190.668 301.032 189.988V189.544H299.004V188.728H302.04V193H301.224L301.128 191.572C300.968 192.02 300.636 192.396 300.132 192.7C299.636 192.996 299.096 193.144 298.512 193.144Z" fill="#11181C"/>
<path d="M305.077 185.704H303.949V184.492H305.077V185.704ZM305.017 193H304.021V186.964H305.017V193Z" fill="#11181C"/>
<path d="M309.082 192.256C309.226 192.256 309.366 192.244 309.502 192.22C309.646 192.196 309.798 192.16 309.958 192.112V192.928C309.766 192.984 309.582 193.024 309.406 193.048C309.238 193.08 309.07 193.096 308.902 193.096C308.342 193.096 307.922 192.96 307.642 192.688C307.37 192.416 307.234 192.004 307.234 191.452V187.72H306.346V186.964H307.234V185.428H308.218V186.964H309.802V187.72H308.206V191.404C308.206 191.7 308.274 191.916 308.41 192.052C308.554 192.188 308.778 192.256 309.082 192.256Z" fill="#11181C"/>
<path d="M312.66 193H311.628V184.432H312.66V188.212H317.676V184.432H318.708V193H317.676V189.076H312.66V193Z" fill="#11181C"/>
<path d="M325.864 186.964V193H324.892V191.908C324.748 192.292 324.504 192.596 324.16 192.82C323.816 193.036 323.42 193.144 322.972 193.144C322.292 193.144 321.764 192.948 321.388 192.556C321.02 192.156 320.836 191.588 320.836 190.852V186.964H321.844V190.66C321.844 191.228 321.96 191.656 322.192 191.944C322.432 192.224 322.788 192.364 323.26 192.364C323.764 192.364 324.156 192.184 324.436 191.824C324.716 191.464 324.856 190.952 324.856 190.288V186.964H325.864Z" fill="#11181C"/>
<path d="M330.998 193.144C330.55 193.144 330.142 193.032 329.774 192.808C329.406 192.584 329.134 192.296 328.958 191.944V193H327.998V184.168H328.994V188.032C329.162 187.664 329.422 187.372 329.774 187.156C330.134 186.932 330.542 186.82 330.998 186.82C331.79 186.82 332.434 187.116 332.93 187.708C333.434 188.292 333.686 189.052 333.686 189.988C333.686 190.924 333.434 191.684 332.93 192.268C332.426 192.852 331.782 193.144 330.998 193.144ZM330.794 187.6C330.226 187.6 329.774 187.808 329.438 188.224C329.11 188.632 328.946 189.188 328.946 189.892V190.06C328.946 190.764 329.11 191.324 329.438 191.74C329.774 192.156 330.226 192.364 330.794 192.364C331.37 192.364 331.826 192.148 332.162 191.716C332.506 191.284 332.678 190.708 332.678 189.988C332.678 189.26 332.506 188.68 332.162 188.248C331.826 187.816 331.37 187.6 330.794 187.6Z" fill="#11181C"/>
<path d="M298.104 218.144C297.056 218.144 296.216 217.912 295.584 217.448C294.96 216.976 294.62 216.316 294.564 215.468H295.56C295.616 216.068 295.86 216.528 296.292 216.848C296.732 217.16 297.332 217.316 298.092 217.316C298.732 217.316 299.244 217.172 299.628 216.884C300.02 216.588 300.216 216.192 300.216 215.696C300.216 215.304 300.092 215 299.844 214.784C299.596 214.56 299.2 214.396 298.656 214.292L297.024 213.968C296.28 213.832 295.728 213.58 295.368 213.212C295.016 212.844 294.84 212.356 294.84 211.748C294.84 211.036 295.12 210.448 295.68 209.984C296.24 209.52 296.956 209.288 297.828 209.288C298.772 209.288 299.524 209.492 300.084 209.9C300.644 210.3 300.964 210.876 301.044 211.628H300.048C299.976 211.156 299.744 210.788 299.352 210.524C298.96 210.252 298.456 210.116 297.84 210.116C297.24 210.116 296.756 210.264 296.388 210.56C296.028 210.856 295.848 211.24 295.848 211.712C295.848 212.104 295.956 212.4 296.172 212.6C296.396 212.8 296.796 212.956 297.372 213.068L299.052 213.416C299.796 213.568 300.34 213.824 300.684 214.184C301.036 214.544 301.212 215.032 301.212 215.648C301.212 216.376 300.92 216.976 300.336 217.448C299.76 217.912 299.016 218.144 298.104 218.144Z" fill="#11181C"/>
<path d="M304.875 217.256C305.019 217.256 305.159 217.244 305.295 217.22C305.439 217.196 305.591 217.16 305.751 217.112V217.928C305.559 217.984 305.375 218.024 305.199 218.048C305.031 218.08 304.863 218.096 304.695 218.096C304.135 218.096 303.715 217.96 303.435 217.688C303.163 217.416 303.027 217.004 303.027 216.452V212.72H302.139V211.964H303.027V210.428H304.011V211.964H305.595V212.72H303.999V216.404C303.999 216.7 304.067 216.916 304.203 217.052C304.347 217.188 304.571 217.256 304.875 217.256Z" fill="#11181C"/>
<path d="M308.429 210.704H307.301V209.492H308.429V210.704ZM308.369 218H307.373V211.964H308.369V218Z" fill="#11181C"/>
<path d="M312.434 217.256C312.578 217.256 312.718 217.244 312.854 217.22C312.998 217.196 313.15 217.16 313.31 217.112V217.928C313.118 217.984 312.934 218.024 312.758 218.048C312.59 218.08 312.422 218.096 312.254 218.096C311.694 218.096 311.274 217.96 310.994 217.688C310.722 217.416 310.586 217.004 310.586 216.452V212.72H309.698V211.964H310.586V210.428H311.57V211.964H313.154V212.72H311.558V216.404C311.558 216.7 311.626 216.916 311.762 217.052C311.906 217.188 312.13 217.256 312.434 217.256Z" fill="#11181C"/>
<path d="M317.331 218.144C316.475 218.144 315.787 217.856 315.267 217.28C314.747 216.704 314.487 215.94 314.487 214.988C314.487 214.036 314.747 213.272 315.267 212.696C315.795 212.112 316.483 211.82 317.331 211.82C317.995 211.82 318.539 212 318.963 212.36C319.395 212.72 319.659 213.224 319.755 213.872H318.807C318.719 213.464 318.551 213.156 318.303 212.948C318.055 212.732 317.731 212.624 317.331 212.624C316.755 212.624 316.299 212.836 315.963 213.26C315.635 213.684 315.471 214.26 315.471 214.988C315.471 215.716 315.635 216.292 315.963 216.716C316.299 217.132 316.755 217.34 317.331 217.34C317.731 217.34 318.055 217.236 318.303 217.028C318.551 216.812 318.719 216.5 318.807 216.092H319.755C319.659 216.74 319.399 217.244 318.975 217.604C318.551 217.964 318.003 218.144 317.331 218.144Z" fill="#11181C"/>
<path d="M322.396 209.168V213.068C322.54 212.676 322.784 212.372 323.128 212.156C323.472 211.932 323.872 211.82 324.328 211.82C325.008 211.82 325.536 212.024 325.912 212.432C326.296 212.832 326.488 213.392 326.488 214.112V218H325.492V214.328C325.492 213.768 325.368 213.348 325.12 213.068C324.88 212.78 324.524 212.636 324.052 212.636C323.532 212.636 323.124 212.812 322.828 213.164C322.54 213.516 322.396 214.02 322.396 214.676V218H321.4V209.168H322.396Z" fill="#11181C"/>
<path d="M332.58 216.224H333.516C333.388 216.824 333.1 217.296 332.652 217.64C332.204 217.976 331.66 218.144 331.02 218.144C330.148 218.144 329.444 217.86 328.908 217.292C328.38 216.724 328.116 215.964 328.116 215.012C328.116 214.06 328.38 213.292 328.908 212.708C329.444 212.116 330.128 211.82 330.96 211.82C331.76 211.82 332.392 212.096 332.856 212.648C333.32 213.192 333.552 213.908 333.552 214.796V215.192H329.088C329.112 215.88 329.292 216.412 329.628 216.788C329.972 217.164 330.436 217.352 331.02 217.352C331.412 217.352 331.736 217.26 331.992 217.076C332.256 216.884 332.452 216.6 332.58 216.224ZM330.96 212.624C330.456 212.624 330.044 212.788 329.724 213.116C329.404 213.436 329.204 213.888 329.124 214.472H332.58C332.564 213.896 332.412 213.444 332.124 213.116C331.844 212.788 331.456 212.624 330.96 212.624Z" fill="#11181C"/>
<path d="M337.352 218.144C336.584 218.144 335.964 217.976 335.492 217.64C335.028 217.296 334.772 216.82 334.724 216.212H335.684C335.716 216.58 335.88 216.868 336.176 217.076C336.48 217.284 336.868 217.388 337.34 217.388C337.772 217.388 338.116 217.296 338.372 217.112C338.636 216.92 338.768 216.668 338.768 216.356C338.768 216.124 338.68 215.94 338.504 215.804C338.336 215.66 338.072 215.552 337.712 215.48L336.644 215.264C336.052 215.152 335.624 214.968 335.36 214.712C335.096 214.448 334.964 214.088 334.964 213.632C334.964 213.112 335.176 212.68 335.6 212.336C336.024 211.992 336.56 211.82 337.208 211.82C337.912 211.82 338.468 211.972 338.876 212.276C339.284 212.572 339.516 213 339.572 213.56H338.648C338.616 213.256 338.472 213.02 338.216 212.852C337.96 212.676 337.624 212.588 337.208 212.588C336.808 212.588 336.488 212.68 336.248 212.864C336.008 213.04 335.888 213.276 335.888 213.572C335.888 213.812 335.968 214 336.128 214.136C336.288 214.264 336.56 214.364 336.944 214.436L338.144 214.664C338.672 214.768 339.064 214.956 339.32 215.228C339.576 215.492 339.704 215.852 339.704 216.308C339.704 216.836 339.48 217.276 339.032 217.628C338.592 217.972 338.032 218.144 337.352 218.144Z" fill="#11181C"/>
<path d="M302.532 235.488L299.748 243H298.908L296.124 235.488H296.1V243H295.116V234.432H296.712L299.352 241.656H299.376L302.016 234.432H303.552V243H302.556V235.488H302.532Z" fill="#11181C"/>
<path d="M308.156 236.82C309.012 236.82 309.704 237.112 310.232 237.696C310.76 238.272 311.024 239.036 311.024 239.988C311.024 240.94 310.76 241.704 310.232 242.28C309.704 242.856 309.012 243.144 308.156 243.144C307.3 243.144 306.608 242.856 306.08 242.28C305.552 241.704 305.288 240.94 305.288 239.988C305.288 239.036 305.552 238.272 306.08 237.696C306.608 237.112 307.3 236.82 308.156 236.82ZM308.156 237.624C307.572 237.624 307.112 237.836 306.776 238.26C306.44 238.684 306.272 239.26 306.272 239.988C306.272 240.716 306.44 241.292 306.776 241.716C307.112 242.132 307.572 242.34 308.156 242.34C308.74 242.34 309.2 242.132 309.536 241.716C309.872 241.292 310.04 240.716 310.04 239.988C310.04 239.26 309.872 238.684 309.536 238.26C309.2 237.836 308.74 237.624 308.156 237.624Z" fill="#11181C"/>
<path d="M314.96 243.144C314.176 243.144 313.532 242.852 313.028 242.268C312.524 241.684 312.272 240.924 312.272 239.988C312.272 239.052 312.52 238.292 313.016 237.708C313.52 237.116 314.168 236.82 314.96 236.82C315.416 236.82 315.82 236.932 316.172 237.156C316.532 237.372 316.796 237.664 316.964 238.032V234.168H317.96V243H317V241.944C316.824 242.296 316.552 242.584 316.184 242.808C315.816 243.032 315.408 243.144 314.96 243.144ZM315.164 237.6C314.588 237.6 314.128 237.816 313.784 238.248C313.448 238.68 313.28 239.26 313.28 239.988C313.28 240.708 313.448 241.284 313.784 241.716C314.128 242.148 314.588 242.364 315.164 242.364C315.732 242.364 316.18 242.156 316.508 241.74C316.844 241.324 317.012 240.764 317.012 240.06V239.892C317.012 239.188 316.844 238.632 316.508 238.224C316.18 237.808 315.732 237.6 315.164 237.6Z" fill="#11181C"/>
<path d="M325.067 236.964V243H324.095V241.908C323.951 242.292 323.707 242.596 323.363 242.82C323.019 243.036 322.623 243.144 322.175 243.144C321.495 243.144 320.967 242.948 320.591 242.556C320.223 242.156 320.039 241.588 320.039 240.852V236.964H321.047V240.66C321.047 241.228 321.163 241.656 321.395 241.944C321.635 242.224 321.991 242.364 322.463 242.364C322.967 242.364 323.359 242.184 323.639 241.824C323.919 241.464 324.059 240.952 324.059 240.288V236.964H325.067Z" fill="#11181C"/>
<path d="M328.197 234.168V243H327.201V234.168H328.197Z" fill="#11181C"/>
<path d="M334.722 236.964V237.696L331.122 242.232H334.854V243H329.886V242.352L333.51 237.732H330.03V236.964H334.722Z" fill="#11181C"/>
<path d="M162.116 204.432H165.152C166.4 204.432 167.408 204.828 168.176 205.62C168.944 206.404 169.328 207.436 169.328 208.716C169.328 209.996 168.944 211.032 168.176 211.824C167.408 212.608 166.4 213 165.152 213H162.116V204.432ZM168.26 208.716C168.26 207.652 167.984 206.816 167.432 206.208C166.88 205.6 166.12 205.296 165.152 205.296H163.136V212.136H165.152C166.128 212.136 166.888 211.832 167.432 211.224C167.984 210.616 168.26 209.78 168.26 208.716Z" fill="#11181C"/>
<path d="M173.422 206.82C174.278 206.82 174.97 207.112 175.498 207.696C176.026 208.272 176.29 209.036 176.29 209.988C176.29 210.94 176.026 211.704 175.498 212.28C174.97 212.856 174.278 213.144 173.422 213.144C172.566 213.144 171.874 212.856 171.346 212.28C170.818 211.704 170.554 210.94 170.554 209.988C170.554 209.036 170.818 208.272 171.346 207.696C171.874 207.112 172.566 206.82 173.422 206.82ZM173.422 207.624C172.838 207.624 172.378 207.836 172.042 208.26C171.706 208.684 171.538 209.26 171.538 209.988C171.538 210.716 171.706 211.292 172.042 211.716C172.378 212.132 172.838 212.34 173.422 212.34C174.006 212.34 174.466 212.132 174.802 211.716C175.138 211.292 175.306 210.716 175.306 209.988C175.306 209.26 175.138 208.684 174.802 208.26C174.466 207.836 174.006 207.624 173.422 207.624Z" fill="#11181C"/>
<path d="M181.018 206.964H182.026L183.394 211.92H183.418L184.81 206.964H185.77L183.946 213H182.914L181.522 208.116H181.486L180.118 213H179.074L177.25 206.964H178.234L179.638 211.92H179.674L181.018 206.964Z" fill="#11181C"/>
<path d="M187.158 206.964H188.118V208.068C188.262 207.692 188.51 207.392 188.862 207.168C189.222 206.936 189.63 206.82 190.086 206.82C190.766 206.82 191.294 207.024 191.67 207.432C192.054 207.832 192.246 208.392 192.246 209.112V213H191.25V209.328C191.25 208.768 191.126 208.348 190.878 208.068C190.638 207.78 190.282 207.636 189.81 207.636C189.29 207.636 188.882 207.812 188.586 208.164C188.298 208.516 188.154 209.02 188.154 209.676V213H187.158V206.964Z" fill="#11181C"/>
<path d="M195.314 204.168V213H194.318V204.168H195.314Z" fill="#11181C"/>
<path d="M199.871 206.82C200.727 206.82 201.419 207.112 201.947 207.696C202.475 208.272 202.739 209.036 202.739 209.988C202.739 210.94 202.475 211.704 201.947 212.28C201.419 212.856 200.727 213.144 199.871 213.144C199.015 213.144 198.323 212.856 197.795 212.28C197.267 211.704 197.003 210.94 197.003 209.988C197.003 209.036 197.267 208.272 197.795 207.696C198.323 207.112 199.015 206.82 199.871 206.82ZM199.871 207.624C199.287 207.624 198.827 207.836 198.491 208.26C198.155 208.684 197.987 209.26 197.987 209.988C197.987 210.716 198.155 211.292 198.491 211.716C198.827 212.132 199.287 212.34 199.871 212.34C200.455 212.34 200.915 212.132 201.251 211.716C201.587 211.292 201.755 210.716 201.755 209.988C201.755 209.26 201.587 208.684 201.251 208.26C200.915 207.836 200.455 207.624 199.871 207.624Z" fill="#11181C"/>
<path d="M209.123 213H208.127C208.095 212.84 208.067 212.672 208.043 212.496C208.027 212.312 208.019 212.14 208.019 211.98C207.891 212.332 207.635 212.612 207.251 212.82C206.875 213.028 206.431 213.132 205.919 213.132C205.343 213.132 204.871 212.976 204.503 212.664C204.143 212.344 203.963 211.924 203.963 211.404C203.963 210.884 204.135 210.472 204.479 210.168C204.831 209.864 205.355 209.672 206.051 209.592L207.995 209.34V208.992C207.995 208.552 207.871 208.216 207.623 207.984C207.383 207.744 207.035 207.624 206.579 207.624C206.179 207.624 205.859 207.724 205.619 207.924C205.379 208.116 205.239 208.388 205.199 208.74H204.239C204.295 208.148 204.535 207.68 204.959 207.336C205.391 206.992 205.939 206.82 206.603 206.82C207.371 206.82 207.959 207.004 208.367 207.372C208.775 207.74 208.979 208.272 208.979 208.968V211.74C208.979 212.02 208.991 212.26 209.015 212.46C209.039 212.652 209.075 212.832 209.123 213ZM204.971 211.38C204.971 211.684 205.075 211.928 205.283 212.112C205.491 212.288 205.771 212.376 206.123 212.376C206.659 212.376 207.103 212.216 207.455 211.896C207.815 211.568 207.995 211.144 207.995 210.624V210.084L206.351 210.264C205.831 210.336 205.471 210.46 205.271 210.636C205.071 210.812 204.971 211.06 204.971 211.38Z" fill="#11181C"/>
<path d="M213.296 213.144C212.512 213.144 211.868 212.852 211.364 212.268C210.86 211.684 210.608 210.924 210.608 209.988C210.608 209.052 210.856 208.292 211.352 207.708C211.856 207.116 212.504 206.82 213.296 206.82C213.752 206.82 214.156 206.932 214.508 207.156C214.868 207.372 215.132 207.664 215.3 208.032V204.168H216.296V213H215.336V211.944C215.16 212.296 214.888 212.584 214.52 212.808C214.152 213.032 213.744 213.144 213.296 213.144ZM213.5 207.6C212.924 207.6 212.464 207.816 212.12 208.248C211.784 208.68 211.616 209.26 211.616 209.988C211.616 210.708 211.784 211.284 212.12 211.716C212.464 212.148 212.924 212.364 213.5 212.364C214.068 212.364 214.516 212.156 214.844 211.74C215.18 211.324 215.348 210.764 215.348 210.06V209.892C215.348 209.188 215.18 208.632 214.844 208.224C214.516 207.808 214.068 207.6 213.5 207.6Z" fill="#11181C"/>
<path d="M220.547 213.144C219.779 213.144 219.159 212.976 218.687 212.64C218.223 212.296 217.967 211.82 217.919 211.212H218.879C218.911 211.58 219.075 211.868 219.371 212.076C219.675 212.284 220.063 212.388 220.535 212.388C220.967 212.388 221.311 212.296 221.567 212.112C221.831 211.92 221.963 211.668 221.963 211.356C221.963 211.124 221.875 210.94 221.699 210.804C221.531 210.66 221.267 210.552 220.907 210.48L219.839 210.264C219.247 210.152 218.819 209.968 218.555 209.712C218.291 209.448 218.159 209.088 218.159 208.632C218.159 208.112 218.371 207.68 218.795 207.336C219.219 206.992 219.755 206.82 220.403 206.82C221.107 206.82 221.663 206.972 222.071 207.276C222.479 207.572 222.711 208 222.767 208.56H221.843C221.811 208.256 221.667 208.02 221.411 207.852C221.155 207.676 220.819 207.588 220.403 207.588C220.003 207.588 219.683 207.68 219.443 207.864C219.203 208.04 219.083 208.276 219.083 208.572C219.083 208.812 219.163 209 219.323 209.136C219.483 209.264 219.755 209.364 220.139 209.436L221.339 209.664C221.867 209.768 222.259 209.956 222.515 210.228C222.771 210.492 222.899 210.852 222.899 211.308C222.899 211.836 222.675 212.276 222.227 212.628C221.787 212.972 221.227 213.144 220.547 213.144Z" fill="#11181C"/>
<path d="M165.104 249.144C164.056 249.144 163.216 248.912 162.584 248.448C161.96 247.976 161.62 247.316 161.564 246.468H162.56C162.616 247.068 162.86 247.528 163.292 247.848C163.732 248.16 164.332 248.316 165.092 248.316C165.732 248.316 166.244 248.172 166.628 247.884C167.02 247.588 167.216 247.192 167.216 246.696C167.216 246.304 167.092 246 166.844 245.784C166.596 245.56 166.2 245.396 165.656 245.292L164.024 244.968C163.28 244.832 162.728 244.58 162.368 244.212C162.016 243.844 161.84 243.356 161.84 242.748C161.84 242.036 162.12 241.448 162.68 240.984C163.24 240.52 163.956 240.288 164.828 240.288C165.772 240.288 166.524 240.492 167.084 240.9C167.644 241.3 167.964 241.876 168.044 242.628H167.048C166.976 242.156 166.744 241.788 166.352 241.524C165.96 241.252 165.456 241.116 164.84 241.116C164.24 241.116 163.756 241.264 163.388 241.56C163.028 241.856 162.848 242.24 162.848 242.712C162.848 243.104 162.956 243.4 163.172 243.6C163.396 243.8 163.796 243.956 164.372 244.068L166.052 244.416C166.796 244.568 167.34 244.824 167.684 245.184C168.036 245.544 168.212 246.032 168.212 246.648C168.212 247.376 167.92 247.976 167.336 248.448C166.76 248.912 166.016 249.144 165.104 249.144Z" fill="#11181C"/>
<path d="M170.939 240.168V244.068C171.083 243.676 171.327 243.372 171.671 243.156C172.015 242.932 172.415 242.82 172.871 242.82C173.551 242.82 174.079 243.024 174.455 243.432C174.839 243.832 175.031 244.392 175.031 245.112V249H174.035V245.328C174.035 244.768 173.911 244.348 173.663 244.068C173.423 243.78 173.067 243.636 172.595 243.636C172.075 243.636 171.667 243.812 171.371 244.164C171.083 244.516 170.939 245.02 170.939 245.676V249H169.943V240.168H170.939Z" fill="#11181C"/>
<path d="M179.527 242.82C180.383 242.82 181.075 243.112 181.603 243.696C182.131 244.272 182.395 245.036 182.395 245.988C182.395 246.94 182.131 247.704 181.603 248.28C181.075 248.856 180.383 249.144 179.527 249.144C178.671 249.144 177.979 248.856 177.451 248.28C176.923 247.704 176.659 246.94 176.659 245.988C176.659 245.036 176.923 244.272 177.451 243.696C177.979 243.112 178.671 242.82 179.527 242.82ZM179.527 243.624C178.943 243.624 178.483 243.836 178.147 244.26C177.811 244.684 177.643 245.26 177.643 245.988C177.643 246.716 177.811 247.292 178.147 247.716C178.483 248.132 178.943 248.34 179.527 248.34C180.111 248.34 180.571 248.132 180.907 247.716C181.243 247.292 181.411 246.716 181.411 245.988C181.411 245.26 181.243 244.684 180.907 244.26C180.571 243.836 180.111 243.624 179.527 243.624Z" fill="#11181C"/>
<path d="M187.123 242.964H188.131L189.499 247.92H189.523L190.915 242.964H191.875L190.051 249H189.019L187.627 244.116H187.591L186.223 249H185.179L183.355 242.964H184.339L185.743 247.92H185.779L187.123 242.964Z" fill="#11181C"/>
<path d="M199.501 249H198.469V241.296H195.277V240.432H202.705V241.296H199.501V249Z" fill="#11181C"/>
<path d="M205.484 242.82C206.34 242.82 207.032 243.112 207.56 243.696C208.088 244.272 208.352 245.036 208.352 245.988C208.352 246.94 208.088 247.704 207.56 248.28C207.032 248.856 206.34 249.144 205.484 249.144C204.628 249.144 203.936 248.856 203.408 248.28C202.88 247.704 202.616 246.94 202.616 245.988C202.616 245.036 202.88 244.272 203.408 243.696C203.936 243.112 204.628 242.82 205.484 242.82ZM205.484 243.624C204.9 243.624 204.44 243.836 204.104 244.26C203.768 244.684 203.6 245.26 203.6 245.988C203.6 246.716 203.768 247.292 204.104 247.716C204.44 248.132 204.9 248.34 205.484 248.34C206.068 248.34 206.528 248.132 206.864 247.716C207.2 247.292 207.368 246.716 207.368 245.988C207.368 245.26 207.2 244.684 206.864 244.26C206.528 243.836 206.068 243.624 205.484 243.624Z" fill="#11181C"/>
<path d="M212.469 242.82C213.325 242.82 214.017 243.112 214.545 243.696C215.073 244.272 215.337 245.036 215.337 245.988C215.337 246.94 215.073 247.704 214.545 248.28C214.017 248.856 213.325 249.144 212.469 249.144C211.613 249.144 210.921 248.856 210.393 248.28C209.865 247.704 209.601 246.94 209.601 245.988C209.601 245.036 209.865 244.272 210.393 243.696C210.921 243.112 211.613 242.82 212.469 242.82ZM212.469 243.624C211.885 243.624 211.425 243.836 211.089 244.26C210.753 244.684 210.585 245.26 210.585 245.988C210.585 246.716 210.753 247.292 211.089 247.716C211.425 248.132 211.885 248.34 212.469 248.34C213.053 248.34 213.513 248.132 213.849 247.716C214.185 247.292 214.353 246.716 214.353 245.988C214.353 245.26 214.185 244.684 213.849 244.26C213.513 243.836 213.053 243.624 212.469 243.624Z" fill="#11181C"/>
<path d="M218.025 240.168V249H217.029V240.168H218.025Z" fill="#11181C"/>
<path d="M223.158 249.144C222.71 249.144 222.302 249.032 221.934 248.808C221.566 248.584 221.294 248.296 221.118 247.944V249H220.158V240.168H221.154V244.032C221.322 243.664 221.582 243.372 221.934 243.156C222.294 242.932 222.702 242.82 223.158 242.82C223.95 242.82 224.594 243.116 225.09 243.708C225.594 244.292 225.846 245.052 225.846 245.988C225.846 246.924 225.594 247.684 225.09 248.268C224.586 248.852 223.942 249.144 223.158 249.144ZM222.954 243.6C222.386 243.6 221.934 243.808 221.598 244.224C221.27 244.632 221.106 245.188 221.106 245.892V246.06C221.106 246.764 221.27 247.324 221.598 247.74C221.934 248.156 222.386 248.364 222.954 248.364C223.53 248.364 223.986 248.148 224.322 247.716C224.666 247.284 224.838 246.708 224.838 245.988C224.838 245.26 224.666 244.68 224.322 244.248C223.986 243.816 223.53 243.6 222.954 243.6Z" fill="#11181C"/>
<path d="M232.233 249H231.237C231.205 248.84 231.177 248.672 231.153 248.496C231.137 248.312 231.129 248.14 231.129 247.98C231.001 248.332 230.745 248.612 230.361 248.82C229.985 249.028 229.541 249.132 229.029 249.132C228.453 249.132 227.981 248.976 227.613 248.664C227.253 248.344 227.073 247.924 227.073 247.404C227.073 246.884 227.245 246.472 227.589 246.168C227.941 245.864 228.465 245.672 229.161 245.592L231.105 245.34V244.992C231.105 244.552 230.981 244.216 230.733 243.984C230.493 243.744 230.145 243.624 229.689 243.624C229.289 243.624 228.969 243.724 228.729 243.924C228.489 244.116 228.349 244.388 228.309 244.74H227.349C227.405 244.148 227.645 243.68 228.069 243.336C228.501 242.992 229.049 242.82 229.713 242.82C230.481 242.82 231.069 243.004 231.477 243.372C231.885 243.74 232.089 244.272 232.089 244.968V247.74C232.089 248.02 232.101 248.26 232.125 248.46C232.149 248.652 232.185 248.832 232.233 249ZM228.081 247.38C228.081 247.684 228.185 247.928 228.393 248.112C228.601 248.288 228.881 248.376 229.233 248.376C229.769 248.376 230.213 248.216 230.565 247.896C230.925 247.568 231.105 247.144 231.105 246.624V246.084L229.461 246.264C228.941 246.336 228.581 246.46 228.381 246.636C228.181 246.812 228.081 247.06 228.081 247.38Z" fill="#11181C"/>
<path d="M237.042 242.832C237.13 242.832 237.214 242.836 237.294 242.844C237.374 242.852 237.446 242.864 237.51 242.88V243.792C237.446 243.776 237.366 243.764 237.27 243.756C237.182 243.748 237.09 243.744 236.994 243.744C236.458 243.744 236.018 243.952 235.674 244.368C235.33 244.776 235.158 245.328 235.158 246.024V249H234.162V242.964H235.122V244.392C235.25 243.912 235.486 243.532 235.83 243.252C236.174 242.972 236.578 242.832 237.042 242.832Z" fill="#11181C"/>
<path d="M165.104 274.144C164.056 274.144 163.216 273.912 162.584 273.448C161.96 272.976 161.62 272.316 161.564 271.468H162.56C162.616 272.068 162.86 272.528 163.292 272.848C163.732 273.16 164.332 273.316 165.092 273.316C165.732 273.316 166.244 273.172 166.628 272.884C167.02 272.588 167.216 272.192 167.216 271.696C167.216 271.304 167.092 271 166.844 270.784C166.596 270.56 166.2 270.396 165.656 270.292L164.024 269.968C163.28 269.832 162.728 269.58 162.368 269.212C162.016 268.844 161.84 268.356 161.84 267.748C161.84 267.036 162.12 266.448 162.68 265.984C163.24 265.52 163.956 265.288 164.828 265.288C165.772 265.288 166.524 265.492 167.084 265.9C167.644 266.3 167.964 266.876 168.044 267.628H167.048C166.976 267.156 166.744 266.788 166.352 266.524C165.96 266.252 165.456 266.116 164.84 266.116C164.24 266.116 163.756 266.264 163.388 266.56C163.028 266.856 162.848 267.24 162.848 267.712C162.848 268.104 162.956 268.4 163.172 268.6C163.396 268.8 163.796 268.956 164.372 269.068L166.052 269.416C166.796 269.568 167.34 269.824 167.684 270.184C168.036 270.544 168.212 271.032 168.212 271.648C168.212 272.376 167.92 272.976 167.336 273.448C166.76 273.912 166.016 274.144 165.104 274.144Z" fill="#11181C"/>
<path d="M170.939 265.168V269.068C171.083 268.676 171.327 268.372 171.671 268.156C172.015 267.932 172.415 267.82 172.871 267.82C173.551 267.82 174.079 268.024 174.455 268.432C174.839 268.832 175.031 269.392 175.031 270.112V274H174.035V270.328C174.035 269.768 173.911 269.348 173.663 269.068C173.423 268.78 173.067 268.636 172.595 268.636C172.075 268.636 171.667 268.812 171.371 269.164C171.083 269.516 170.939 270.02 170.939 270.676V274H169.943V265.168H170.939Z" fill="#11181C"/>
<path d="M179.527 267.82C180.383 267.82 181.075 268.112 181.603 268.696C182.131 269.272 182.395 270.036 182.395 270.988C182.395 271.94 182.131 272.704 181.603 273.28C181.075 273.856 180.383 274.144 179.527 274.144C178.671 274.144 177.979 273.856 177.451 273.28C176.923 272.704 176.659 271.94 176.659 270.988C176.659 270.036 176.923 269.272 177.451 268.696C177.979 268.112 178.671 267.82 179.527 267.82ZM179.527 268.624C178.943 268.624 178.483 268.836 178.147 269.26C177.811 269.684 177.643 270.26 177.643 270.988C177.643 271.716 177.811 272.292 178.147 272.716C178.483 273.132 178.943 273.34 179.527 273.34C180.111 273.34 180.571 273.132 180.907 272.716C181.243 272.292 181.411 271.716 181.411 270.988C181.411 270.26 181.243 269.684 180.907 269.26C180.571 268.836 180.111 268.624 179.527 268.624Z" fill="#11181C"/>
<path d="M187.123 267.964H188.131L189.499 272.92H189.523L190.915 267.964H191.875L190.051 274H189.019L187.627 269.116H187.591L186.223 274H185.179L183.355 267.964H184.339L185.743 272.92H185.779L187.123 267.964Z" fill="#11181C"/>
<path d="M196.945 274H195.913V265.432H201.397V266.296H196.945V269.428H200.989V270.292H196.945V274Z" fill="#11181C"/>
<path d="M207.841 267.964V274H206.869V272.908C206.725 273.292 206.481 273.596 206.137 273.82C205.793 274.036 205.397 274.144 204.949 274.144C204.269 274.144 203.741 273.948 203.365 273.556C202.997 273.156 202.813 272.588 202.813 271.852V267.964H203.821V271.66C203.821 272.228 203.937 272.656 204.169 272.944C204.409 273.224 204.765 273.364 205.237 273.364C205.741 273.364 206.133 273.184 206.413 272.824C206.693 272.464 206.833 271.952 206.833 271.288V267.964H207.841Z" fill="#11181C"/>
<path d="M210.97 265.168V274H209.974V265.168H210.97Z" fill="#11181C"/>
<path d="M214.099 265.168V274H213.103V265.168H214.099Z" fill="#11181C"/>
<path d="M225.686 265.432V270.508C225.686 271.676 225.386 272.576 224.786 273.208C224.186 273.832 223.33 274.144 222.218 274.144C221.114 274.144 220.258 273.828 219.65 273.196C219.05 272.556 218.75 271.652 218.75 270.484V265.432H219.782V270.568C219.782 271.44 219.99 272.108 220.406 272.572C220.83 273.036 221.434 273.268 222.218 273.268C223.01 273.268 223.614 273.04 224.03 272.584C224.446 272.12 224.654 271.448 224.654 270.568V265.432H225.686Z" fill="#11181C"/>
<path d="M228.82 270.532V274H227.8V265.432H231.1C232.068 265.432 232.812 265.652 233.332 266.092C233.852 266.532 234.112 267.16 234.112 267.976C234.112 268.584 233.932 269.104 233.572 269.536C233.212 269.96 232.732 270.24 232.132 270.376L234.484 274H233.32L231.1 270.532H228.82ZM228.82 266.296V269.668H231.04C231.696 269.668 232.196 269.524 232.54 269.236C232.892 268.948 233.068 268.528 233.068 267.976C233.068 267.44 232.892 267.028 232.54 266.74C232.188 266.444 231.688 266.296 231.04 266.296H228.82Z" fill="#11181C"/>
<path d="M241.713 274H236.073V265.432H237.105V273.136H241.713V274Z" fill="#11181C"/>
<path d="M245.59 274.144C244.822 274.144 244.202 273.976 243.73 273.64C243.266 273.296 243.01 272.82 242.962 272.212H243.922C243.954 272.58 244.118 272.868 244.414 273.076C244.718 273.284 245.106 273.388 245.578 273.388C246.01 273.388 246.354 273.296 246.61 273.112C246.874 272.92 247.006 272.668 247.006 272.356C247.006 272.124 246.918 271.94 246.742 271.804C246.574 271.66 246.31 271.552 245.95 271.48L244.882 271.264C244.29 271.152 243.862 270.968 243.598 270.712C243.334 270.448 243.202 270.088 243.202 269.632C243.202 269.112 243.414 268.68 243.838 268.336C244.262 267.992 244.798 267.82 245.446 267.82C246.15 267.82 246.706 267.972 247.114 268.276C247.522 268.572 247.754 269 247.81 269.56H246.886C246.854 269.256 246.71 269.02 246.454 268.852C246.198 268.676 245.862 268.588 245.446 268.588C245.046 268.588 244.726 268.68 244.486 268.864C244.246 269.04 244.126 269.276 244.126 269.572C244.126 269.812 244.206 270 244.366 270.136C244.526 270.264 244.798 270.364 245.182 270.436L246.382 270.664C246.91 270.768 247.302 270.956 247.558 271.228C247.814 271.492 247.942 271.852 247.942 272.308C247.942 272.836 247.718 273.276 247.27 273.628C246.83 273.972 246.27 274.144 245.59 274.144Z" fill="#11181C"/>
<path fill-rule="evenodd" clip-rule="evenodd" d="M224.182 81.1818C224.358 81.0061 224.642 81.0061 224.818 81.1818L227.5 83.8636L230.182 81.1818C230.358 81.0061 230.642 81.0061 230.818 81.1818C230.994 81.3576 230.994 81.6425 230.818 81.8182L227.818 84.8182C227.734 84.9026 227.619 84.95 227.5 84.95C227.381 84.95 227.266 84.9026 227.182 84.8182L224.182 81.8182C224.006 81.6425 224.006 81.3575 224.182 81.1818Z" fill="#11181C"/>
<path fill-rule="evenodd" clip-rule="evenodd" d="M154.467 240.727C154.756 240.916 154.837 241.303 154.648 241.592L150.398 248.092C150.298 248.245 150.136 248.347 149.954 248.37C149.773 248.393 149.59 248.336 149.455 248.212L146.705 245.712C146.449 245.48 146.43 245.085 146.662 244.83C146.895 244.574 147.29 244.555 147.545 244.787L149.753 246.794L153.602 240.908C153.791 240.619 154.178 240.538 154.467 240.727Z" fill="#11181C"/>
<path fill-rule="evenodd" clip-rule="evenodd" d="M245.182 180.182C245.358 180.006 245.643 180.006 245.818 180.182L248.818 183.182C248.903 183.266 248.95 183.381 248.95 183.5C248.95 183.619 248.903 183.734 248.818 183.818L245.818 186.818C245.643 186.994 245.358 186.994 245.182 186.818C245.006 186.642 245.006 186.358 245.182 186.182L247.864 183.5L245.182 180.818C245.006 180.642 245.006 180.358 245.182 180.182Z" fill="white"/>
<path fill-rule="evenodd" clip-rule="evenodd" d="M276.499 181.85C272.828 181.85 269.85 184.827 269.85 188.5C269.85 191.438 271.755 193.931 274.398 194.81C274.73 194.871 274.852 194.666 274.852 194.489C274.852 194.332 274.846 193.913 274.843 193.359C272.993 193.76 272.603 192.467 272.603 192.467C272.3 191.699 271.864 191.494 271.864 191.494C271.26 191.082 271.91 191.09 271.91 191.09C272.577 191.137 272.929 191.776 272.929 191.776C273.522 192.792 274.485 192.498 274.864 192.328C274.924 191.898 275.096 191.605 275.286 191.439C273.809 191.271 272.257 190.701 272.257 188.152C272.257 187.426 272.516 186.833 272.942 186.368C272.873 186.2 272.645 185.524 273.007 184.608C273.007 184.608 273.565 184.429 274.835 185.289C275.366 185.142 275.935 185.069 276.5 185.066C277.065 185.069 277.634 185.142 278.165 185.289C279.435 184.429 279.992 184.608 279.992 184.608C280.355 185.524 280.127 186.2 280.058 186.368C280.485 186.833 280.742 187.426 280.742 188.152C280.742 190.707 279.187 191.269 277.706 191.434C277.944 191.639 278.157 192.045 278.157 192.665C278.157 193.554 278.149 194.271 278.149 194.489C278.149 194.667 278.269 194.874 278.606 194.81C281.246 193.928 283.15 191.438 283.15 188.5C283.15 184.827 280.172 181.85 276.499 181.85" fill="#11181C"/>
<path fill-rule="evenodd" clip-rule="evenodd" d="M270.85 213.5C270.85 213.213 270.871 212.931 270.913 212.656L278.564 208.239C278.863 208.356 279.15 208.499 279.422 208.663L272.771 212.503C272.737 212.522 272.705 212.545 272.676 212.572C272.591 212.653 272.542 212.763 272.537 212.877C272.534 212.942 272.545 213.008 272.571 213.071C272.589 213.116 272.615 213.157 272.647 213.195C272.673 213.224 272.702 213.249 272.733 213.271L276.325 215.838L272.872 217.832C271.636 216.795 270.85 215.239 270.85 213.5ZM277.368 216.275C277.377 216.271 277.385 216.266 277.393 216.261L278.841 215.425C278.847 215.422 278.853 215.418 278.859 215.414L280.31 214.577C280.365 214.546 280.415 214.504 280.455 214.45C280.603 214.25 280.562 213.968 280.362 213.82L276.828 211.2L280.216 209.244C281.401 210.28 282.15 211.802 282.15 213.5C282.15 213.835 282.121 214.164 282.065 214.484L274.569 218.811C274.261 218.7 273.966 218.562 273.687 218.401L277.368 216.275ZM277.181 215.344L273.817 212.939L274.509 212.539L277.806 214.983L277.181 215.344ZM275.359 212.048L275.978 211.691L279.275 214.135L278.656 214.493L275.359 212.048ZM277.332 207.911L271.243 211.426C272.069 209.332 274.112 207.85 276.5 207.85C276.783 207.85 277.06 207.871 277.332 207.911ZM275.847 219.113C276.061 219.137 276.279 219.15 276.5 219.15C278.825 219.15 280.821 217.746 281.689 215.74L275.847 219.113ZM276.5 206.85C272.827 206.85 269.85 209.827 269.85 213.5C269.85 217.173 272.827 220.15 276.5 220.15C280.173 220.15 283.15 217.173 283.15 213.5C283.15 209.827 280.173 206.85 276.5 206.85Z" fill="#11181C"/>
<path fill-rule="evenodd" clip-rule="evenodd" d="M276.259 234.167L273.37 236.333V232L276.259 234.167ZM270 239.222L272.889 237.056L270 234.889V239.222ZM270 245L272.889 242.833L270 240.667V245ZM276.741 239.222L279.63 237.056L276.741 234.889V239.222ZM283 234.167L280.111 236.333V232L283 234.167ZM280.111 242.111L283 239.944L280.111 237.778V242.111ZM272.889 242.111L270 239.944L272.889 237.778V242.111ZM273.37 237.056L276.259 239.222V234.889L273.37 237.056ZM272.889 236.333L270 234.167L272.889 232V236.333ZM276.741 234.167L279.63 236.333V232L276.741 234.167ZM283 239.222L280.111 237.056L283 234.889V239.222ZM280.111 242.833L283 245V240.667L280.111 242.833Z" fill="#11181C"/>
<line x1="161" y1="165.5" x2="239" y2="165.5" stroke="#ECEEF0"/>
<line x1="161" y1="225.5" x2="239" y2="225.5" stroke="#ECEEF0"/>
<defs>
<filter id="filter0_dd" x="111" y="85" width="178" height="232" filterUnits="userSpaceOnUse" color-interpolation-filters="sRGB">
<feFlood flood-opacity="0" result="BackgroundImageFix"/>
<feColorMatrix in="SourceAlpha" type="matrix" values="0 0 0 0 0 0 0 0 0 0 0 0 0 0 0 0 0 0 127 0" result="hardAlpha"/>
<feMorphology radius="5" operator="erode" in="SourceAlpha" result="effect1_dropShadow"/>
<feOffset dy="5"/>
<feGaussianBlur stdDeviation="15"/>
<feComposite in2="hardAlpha" operator="out"/>
<feColorMatrix type="matrix" values="0 0 0 0 0 0 0 0 0 0 0 0 0 0 0 0 0 0 0.1 0"/>
<feBlend mode="normal" in2="BackgroundImageFix" result="effect1_dropShadow"/>
<feColorMatrix in="SourceAlpha" type="matrix" values="0 0 0 0 0 0 0 0 0 0 0 0 0 0 0 0 0 0 127 0" result="hardAlpha"/>
<feMorphology radius="1" operator="erode" in="SourceAlpha" result="effect2_dropShadow"/>
<feOffset dy="1"/>
<feGaussianBlur stdDeviation="1.5"/>
<feComposite in2="hardAlpha" operator="out"/>
<feColorMatrix type="matrix" values="0 0 0 0 0 0 0 0 0 0 0 0 0 0 0 0 0 0 0.2 0"/>
<feBlend mode="normal" in2="effect1_dropShadow" result="effect2_dropShadow"/>
<feBlend mode="normal" in="SourceGraphic" in2="effect2_dropShadow" result="shape"/>
</filter>
<filter id="filter1_dd" x="234" y="151" width="150" height="135" filterUnits="userSpaceOnUse" color-interpolation-filters="sRGB">
<feFlood flood-opacity="0" result="BackgroundImageFix"/>
<feColorMatrix in="SourceAlpha" type="matrix" values="0 0 0 0 0 0 0 0 0 0 0 0 0 0 0 0 0 0 127 0" result="hardAlpha"/>
<feMorphology radius="5" operator="erode" in="SourceAlpha" result="effect1_dropShadow"/>
<feOffset dy="5"/>
<feGaussianBlur stdDeviation="15"/>
<feComposite in2="hardAlpha" operator="out"/>
<feColorMatrix type="matrix" values="0 0 0 0 0 0 0 0 0 0 0 0 0 0 0 0 0 0 0.1 0"/>
<feBlend mode="normal" in2="BackgroundImageFix" result="effect1_dropShadow"/>
<feColorMatrix in="SourceAlpha" type="matrix" values="0 0 0 0 0 0 0 0 0 0 0 0 0 0 0 0 0 0 127 0" result="hardAlpha"/>
<feMorphology radius="1" operator="erode" in="SourceAlpha" result="effect2_dropShadow"/>
<feOffset dy="1"/>
<feGaussianBlur stdDeviation="1.5"/>
<feComposite in2="hardAlpha" operator="out"/>
<feColorMatrix type="matrix" values="0 0 0 0 0 0 0 0 0 0 0 0 0 0 0 0 0 0 0.2 0"/>
<feBlend mode="normal" in2="effect1_dropShadow" result="effect2_dropShadow"/>
<feBlend mode="normal" in="SourceGraphic" in2="effect2_dropShadow" result="shape"/>
</filter>
</defs>
</svg>
