<svg width="400" height="400" fill="none" xmlns="http://www.w3.org/2000/svg"><g filter="url(#a)"><path d="M258 105H142a6 6 0 0 0-6 6v170a6 6 0 0 0 6 6h116a6 6 0 0 0 6-6V111a6 6 0 0 0-6-6Z" fill="#fff"/></g><g filter="url(#b)"><path d="M353 171h-88a6 6 0 0 0-6 6v73a6 6 0 0 0 6 6h88a6 6 0 0 0 6-6v-73a6 6 0 0 0-6-6Z" fill="#fff"/></g><path d="m204.5 105-4.5-5-4.5 5h9Z" fill="#fff"/><path d="M234 70h-68a6 6 0 0 0-6 6v13a6 6 0 0 0 6 6h68a6 6 0 0 0 6-6V76a6 6 0 0 0-6-6Z" fill="#ECEEF0"/><path d="M255 171H145a4 4 0 0 0-4 4v17a4 4 0 0 0 4 4h110a4 4 0 0 0 4-4v-17a4 4 0 0 0-4-4Z" fill="#3E62DD"/><path d="M174.875 77.562c1.257 0 2.275.446 3.055 1.339.78.884 1.17 2.037 1.17 3.458 0 1.421-.39 2.578-1.17 3.471-.771.884-1.79 1.326-3.055 1.326-1.265 0-2.288-.442-3.068-1.326-.771-.893-1.157-2.05-1.157-3.471 0-1.421.39-2.574 1.17-3.458.78-.893 1.798-1.339 3.055-1.339Zm0 8.645c.962 0 1.712-.342 2.249-1.027.546-.685.819-1.625.819-2.821 0-1.187-.273-2.123-.819-2.808-.537-.693-1.287-1.04-2.249-1.04-.962 0-1.716.347-2.262 1.04-.546.685-.819 1.62-.819 2.808 0 1.196.269 2.136.806 2.821.546.685 1.304 1.027 2.275 1.027Zm9.282.949c-.477 0-.91-.117-1.3-.351a2.295 2.295 0 0 1-.871-.949v3.458h-1.079v-8.853h1.04v1.196c.182-.399.472-.724.871-.975a2.46 2.46 0 0 1 1.339-.377c.858 0 1.556.32 2.093.962.546.633.819 1.456.819 2.47 0 1.014-.273 1.837-.819 2.47-.546.633-1.244.949-2.093.949Zm-.221-6.006c-.615 0-1.105.225-1.469.676-.355.442-.533 1.044-.533 1.807v.182c0 .763.178 1.37.533 1.82.364.45.854.676 1.469.676.624 0 1.118-.234 1.482-.702.373-.468.559-1.092.559-1.872 0-.789-.186-1.417-.559-1.885-.364-.468-.858-.702-1.482-.702Zm7.062 5.044c.156 0 .308-.013.455-.039.156-.026.321-.065.494-.117v.884c-.208.06-.407.104-.598.13a2.91 2.91 0 0 1-.546.052c-.607 0-1.062-.147-1.365-.442-.295-.295-.442-.741-.442-1.339V81.28h-.962v-.819h.962v-1.664h1.066v1.664h1.716v.819h-1.729v3.991c0 .32.074.555.221.702.156.147.399.221.728.221Zm3.85-7.098h-1.222v-1.313h1.222v1.313ZM194.783 87h-1.079v-6.539h1.079V87Zm4.937-6.695c.927 0 1.677.316 2.249.949.572.624.858 1.452.858 2.483 0 1.031-.286 1.859-.858 2.483-.572.624-1.322.936-2.249.936-.928 0-1.677-.312-2.249-.936-.572-.624-.858-1.452-.858-2.483 0-1.031.286-1.859.858-2.483.572-.633 1.321-.949 2.249-.949Zm0 .871c-.633 0-1.131.23-1.495.689-.364.46-.546 1.083-.546 1.872 0 .789.182 1.413.546 1.872.364.45.862.676 1.495.676.632 0 1.131-.225 1.495-.676.364-.46.546-1.083.546-1.872 0-.789-.182-1.413-.546-1.872-.364-.46-.863-.689-1.495-.689Zm4.94-.715h1.04v1.196c.156-.407.425-.732.806-.975.39-.251.832-.377 1.326-.377.737 0 1.309.221 1.716.663.416.433.624 1.04.624 1.82V87h-1.079v-3.978c0-.607-.134-1.062-.403-1.365-.26-.312-.646-.468-1.157-.468-.563 0-1.005.19-1.326.572-.312.381-.468.927-.468 1.638V87h-1.079v-6.539Zm10.045 6.695c-.832 0-1.504-.182-2.015-.546-.503-.373-.78-.888-.832-1.547h1.04c.034.399.212.71.533.936.329.225.749.338 1.261.338.468 0 .84-.1 1.118-.299.286-.208.429-.481.429-.819a.714.714 0 0 0-.286-.598c-.182-.156-.468-.273-.858-.351l-1.157-.234c-.642-.121-1.105-.32-1.391-.598-.286-.286-.429-.676-.429-1.17 0-.563.229-1.031.689-1.404.459-.373 1.04-.559 1.742-.559.762 0 1.365.165 1.807.494.442.32.693.784.754 1.391h-1.001a1.006 1.006 0 0 0-.468-.767c-.278-.19-.642-.286-1.092-.286-.434 0-.78.1-1.04.299a.909.909 0 0 0-.39.767c0 .26.086.464.26.611.173.139.468.247.884.325l1.3.247c.572.113.996.316 1.274.611.277.286.416.676.416 1.17 0 .572-.243 1.049-.728 1.43-.477.373-1.084.559-1.82.559Zm-52.589 31.276h1.272l4.572 6.84h.024v-6.84h.996V127h-.96l-4.872-7.308h-.024V127h-1.008v-8.568Zm13.077 6.792h.936c-.128.6-.416 1.072-.864 1.416-.448.336-.992.504-1.632.504-.872 0-1.576-.284-2.112-.852-.528-.568-.792-1.328-.792-2.28 0-.952.264-1.72.792-2.304.536-.592 1.22-.888 2.052-.888.8 0 1.432.276 1.896.828.464.544.696 1.26.696 2.148v.396h-4.464c.024.688.204 1.22.54 1.596.344.376.808.564 1.392.564.392 0 .716-.092.972-.276.264-.192.46-.476.588-.852Zm-1.62-3.6c-.504 0-.916.164-1.236.492-.32.32-.52.772-.6 1.356h3.456c-.016-.576-.168-1.028-.456-1.356-.28-.328-.668-.492-1.164-.492Zm7.316-.66h1.008l1.368 4.956h.024l1.392-4.956h.96L183.817 127h-1.032l-1.392-4.884h-.036L179.989 127h-1.044l-1.824-6.036h.984l1.404 4.956h.036l1.344-4.956ZM193.266 127h-1.032v-7.704h-3.192v-.864h7.428v.864h-3.204V127Zm8.252 0h-.996a8.54 8.54 0 0 1-.084-.504 6.363 6.363 0 0 1-.024-.516c-.128.352-.384.632-.768.84-.376.208-.82.312-1.332.312-.576 0-1.048-.156-1.416-.468-.36-.32-.54-.74-.54-1.26s.172-.932.516-1.236c.352-.304.876-.496 1.572-.576l1.944-.252v-.348c0-.44-.124-.776-.372-1.008-.24-.24-.588-.36-1.044-.36-.4 0-.72.1-.96.3-.24.192-.38.464-.42.816h-.96c.056-.592.296-1.06.72-1.404.432-.344.98-.516 1.644-.516.768 0 1.356.184 1.764.552.408.368.612.9.612 1.596v2.772c0 .28.012.52.036.72.024.192.06.372.108.54Zm-4.152-1.62c0 .304.104.548.312.732.208.176.488.264.84.264.536 0 .98-.16 1.332-.48.36-.328.54-.752.54-1.272v-.54l-1.644.18c-.52.072-.88.196-1.08.372-.2.176-.3.424-.3.744Zm9.081 1.764c-.448 0-.856-.112-1.224-.336a2.116 2.116 0 0 1-.816-.864V127h-.96v-8.832h.996v3.864c.168-.368.428-.66.78-.876.36-.224.768-.336 1.224-.336.792 0 1.436.296 1.932.888.504.584.756 1.344.756 2.28 0 .936-.252 1.696-.756 2.28-.504.584-1.148.876-1.932.876Zm-.204-5.544c-.568 0-1.02.208-1.356.624-.328.408-.492.964-.492 1.668v.168c0 .704.164 1.264.492 1.68.336.416.788.624 1.356.624.576 0 1.032-.216 1.368-.648.344-.432.516-1.008.516-1.728 0-.728-.172-1.308-.516-1.74-.336-.432-.792-.648-1.368-.648Zm-44.127 21.832h1.272l4.572 6.84h.024v-6.84h.996V152h-.96l-4.872-7.308h-.024V152h-1.008v-8.568Zm13.077 6.792h.936c-.128.6-.416 1.072-.864 1.416-.448.336-.992.504-1.632.504-.872 0-1.576-.284-2.112-.852-.528-.568-.792-1.328-.792-2.28 0-.952.264-1.72.792-2.304.536-.592 1.22-.888 2.052-.888.8 0 1.432.276 1.896.828.464.544.696 1.26.696 2.148v.396h-4.464c.024.688.204 1.22.54 1.596.344.376.808.564 1.392.564.392 0 .716-.092.972-.276.264-.192.46-.476.588-.852Zm-1.62-3.6c-.504 0-.916.164-1.236.492-.32.32-.52.772-.6 1.356h3.456c-.016-.576-.168-1.028-.456-1.356-.28-.328-.668-.492-1.164-.492Zm7.316-.66h1.008l1.368 4.956h.024l1.392-4.956h.96L183.817 152h-1.032l-1.392-4.884h-.036L179.989 152h-1.044l-1.824-6.036h.984l1.404 4.956h.036l1.344-4.956ZM197.514 152h-1.176l-1.932-7.2h-.024l-1.944 7.2h-1.164l-2.412-8.568h1.092l1.968 7.284h.024l1.932-7.284h1.092l1.944 7.284h.024l1.956-7.284h1.032L197.514 152Zm4.833-7.296h-1.128v-1.212h1.128v1.212Zm-.06 7.296h-.996v-6.036h.996V152Zm2.133-6.036h.96v1.104c.144-.376.392-.676.744-.9a2.219 2.219 0 0 1 1.224-.348c.68 0 1.208.204 1.584.612.384.4.576.96.576 1.68V152h-.996v-3.672c0-.56-.124-.98-.372-1.26-.24-.288-.596-.432-1.068-.432-.52 0-.928.176-1.224.528-.288.352-.432.856-.432 1.512V152h-.996v-6.036Zm9.404 6.18c-.784 0-1.428-.292-1.932-.876-.504-.584-.756-1.344-.756-2.28 0-.936.248-1.696.744-2.28.504-.592 1.152-.888 1.944-.888.456 0 .86.112 1.212.336.36.216.624.508.792.876v-3.864h.996V152h-.96v-1.056c-.176.352-.448.64-.816.864a2.303 2.303 0 0 1-1.224.336Zm.204-5.544c-.576 0-1.036.216-1.38.648-.336.432-.504 1.012-.504 1.74 0 .72.168 1.296.504 1.728.344.432.804.648 1.38.648.568 0 1.016-.208 1.344-.624.336-.416.504-.976.504-1.68v-.168c0-.704-.168-1.26-.504-1.668-.328-.416-.776-.624-1.344-.624Zm7.358-.78c.856 0 1.548.292 2.076.876.528.576.792 1.34.792 2.292 0 .952-.264 1.716-.792 2.292-.528.576-1.22.864-2.076.864-.856 0-1.548-.288-2.076-.864-.528-.576-.792-1.34-.792-2.292 0-.952.264-1.716.792-2.292.528-.584 1.22-.876 2.076-.876Zm0 .804c-.584 0-1.044.212-1.38.636-.336.424-.504 1-.504 1.728s.168 1.304.504 1.728c.336.416.796.624 1.38.624.584 0 1.044-.208 1.38-.624.336-.424.504-1 .504-1.728s-.168-1.304-.504-1.728c-.336-.424-.796-.636-1.38-.636Zm7.597-.66h1.008l1.368 4.956h.024l1.392-4.956h.96L231.911 152h-1.032l-1.392-4.884h-.036L228.083 152h-1.044l-1.824-6.036h.984l1.404 4.956h.036l1.344-4.956Z" fill="#11181C"/><path d="M163.148 188h-1.032v-8.568h5.484v.864h-4.452v3.132h4.044v.864h-4.044V188Zm10.62 0h-.996a8.54 8.54 0 0 1-.084-.504 6.363 6.363 0 0 1-.024-.516c-.128.352-.384.632-.768.84-.376.208-.82.312-1.332.312-.576 0-1.048-.156-1.416-.468-.36-.32-.54-.74-.54-1.26s.172-.932.516-1.236c.352-.304.876-.496 1.572-.576l1.944-.252v-.348c0-.44-.124-.776-.372-1.008-.24-.24-.588-.36-1.044-.36-.4 0-.72.1-.96.3-.24.192-.38.464-.42.816h-.96c.056-.592.296-1.06.72-1.404.432-.344.98-.516 1.644-.516.768 0 1.356.184 1.764.552.408.368.612.9.612 1.596v2.772c0 .28.012.52.036.72.024.192.06.372.108.54Zm-4.152-1.62c0 .304.104.548.312.732.208.176.488.264.84.264.536 0 .98-.16 1.332-.48.36-.328.54-.752.54-1.272v-.54l-1.644.18c-.52.072-.88.196-1.08.372-.2.176-.3.424-.3.744Zm8.76 1.62h-1.116l-2.412-6.036h1.02l1.944 5.052h.024l1.86-5.052h.996L178.376 188Zm5.921-6.18c.856 0 1.548.292 2.076.876.528.576.792 1.34.792 2.292 0 .952-.264 1.716-.792 2.292-.528.576-1.22.864-2.076.864-.856 0-1.548-.288-2.076-.864-.528-.576-.792-1.34-.792-2.292 0-.952.264-1.716.792-2.292.528-.584 1.22-.876 2.076-.876Zm0 .804c-.584 0-1.044.212-1.38.636-.336.424-.504 1-.504 1.728s.168 1.304.504 1.728c.336.416.796.624 1.38.624.584 0 1.044-.208 1.38-.624.336-.424.504-1 .504-1.728s-.168-1.304-.504-1.728c-.336-.424-.796-.636-1.38-.636Zm7.44-.792c.088 0 .172.004.252.012.08.008.152.02.216.036v.912a1.616 1.616 0 0 0-.24-.036 3.185 3.185 0 0 0-.276-.012c-.536 0-.976.208-1.32.624-.344.408-.516.96-.516 1.656V188h-.996v-6.036h.96v1.428c.128-.48.364-.86.708-1.14.344-.28.748-.42 1.212-.42Zm2.793-1.128h-1.128v-1.212h1.128v1.212Zm-.06 7.296h-.996v-6.036h.996V188Zm4.065-.744c.144 0 .284-.012.42-.036.144-.024.296-.06.456-.108v.816a3.72 3.72 0 0 1-.552.12 2.664 2.664 0 0 1-.504.048c-.56 0-.98-.136-1.26-.408-.272-.272-.408-.684-.408-1.236v-3.732h-.888v-.756h.888v-1.536h.984v1.536h1.584v.756h-1.596v3.684c0 .296.068.512.204.648.144.136.368.204.672.204Zm6.518-1.032h.936c-.128.6-.416 1.072-.864 1.416-.448.336-.992.504-1.632.504-.872 0-1.576-.284-2.112-.852-.528-.568-.792-1.328-.792-2.28 0-.952.264-1.72.792-2.304.536-.592 1.22-.888 2.052-.888.8 0 1.432.276 1.896.828.464.544.696 1.26.696 2.148v.396h-4.464c.024.688.204 1.22.54 1.596.344.376.808.564 1.392.564.392 0 .716-.092.972-.276.264-.192.46-.476.588-.852Zm-1.62-3.6c-.504 0-.916.164-1.236.492-.32.32-.52.772-.6 1.356h3.456c-.016-.576-.168-1.028-.456-1.356-.28-.328-.668-.492-1.164-.492Zm6.391 5.52c-.768 0-1.388-.168-1.86-.504-.464-.344-.72-.82-.768-1.428h.96c.032.368.196.656.492.864.304.208.692.312 1.164.312.432 0 .776-.092 1.032-.276a.892.892 0 0 0 .396-.756.656.656 0 0 0-.264-.552c-.168-.144-.432-.252-.792-.324l-1.068-.216c-.592-.112-1.02-.296-1.284-.552-.264-.264-.396-.624-.396-1.08 0-.52.212-.952.636-1.296.424-.344.96-.516 1.608-.516.704 0 1.26.152 1.668.456.408.296.64.724.696 1.284h-.924a.923.923 0 0 0-.432-.708c-.256-.176-.592-.264-1.008-.264-.4 0-.72.092-.96.276a.831.831 0 0 0-.36.708c0 .24.08.428.24.564.16.128.432.228.816.3l1.2.228c.528.104.92.292 1.176.564.256.264.384.624.384 1.08 0 .528-.224.968-.672 1.32-.44.344-1 .516-1.68.516Z" fill="#fff"/><path d="M298.512 193.144c-1.16 0-2.104-.408-2.832-1.224-.72-.824-1.08-1.896-1.08-3.216 0-1.312.368-2.376 1.104-3.192.736-.816 1.688-1.224 2.856-1.224.912 0 1.656.232 2.232.696.584.464.956 1.112 1.116 1.944h-1.032c-.12-.56-.38-.992-.78-1.296-.4-.312-.912-.468-1.536-.468-.896 0-1.604.32-2.124.96-.52.632-.78 1.492-.78 2.58 0 1.096.256 1.964.768 2.604.512.64 1.212.96 2.1.96.736 0 1.336-.208 1.8-.624.472-.424.708-.976.708-1.656v-.444h-2.028v-.816h3.036V193h-.816l-.096-1.428c-.16.448-.492.824-.996 1.128a3.1 3.1 0 0 1-1.62.444Zm6.565-7.44h-1.128v-1.212h1.128v1.212Zm-.06 7.296h-.996v-6.036h.996V193Zm4.065-.744c.144 0 .284-.012.42-.036.144-.024.296-.06.456-.108v.816a3.72 3.72 0 0 1-.552.12 2.664 2.664 0 0 1-.504.048c-.56 0-.98-.136-1.26-.408-.272-.272-.408-.684-.408-1.236v-3.732h-.888v-.756h.888v-1.536h.984v1.536h1.584v.756h-1.596v3.684c0 .296.068.512.204.648.144.136.368.204.672.204Zm3.578.744h-1.032v-8.568h1.032v3.78h5.016v-3.78h1.032V193h-1.032v-3.924h-5.016V193Zm13.204-6.036V193h-.972v-1.092a1.833 1.833 0 0 1-.732.912c-.344.216-.74.324-1.188.324-.68 0-1.208-.196-1.584-.588-.368-.4-.552-.968-.552-1.704v-3.888h1.008v3.696c0 .568.116.996.348 1.284.24.28.596.42 1.068.42.504 0 .896-.18 1.176-.54.28-.36.42-.872.42-1.536v-3.324h1.008Zm5.134 6.18c-.448 0-.856-.112-1.224-.336a2.116 2.116 0 0 1-.816-.864V193h-.96v-8.832h.996v3.864c.168-.368.428-.66.78-.876.36-.224.768-.336 1.224-.336.792 0 1.436.296 1.932.888.504.584.756 1.344.756 2.28 0 .936-.252 1.696-.756 2.28-.504.584-1.148.876-1.932.876Zm-.204-5.544c-.568 0-1.02.208-1.356.624-.328.408-.492.964-.492 1.668v.168c0 .704.164 1.264.492 1.68.336.416.788.624 1.356.624.576 0 1.032-.216 1.368-.648.344-.432.516-1.008.516-1.728 0-.728-.172-1.308-.516-1.74-.336-.432-.792-.648-1.368-.648Zm-32.69 30.544c-1.048 0-1.888-.232-2.52-.696-.624-.472-.964-1.132-1.02-1.98h.996c.056.6.3 1.06.732 1.38.44.312 1.04.468 1.8.468.64 0 1.152-.144 1.536-.432.392-.296.588-.692.588-1.188 0-.392-.124-.696-.372-.912-.248-.224-.644-.388-1.188-.492l-1.632-.324c-.744-.136-1.296-.388-1.656-.756-.352-.368-.528-.856-.528-1.464 0-.712.28-1.3.84-1.764.56-.464 1.276-.696 2.148-.696.944 0 1.696.204 2.256.612.56.4.88.976.96 1.728h-.996a1.554 1.554 0 0 0-.696-1.104c-.392-.272-.896-.408-1.512-.408-.6 0-1.084.148-1.452.444-.36.296-.54.68-.54 1.152 0 .392.108.688.324.888.224.2.624.356 1.2.468l1.68.348c.744.152 1.288.408 1.632.768.352.36.528.848.528 1.464 0 .728-.292 1.328-.876 1.8-.576.464-1.32.696-2.232.696Zm6.771-.888c.144 0 .284-.012.42-.036.144-.024.296-.06.456-.108v.816a3.72 3.72 0 0 1-.552.12 2.664 2.664 0 0 1-.504.048c-.56 0-.98-.136-1.26-.408-.272-.272-.408-.684-.408-1.236v-3.732h-.888v-.756h.888v-1.536h.984v1.536h1.584v.756h-1.596v3.684c0 .296.068.512.204.648.144.136.368.204.672.204Zm3.554-6.552h-1.128v-1.212h1.128v1.212Zm-.06 7.296h-.996v-6.036h.996V218Zm4.065-.744c.144 0 .284-.012.42-.036.144-.024.296-.06.456-.108v.816a3.72 3.72 0 0 1-.552.12 2.664 2.664 0 0 1-.504.048c-.56 0-.98-.136-1.26-.408-.272-.272-.408-.684-.408-1.236v-3.732h-.888v-.756h.888v-1.536h.984v1.536h1.584v.756h-1.596v3.684c0 .296.068.512.204.648.144.136.368.204.672.204Zm4.897.888c-.856 0-1.544-.288-2.064-.864-.52-.576-.78-1.34-.78-2.292 0-.952.26-1.716.78-2.292.528-.584 1.216-.876 2.064-.876.664 0 1.208.18 1.632.54.432.36.696.864.792 1.512h-.948c-.088-.408-.256-.716-.504-.924-.248-.216-.572-.324-.972-.324-.576 0-1.032.212-1.368.636-.328.424-.492 1-.492 1.728s.164 1.304.492 1.728c.336.416.792.624 1.368.624.4 0 .724-.104.972-.312.248-.216.416-.528.504-.936h.948c-.096.648-.356 1.152-.78 1.512-.424.36-.972.54-1.644.54Zm5.065-8.976v3.9c.144-.392.388-.696.732-.912a2.15 2.15 0 0 1 1.2-.336c.68 0 1.208.204 1.584.612.384.4.576.96.576 1.68V218h-.996v-3.672c0-.56-.124-.98-.372-1.26-.24-.288-.596-.432-1.068-.432-.52 0-.928.176-1.224.528-.288.352-.432.856-.432 1.512V218h-.996v-8.832h.996Zm10.184 7.056h.936c-.128.6-.416 1.072-.864 1.416-.448.336-.992.504-1.632.504-.872 0-1.576-.284-2.112-.852-.528-.568-.792-1.328-.792-2.28 0-.952.264-1.72.792-2.304.536-.592 1.22-.888 2.052-.888.8 0 1.432.276 1.896.828.464.544.696 1.26.696 2.148v.396h-4.464c.024.688.204 1.22.54 1.596.344.376.808.564 1.392.564.392 0 .716-.092.972-.276.264-.192.46-.476.588-.852Zm-1.62-3.6c-.504 0-.916.164-1.236.492-.32.32-.52.772-.6 1.356h3.456c-.016-.576-.168-1.028-.456-1.356-.28-.328-.668-.492-1.164-.492Zm6.392 5.52c-.768 0-1.388-.168-1.86-.504-.464-.344-.72-.82-.768-1.428h.96c.032.368.196.656.492.864.304.208.692.312 1.164.312.432 0 .776-.092 1.032-.276a.892.892 0 0 0 .396-.756.654.654 0 0 0-.264-.552c-.168-.144-.432-.252-.792-.324l-1.068-.216c-.592-.112-1.02-.296-1.284-.552-.264-.264-.396-.624-.396-1.08 0-.52.212-.952.636-1.296.424-.344.96-.516 1.608-.516.704 0 1.26.152 1.668.456.408.296.64.724.696 1.284h-.924a.923.923 0 0 0-.432-.708c-.256-.176-.592-.264-1.008-.264-.4 0-.72.092-.96.276a.829.829 0 0 0-.36.708c0 .24.08.428.24.564.16.128.432.228.816.3l1.2.228c.528.104.92.292 1.176.564.256.264.384.624.384 1.08 0 .528-.224.968-.672 1.32-.44.344-1 .516-1.68.516Zm-175.236-13.712h3.036c1.248 0 2.256.396 3.024 1.188.768.784 1.152 1.816 1.152 3.096s-.384 2.316-1.152 3.108c-.768.784-1.776 1.176-3.024 1.176h-3.036v-8.568Zm6.144 4.284c0-1.064-.276-1.9-.828-2.508-.552-.608-1.312-.912-2.28-.912h-2.016v6.84h2.016c.976 0 1.736-.304 2.28-.912.552-.608.828-1.444.828-2.508Zm5.162-1.896c.856 0 1.548.292 2.076.876.528.576.792 1.34.792 2.292 0 .952-.264 1.716-.792 2.292-.528.576-1.22.864-2.076.864-.856 0-1.548-.288-2.076-.864-.528-.576-.792-1.34-.792-2.292 0-.952.264-1.716.792-2.292.528-.584 1.22-.876 2.076-.876Zm0 .804c-.584 0-1.044.212-1.38.636-.336.424-.504 1-.504 1.728s.168 1.304.504 1.728c.336.416.796.624 1.38.624.584 0 1.044-.208 1.38-.624.336-.424.504-1 .504-1.728s-.168-1.304-.504-1.728c-.336-.424-.796-.636-1.38-.636Zm7.596-.66h1.008l1.368 4.956h.024l1.392-4.956h.96L183.946 213h-1.032l-1.392-4.884h-.036L180.118 213h-1.044l-1.824-6.036h.984l1.404 4.956h.036l1.344-4.956Zm6.14 0h.96v1.104c.144-.376.392-.676.744-.9a2.202 2.202 0 0 1 1.224-.348c.68 0 1.208.204 1.584.612.384.4.576.96.576 1.68V213h-.996v-3.672c0-.56-.124-.98-.372-1.26-.24-.288-.596-.432-1.068-.432-.52 0-.928.176-1.224.528-.288.352-.432.856-.432 1.512V213h-.996v-6.036Zm8.156-2.796V213h-.996v-8.832h.996Zm4.557 2.652c.856 0 1.548.292 2.076.876.528.576.792 1.34.792 2.292 0 .952-.264 1.716-.792 2.292-.528.576-1.22.864-2.076.864-.856 0-1.548-.288-2.076-.864-.528-.576-.792-1.34-.792-2.292 0-.952.264-1.716.792-2.292.528-.584 1.22-.876 2.076-.876Zm0 .804c-.584 0-1.044.212-1.38.636-.336.424-.504 1-.504 1.728s.168 1.304.504 1.728c.336.416.796.624 1.38.624.584 0 1.044-.208 1.38-.624.336-.424.504-1 .504-1.728s-.168-1.304-.504-1.728c-.336-.424-.796-.636-1.38-.636Zm9.252 5.376h-.996a8.54 8.54 0 0 1-.084-.504 6.363 6.363 0 0 1-.024-.516c-.128.352-.384.632-.768.84-.376.208-.82.312-1.332.312-.576 0-1.048-.156-1.416-.468-.36-.32-.54-.74-.54-1.26s.172-.932.516-1.236c.352-.304.876-.496 1.572-.576l1.944-.252v-.348c0-.44-.124-.776-.372-1.008-.24-.24-.588-.36-1.044-.36-.4 0-.72.1-.96.3-.24.192-.38.464-.42.816h-.96c.056-.592.296-1.06.72-1.404.432-.344.98-.516 1.644-.516.768 0 1.356.184 1.764.552.408.368.612.9.612 1.596v2.772c0 .28.012.52.036.72.024.192.06.372.108.54Zm-4.152-1.62c0 .304.104.548.312.732.208.176.488.264.84.264.536 0 .98-.16 1.332-.48.36-.328.54-.752.54-1.272v-.54l-1.644.18c-.52.072-.88.196-1.08.372-.2.176-.3.424-.3.744Zm8.325 1.764c-.784 0-1.428-.292-1.932-.876-.504-.584-.756-1.344-.756-2.28 0-.936.248-1.696.744-2.28.504-.592 1.152-.888 1.944-.888.456 0 .86.112 1.212.336.36.216.624.508.792.876v-3.864h.996V213h-.96v-1.056c-.176.352-.448.64-.816.864a2.308 2.308 0 0 1-1.224.336Zm.204-5.544c-.576 0-1.036.216-1.38.648-.336.432-.504 1.012-.504 1.74 0 .72.168 1.296.504 1.728.344.432.804.648 1.38.648.568 0 1.016-.208 1.344-.624.336-.416.504-.976.504-1.68v-.168c0-.704-.168-1.26-.504-1.668-.328-.416-.776-.624-1.344-.624Zm7.047 5.544c-.768 0-1.388-.168-1.86-.504-.464-.344-.72-.82-.768-1.428h.96c.032.368.196.656.492.864.304.208.692.312 1.164.312.432 0 .776-.092 1.032-.276a.892.892 0 0 0 .396-.756.654.654 0 0 0-.264-.552c-.168-.144-.432-.252-.792-.324l-1.068-.216c-.592-.112-1.02-.296-1.284-.552-.264-.264-.396-.624-.396-1.08 0-.52.212-.952.636-1.296.424-.344.96-.516 1.608-.516.704 0 1.26.152 1.668.456.408.296.64.724.696 1.284h-.924a.923.923 0 0 0-.432-.708c-.256-.176-.592-.264-1.008-.264-.4 0-.72.092-.96.276a.829.829 0 0 0-.36.708c0 .24.08.428.24.564.16.128.432.228.816.3l1.2.228c.528.104.92.292 1.176.564.256.264.384.624.384 1.08 0 .528-.224.968-.672 1.32-.44.344-1 .516-1.68.516Zm-55.443 36c-1.048 0-1.888-.232-2.52-.696-.624-.472-.964-1.132-1.02-1.98h.996c.056.6.3 1.06.732 1.38.44.312 1.04.468 1.8.468.64 0 1.152-.144 1.536-.432.392-.296.588-.692.588-1.188 0-.392-.124-.696-.372-.912-.248-.224-.644-.388-1.188-.492l-1.632-.324c-.744-.136-1.296-.388-1.656-.756-.352-.368-.528-.856-.528-1.464 0-.712.28-1.3.84-1.764.56-.464 1.276-.696 2.148-.696.944 0 1.696.204 2.256.612.56.4.88.976.96 1.728h-.996a1.554 1.554 0 0 0-.696-1.104c-.392-.272-.896-.408-1.512-.408-.6 0-1.084.148-1.452.444-.36.296-.54.68-.54 1.152 0 .392.108.688.324.888.224.2.624.356 1.2.468l1.68.348c.744.152 1.288.408 1.632.768.352.36.528.848.528 1.464 0 .728-.292 1.328-.876 1.8-.576.464-1.32.696-2.232.696Zm5.835-8.976v3.9c.144-.392.388-.696.732-.912a2.15 2.15 0 0 1 1.2-.336c.68 0 1.208.204 1.584.612.384.4.576.96.576 1.68V249h-.996v-3.672c0-.56-.124-.98-.372-1.26-.24-.288-.596-.432-1.068-.432-.52 0-.928.176-1.224.528-.288.352-.432.856-.432 1.512V249h-.996v-8.832h.996Zm8.588 2.652c.856 0 1.548.292 2.076.876.528.576.792 1.34.792 2.292 0 .952-.264 1.716-.792 2.292-.528.576-1.22.864-2.076.864-.856 0-1.548-.288-2.076-.864-.528-.576-.792-1.34-.792-2.292 0-.952.264-1.716.792-2.292.528-.584 1.22-.876 2.076-.876Zm0 .804c-.584 0-1.044.212-1.38.636-.336.424-.504 1-.504 1.728s.168 1.304.504 1.728c.336.416.796.624 1.38.624.584 0 1.044-.208 1.38-.624.336-.424.504-1 .504-1.728s-.168-1.304-.504-1.728c-.336-.424-.796-.636-1.38-.636Zm7.596-.66h1.008l1.368 4.956h.024l1.392-4.956h.96L190.051 249h-1.032l-1.392-4.884h-.036L186.223 249h-1.044l-1.824-6.036h.984l1.404 4.956h.036l1.344-4.956ZM199.501 249h-1.032v-7.704h-3.192v-.864h7.428v.864h-3.204V249Zm5.983-6.18c.856 0 1.548.292 2.076.876.528.576.792 1.34.792 2.292 0 .952-.264 1.716-.792 2.292-.528.576-1.22.864-2.076.864-.856 0-1.548-.288-2.076-.864-.528-.576-.792-1.34-.792-2.292 0-.952.264-1.716.792-2.292.528-.584 1.22-.876 2.076-.876Zm0 .804c-.584 0-1.044.212-1.38.636-.336.424-.504 1-.504 1.728s.168 1.304.504 1.728c.336.416.796.624 1.38.624.584 0 1.044-.208 1.38-.624.336-.424.504-1 .504-1.728s-.168-1.304-.504-1.728c-.336-.424-.796-.636-1.38-.636Zm6.985-.804c.856 0 1.548.292 2.076.876.528.576.792 1.34.792 2.292 0 .952-.264 1.716-.792 2.292-.528.576-1.22.864-2.076.864-.856 0-1.548-.288-2.076-.864-.528-.576-.792-1.34-.792-2.292 0-.952.264-1.716.792-2.292.528-.584 1.22-.876 2.076-.876Zm0 .804c-.584 0-1.044.212-1.38.636-.336.424-.504 1-.504 1.728s.168 1.304.504 1.728c.336.416.796.624 1.38.624.584 0 1.044-.208 1.38-.624.336-.424.504-1 .504-1.728s-.168-1.304-.504-1.728c-.336-.424-.796-.636-1.38-.636Zm5.556-3.456V249h-.996v-8.832h.996Zm5.133 8.976c-.448 0-.856-.112-1.224-.336a2.116 2.116 0 0 1-.816-.864V249h-.96v-8.832h.996v3.864c.168-.368.428-.66.78-.876.36-.224.768-.336 1.224-.336.792 0 1.436.296 1.932.888.504.584.756 1.344.756 2.28 0 .936-.252 1.696-.756 2.28-.504.584-1.148.876-1.932.876Zm-.204-5.544c-.568 0-1.02.208-1.356.624-.328.408-.492.964-.492 1.668v.168c0 .704.164 1.264.492 1.68.336.416.788.624 1.356.624.576 0 1.032-.216 1.368-.648.344-.432.516-1.008.516-1.728 0-.728-.172-1.308-.516-1.74-.336-.432-.792-.648-1.368-.648Zm9.279 5.4h-.996a8.54 8.54 0 0 1-.084-.504 6.363 6.363 0 0 1-.024-.516c-.128.352-.384.632-.768.84-.376.208-.82.312-1.332.312-.576 0-1.048-.156-1.416-.468-.36-.32-.54-.74-.54-1.26s.172-.932.516-1.236c.352-.304.876-.496 1.572-.576l1.944-.252v-.348c0-.44-.124-.776-.372-1.008-.24-.24-.588-.36-1.044-.36-.4 0-.72.1-.96.3-.24.192-.38.464-.42.816h-.96c.056-.592.296-1.06.72-1.404.432-.344.98-.516 1.644-.516.768 0 1.356.184 1.764.552.408.368.612.9.612 1.596v2.772c0 .28.012.52.036.72.024.192.06.372.108.54Zm-4.152-1.62c0 .304.104.548.312.732.208.176.488.264.84.264.536 0 .98-.16 1.332-.48.36-.328.54-.752.54-1.272v-.54l-1.644.18c-.52.072-.88.196-1.08.372-.2.176-.3.424-.3.744Zm8.961-4.548c.088 0 .172.004.252.012.08.008.152.02.216.036v.912a1.616 1.616 0 0 0-.24-.036 3.185 3.185 0 0 0-.276-.012c-.536 0-.976.208-1.32.624-.344.408-.516.96-.516 1.656V249h-.996v-6.036h.96v1.428c.128-.48.364-.86.708-1.14.344-.28.748-.42 1.212-.42Zm-71.938 31.312c-1.048 0-1.888-.232-2.52-.696-.624-.472-.964-1.132-1.02-1.98h.996c.056.6.3 1.06.732 1.38.44.312 1.04.468 1.8.468.64 0 1.152-.144 1.536-.432.392-.296.588-.692.588-1.188 0-.392-.124-.696-.372-.912-.248-.224-.644-.388-1.188-.492l-1.632-.324c-.744-.136-1.296-.388-1.656-.756-.352-.368-.528-.856-.528-1.464 0-.712.28-1.3.84-1.764.56-.464 1.276-.696 2.148-.696.944 0 1.696.204 2.256.612.56.4.88.976.96 1.728h-.996a1.554 1.554 0 0 0-.696-1.104c-.392-.272-.896-.408-1.512-.408-.6 0-1.084.148-1.452.444-.36.296-.54.68-.54 1.152 0 .392.108.688.324.888.224.2.624.356 1.2.468l1.68.348c.744.152 1.288.408 1.632.768.352.36.528.848.528 1.464 0 .728-.292 1.328-.876 1.8-.576.464-1.32.696-2.232.696Zm5.835-8.976v3.9c.144-.392.388-.696.732-.912a2.15 2.15 0 0 1 1.2-.336c.68 0 1.208.204 1.584.612.384.4.576.96.576 1.68V274h-.996v-3.672c0-.56-.124-.98-.372-1.26-.24-.288-.596-.432-1.068-.432-.52 0-.928.176-1.224.528-.288.352-.432.856-.432 1.512V274h-.996v-8.832h.996Zm8.588 2.652c.856 0 1.548.292 2.076.876.528.576.792 1.34.792 2.292 0 .952-.264 1.716-.792 2.292-.528.576-1.22.864-2.076.864-.856 0-1.548-.288-2.076-.864-.528-.576-.792-1.34-.792-2.292 0-.952.264-1.716.792-2.292.528-.584 1.22-.876 2.076-.876Zm0 .804c-.584 0-1.044.212-1.38.636-.336.424-.504 1-.504 1.728s.168 1.304.504 1.728c.336.416.796.624 1.38.624.584 0 1.044-.208 1.38-.624.336-.424.504-1 .504-1.728s-.168-1.304-.504-1.728c-.336-.424-.796-.636-1.38-.636Zm7.596-.66h1.008l1.368 4.956h.024l1.392-4.956h.96L190.051 274h-1.032l-1.392-4.884h-.036L186.223 274h-1.044l-1.824-6.036h.984l1.404 4.956h.036l1.344-4.956Zm9.822 6.036h-1.032v-8.568h5.484v.864h-4.452v3.132h4.044v.864h-4.044V274Zm10.896-6.036V274h-.972v-1.092a1.833 1.833 0 0 1-.732.912c-.344.216-.74.324-1.188.324-.68 0-1.208-.196-1.584-.588-.368-.4-.552-.968-.552-1.704v-3.888h1.008v3.696c0 .568.116.996.348 1.284.24.28.596.42 1.068.42.504 0 .896-.18 1.176-.54.28-.36.42-.872.42-1.536v-3.324h1.008Zm3.129-2.796V274h-.996v-8.832h.996Zm3.129 0V274h-.996v-8.832h.996Zm11.587.264v5.076c0 1.168-.3 2.068-.9 2.7-.6.624-1.456.936-2.568.936-1.104 0-1.96-.316-2.568-.948-.6-.64-.9-1.544-.9-2.712v-5.052h1.032v5.136c0 .872.208 1.54.624 2.004.424.464 1.028.696 1.812.696.792 0 1.396-.228 1.812-.684.416-.464.624-1.136.624-2.016v-5.136h1.032Zm3.134 5.1V274h-1.02v-8.568h3.3c.968 0 1.712.22 2.232.66.52.44.78 1.068.78 1.884 0 .608-.18 1.128-.54 1.56-.36.424-.84.704-1.44.84l2.352 3.624h-1.164l-2.22-3.468h-2.28Zm0-4.236v3.372h2.22c.656 0 1.156-.144 1.5-.432.352-.288.528-.708.528-1.26 0-.536-.176-.948-.528-1.236-.352-.296-.852-.444-1.5-.444h-2.22ZM241.713 274h-5.64v-8.568h1.032v7.704h4.608V274Zm3.877.144c-.768 0-1.388-.168-1.86-.504-.464-.344-.72-.82-.768-1.428h.96c.032.368.196.656.492.864.304.208.692.312 1.164.312.432 0 .776-.092 1.032-.276a.892.892 0 0 0 .396-.756.654.654 0 0 0-.264-.552c-.168-.144-.432-.252-.792-.324l-1.068-.216c-.592-.112-1.02-.296-1.284-.552-.264-.264-.396-.624-.396-1.08 0-.52.212-.952.636-1.296.424-.344.96-.516 1.608-.516.704 0 1.26.152 1.668.456.408.296.64.724.696 1.284h-.924a.923.923 0 0 0-.432-.708c-.256-.176-.592-.264-1.008-.264-.4 0-.72.092-.96.276a.829.829 0 0 0-.36.708c0 .24.08.428.24.564.16.128.432.228.816.3l1.2.228c.528.104.92.292 1.176.564.256.264.384.624.384 1.08 0 .528-.224.968-.672 1.32-.44.344-1 .516-1.68.516Z" fill="#11181C"/><path fill-rule="evenodd" clip-rule="evenodd" d="M224.182 81.182a.451.451 0 0 1 .636 0l2.682 2.682 2.682-2.682a.45.45 0 1 1 .636.636l-3 3a.45.45 0 0 1-.636 0l-3-3a.45.45 0 0 1 0-.636Zm-69.715 159.545c.289.189.37.576.181.865l-4.25 6.5a.612.612 0 0 1-.444.278.622.622 0 0 1-.499-.158l-2.75-2.5a.637.637 0 0 1-.204-.432.625.625 0 0 1 1.044-.493l2.208 2.007 3.849-5.886a.626.626 0 0 1 .865-.181Z" fill="#11181C"/><path fill-rule="evenodd" clip-rule="evenodd" d="M245.182 180.182a.452.452 0 0 1 .49-.098.452.452 0 0 1 .146.098l3 3a.452.452 0 0 1 .098.49.452.452 0 0 1-.098.146l-3 3a.444.444 0 0 1-.318.132.44.44 0 0 1-.172-.035.452.452 0 0 1-.244-.587.452.452 0 0 1 .098-.146l2.682-2.682-2.682-2.682a.452.452 0 0 1-.098-.49.452.452 0 0 1 .098-.146Z" fill="#fff"/><path fill-rule="evenodd" clip-rule="evenodd" d="M276.499 181.85a6.65 6.65 0 0 0-2.101 12.96c.332.061.454-.144.454-.321 0-.157-.006-.576-.009-1.13-1.85.401-2.24-.892-2.24-.892-.303-.768-.739-.973-.739-.973-.604-.412.046-.404.046-.404.667.047 1.019.686 1.019.686.593 1.016 1.556.722 1.935.552.06-.43.232-.723.422-.889-1.477-.168-3.029-.738-3.029-3.287 0-.726.259-1.319.685-1.784-.069-.168-.297-.844.065-1.76 0 0 .558-.179 1.828.681.531-.147 1.1-.22 1.665-.223a6.417 6.417 0 0 1 1.665.223c1.27-.86 1.827-.681 1.827-.681.363.916.135 1.592.066 1.76.427.465.684 1.058.684 1.784 0 2.555-1.555 3.117-3.036 3.282.238.205.451.611.451 1.231 0 .889-.008 1.606-.008 1.824 0 .178.12.385.457.321a6.65 6.65 0 0 0-2.107-12.96Zm-5.649 31.65c0-.287.021-.569.063-.844l7.651-4.417c.299.117.586.26.858.424l-6.651 3.84a.452.452 0 0 0-.038.768l3.592 2.567-3.453 1.994a5.645 5.645 0 0 1-2.022-4.332Zm6.518 2.775.025-.014 1.448-.836a.174.174 0 0 0 .018-.011l1.451-.837a.449.449 0 0 0 .052-.757l-3.534-2.62 3.388-1.956a5.646 5.646 0 0 1 1.849 5.24l-7.496 4.327a5.477 5.477 0 0 1-.882-.41l3.681-2.126Zm-.187-.931-3.364-2.405.692-.4 3.297 2.444-.625.361Zm-1.822-3.296.619-.357 3.297 2.444-.619.358-3.297-2.445Zm1.973-4.137-6.089 3.515a5.654 5.654 0 0 1 6.089-3.515Zm-1.485 11.202a5.65 5.65 0 0 0 5.842-3.373l-5.842 3.373Zm.653-12.263a6.65 6.65 0 1 0 0 13.299 6.65 6.65 0 0 0 0-13.299Z" fill="#11181C"/><path d="M161 225.5h78m-78-60h78-78Z" stroke="#ECEEF0"/><path fill-rule="evenodd" clip-rule="evenodd" d="M276.233 235.696c0-1.727 1.4-3.127 3.127-3.127 1.014 0 1.823.479 2.366 1.175a5.237 5.237 0 0 0 1.625-.629 2.629 2.629 0 0 1-1.148 1.45l.002.003a5.233 5.233 0 0 0 1.5-.413l-.001.002c-.337.505-.761.95-1.248 1.313.026.177.04.354.04.531 0 3.686-2.809 7.974-7.975 7.974a7.93 7.93 0 0 1-4.296-1.26.5.5 0 0 1-.108-.748.452.452 0 0 1 .439-.215c.915.108 1.83-.004 2.636-.356a3.085 3.085 0 0 1-1.69-1.876.45.45 0 0 1 .103-.448 3.069 3.069 0 0 1-1.045-2.311v-.033a.449.449 0 0 1 .365-.442 3.08 3.08 0 0 1-.344-1.416c0-.468.003-1.058.332-1.589a.45.45 0 0 1 .324-.209.5.5 0 0 1 .537.161 6.967 6.967 0 0 0 4.46 2.507l-.001-.044Zm-1.712 7.279a6.937 6.937 0 0 1-2.248-.373 5.309 5.309 0 0 0 2.389-1.042.449.449 0 0 0-.269-.804 2.173 2.173 0 0 1-1.715-.888c.19-.015.376-.048.557-.096a.451.451 0 0 0-.029-.876 2.179 2.179 0 0 1-1.644-1.474c.201.048.409.077.623.084a.449.449 0 0 0 .265-.824 2.174 2.174 0 0 1-.969-1.812c0-.168.003-.317.013-.453a7.947 7.947 0 0 0 5.282 2.376.502.502 0 0 0 .513-.61 2.127 2.127 0 0 1 2.071-2.614c1.234 0 2.136 1.143 2.136 2.432 0 3.256-2.476 6.974-6.975 6.974Z" fill="#11181C"/><path d="M297.672 243h1.032v-7.704h3.204v-.864h-7.428v.864h3.192V243ZM306.46 236.964h-1.008l-1.344 4.956h-.036l-1.404-4.956h-.984l1.824 6.036h1.044l1.368-4.884h.036l1.392 4.884h1.032l1.824-6.036h-.96l-1.392 4.956h-.024l-1.368-4.956ZM311.519 235.704h1.128v-1.212h-1.128v1.212Zm.072 7.296h.996v-6.036h-.996V243ZM317.528 242.112a2.78 2.78 0 0 1-.876.144c-.552 0-.876-.216-.876-.852v-3.684h1.596v-.756h-1.584v-1.536h-.984v1.536h-.888v.756h.888v3.732c0 1.116.564 1.644 1.668 1.644.264 0 .612-.036 1.056-.168v-.816ZM321.958 242.112a2.78 2.78 0 0 1-.876.144c-.552 0-.876-.216-.876-.852v-3.684h1.596v-.756h-1.584v-1.536h-.984v1.536h-.888v.756h.888v3.732c0 1.116.564 1.644 1.668 1.644.264 0 .612-.036 1.056-.168v-.816ZM328.465 241.224h-.936c-.252.732-.744 1.128-1.56 1.128-1.152 0-1.884-.768-1.932-2.16h4.464v-.396c0-1.548-.804-2.976-2.592-2.976-1.608 0-2.844 1.224-2.844 3.192 0 1.944 1.2 3.132 2.904 3.132 1.176 0 2.22-.636 2.496-1.92Zm-2.556-3.6c1.08 0 1.596.804 1.62 1.848h-3.456c.168-1.236.888-1.848 1.836-1.848ZM333.537 236.88a1.999 1.999 0 0 0-.468-.048c-.888 0-1.656.564-1.92 1.56v-1.428h-.96V243h.996v-2.976c0-1.524.876-2.28 1.836-2.28.156 0 .372.012.516.048v-.912Z" fill="#11181C"/><defs><filter id="a" x="106" y="80" width="188" height="242" filterUnits="userSpaceOnUse" color-interpolation-filters="sRGB"><feFlood flood-opacity="0" result="BackgroundImageFix"/><feColorMatrix in="SourceAlpha" values="0 0 0 0 0 0 0 0 0 0 0 0 0 0 0 0 0 0 127 0" result="hardAlpha"/><feOffset dy="5"/><feGaussianBlur stdDeviation="15"/><feColorMatrix values="0 0 0 0 0 0 0 0 0 0 0 0 0 0 0 0 0 0 0.1 0"/><feBlend in2="BackgroundImageFix" result="effect1_dropShadow_101_5513"/><feColorMatrix in="SourceAlpha" values="0 0 0 0 0 0 0 0 0 0 0 0 0 0 0 0 0 0 127 0" result="hardAlpha"/><feOffset dy="1"/><feGaussianBlur stdDeviation="1.5"/><feColorMatrix values="0 0 0 0 0 0 0 0 0 0 0 0 0 0 0 0 0 0 0.2 0"/><feBlend in2="effect1_dropShadow_101_5513" result="effect2_dropShadow_101_5513"/><feBlend in="SourceGraphic" in2="effect2_dropShadow_101_5513" result="shape"/></filter><filter id="b" x="229" y="146" width="160" height="145" filterUnits="userSpaceOnUse" color-interpolation-filters="sRGB"><feFlood flood-opacity="0" result="BackgroundImageFix"/><feColorMatrix in="SourceAlpha" values="0 0 0 0 0 0 0 0 0 0 0 0 0 0 0 0 0 0 127 0" result="hardAlpha"/><feOffset dy="5"/><feGaussianBlur stdDeviation="15"/><feColorMatrix values="0 0 0 0 0 0 0 0 0 0 0 0 0 0 0 0 0 0 0.1 0"/><feBlend in2="BackgroundImageFix" result="effect1_dropShadow_101_5513"/><feColorMatrix in="SourceAlpha" values="0 0 0 0 0 0 0 0 0 0 0 0 0 0 0 0 0 0 127 0" result="hardAlpha"/><feOffset dy="1"/><feGaussianBlur stdDeviation="1.5"/><feColorMatrix values="0 0 0 0 0 0 0 0 0 0 0 0 0 0 0 0 0 0 0.2 0"/><feBlend in2="effect1_dropShadow_101_5513" result="effect2_dropShadow_101_5513"/><feBlend in="SourceGraphic" in2="effect2_dropShadow_101_5513" result="shape"/></filter></defs></svg>