<svg width="91" height="25" viewBox="0 0 91 25" fill="none"
  xmlns="http://www.w3.org/2000/svg">
  <path fill-rule="evenodd" clip-rule="evenodd" d="M90.9815 7.26412L90.441 5.54877L85.4307 7.29985L84.9984 5.47729H83.1602V19.5218H85.5388V9.55124L90.9815 7.26412Z" fill="currentcolor"/>
  <path fill-rule="evenodd" clip-rule="evenodd" d="M69.8815 7.98319C70.8939 6.30501 72.8102 5.0553 75.269 5.0553C77.1131 5.0553 78.5587 5.73372 79.644 6.8049C80.8006 8.05458 81.4874 9.87561 81.4514 11.768L81.4153 13.1963H71.3278C71.3278 14.4817 71.834 15.8743 72.7017 16.7312C73.3525 17.3739 74.2205 17.731 75.305 17.731C76.4256 17.731 77.3661 17.4097 77.9447 16.8026C78.3418 16.4099 78.5955 16.0171 78.7764 15.2672H81.1264C80.9094 16.6598 80.0778 17.9452 78.9205 18.7308C77.908 19.4092 76.6425 19.8019 75.305 19.8019C73.2803 19.8019 71.6532 18.9807 70.5685 17.6953C69.3753 16.3385 68.7969 14.4817 68.7969 12.4822C68.7969 10.804 69.0861 9.30436 69.8815 7.98319ZM75.2683 7.05433C72.7014 7.05433 71.4358 9.12532 71.3636 11.1963H78.9565C78.9565 10.1608 78.6668 9.08958 78.0889 8.33973C77.4742 7.55422 76.5337 7.05433 75.2683 7.05433Z" fill="currentcolor"/>
  <path fill-rule="evenodd" clip-rule="evenodd" d="M55.6628 7.98271C56.6752 6.30452 58.5914 5.05481 61.0501 5.05481C62.8941 5.05481 64.3403 5.73322 65.425 6.80441C66.582 8.05411 67.269 9.87514 67.2328 11.7676L67.1967 13.1958H57.1091C57.1091 14.4812 57.6153 15.8738 58.483 16.7307C59.1338 17.3734 60.0016 17.7305 61.0862 17.7305C62.2071 17.7305 63.1472 17.4092 63.7257 16.8021C64.1234 16.4094 64.3765 16.0166 64.5572 15.2668H66.9074C66.6905 16.6593 65.8589 17.9448 64.7019 18.7303C63.6895 19.4087 62.424 19.8015 61.0862 19.8015C59.0615 19.8015 57.4345 18.9802 56.3497 17.6948C55.1566 16.3379 54.5781 14.4812 54.5781 12.4817C54.5781 10.8035 54.8673 9.30382 55.6628 7.98271ZM61.0494 7.05438C58.4822 7.05438 57.2167 9.12536 57.1445 11.1963H64.7373C64.7373 10.1608 64.4481 9.08963 63.8695 8.33977C63.2549 7.55426 62.3148 7.05438 61.0494 7.05438Z" fill="currentcolor"/>
  <path fill-rule="evenodd" clip-rule="evenodd" d="M42.6209 7.36998C43.448 5.98094 45.2819 5.19739 46.8641 5.19739C48.5902 5.19739 49.9566 5.76725 50.8197 6.69327C52.1861 8.04667 52.8694 10.1837 52.8694 12.4987C52.8694 14.9206 52.1502 17.1288 50.7118 18.4823C49.7769 19.337 48.4823 19.9069 46.8282 19.9069C45.3179 19.9069 43.4839 19.1946 42.7288 17.9124V25.0001H40.3555V5.55355H42.1894L42.6209 7.36998ZM44.1682 17.0236C44.7436 17.5222 45.4268 17.9496 46.4696 17.9496C49.634 17.9496 50.4611 15.1359 50.4611 12.5715C50.4611 10.0072 49.634 7.19348 46.4696 7.19348C45.4268 7.19348 44.7436 7.62087 44.1682 8.11954C42.9815 9.11675 42.586 10.8264 42.586 12.5715C42.586 14.3167 42.9815 15.9907 44.1682 17.0236Z" fill="currentcolor"/>
  <path fill-rule="evenodd" clip-rule="evenodd" d="M27.0769 7.98271C28.0892 6.30452 30.0056 5.05481 32.4642 5.05481C34.3081 5.05481 35.7545 5.73322 36.8391 6.80441C37.9962 8.05411 38.6831 9.87514 38.647 11.7676L38.6108 13.1958H28.5231C28.5231 14.4812 29.0293 15.8738 29.8971 16.7307C30.5479 17.3734 31.4156 17.7305 32.5003 17.7305C33.6212 17.7305 34.5613 17.4092 35.1398 16.8021C35.5375 16.4094 35.7906 16.0166 35.9714 15.2668H38.3215C38.1046 16.6593 37.273 17.9448 36.116 18.7303C35.1036 19.4087 33.8381 19.8015 32.5003 19.8015C30.4756 19.8015 28.8486 18.9802 27.7639 17.6948C26.5707 16.3379 25.9922 14.4812 25.9922 12.4817C25.9922 10.8035 26.2815 9.30382 27.0769 7.98271ZM32.4637 7.05438C29.8965 7.05438 28.6311 9.12536 28.5587 11.1963H36.1516C36.1516 10.1608 35.8623 9.08963 35.2838 8.33977C34.6692 7.55426 33.7291 7.05438 32.4637 7.05438Z" fill="currentcolor"/>
  <path d="M5.375 5.47729H7.79246V19.5218H5.375V5.47729Z" fill="currentcolor"/>
  <path d="M5.375 0H8.07689V2.66844H5.375V0Z" fill="currentcolor"/>
  <path d="M0.539062 0H2.95652V19.5218H0.539062V0Z" fill="currentcolor"/>
  <path fill-rule="evenodd" clip-rule="evenodd" d="M12.9128 5.47729H10.2109V8.14571H12.9128V5.47729ZM19.1681 5.47729H16.4662V8.14571H19.1681V5.47729ZM19.168 16.9943H16.4662V19.6628H19.168V16.9943ZM22.5829 5.47729H25.2848V8.14571H22.5829V5.47729ZM19.5973 11.2358H22.2991V13.9042H19.5973V11.2358ZM16.0403 11.2358H13.3384V13.9042H16.0403V11.2358Z" fill="currentcolor"/>
</svg>
