<svg width="145" height="28" viewBox="0 0 145 28" fill="none"
  xmlns="http://www.w3.org/2000/svg">
  <path d="M22.3656 11.2426H12.6216V1.90617C12.6216 1.67815 12.4369 1.49329 12.2092 1.49329L12.18 1.4943C12.055 1.50303 11.9453 1.56757 11.8756 1.66318L2.42451 14.4422L2.00753 15.0283C1.87392 15.2086 1.79492 15.4317 1.79492 15.6734C1.79492 16.272 2.27964 16.7573 2.87759 16.7573L12.6216 16.7573V26.0937C12.6216 26.3218 12.8062 26.5066 13.034 26.5066L13.0631 26.5056C13.1882 26.4969 13.2979 26.4323 13.3675 26.3367L22.8187 13.5577L23.2357 12.9716C23.3693 12.7913 23.4483 12.5682 23.4483 12.3265C23.4483 11.7279 22.9635 11.2426 22.3656 11.2426Z" fill="currentcolor"/>
  <path fill-rule="evenodd" clip-rule="evenodd" d="M11.3149 4.61881L3.48226 15.2095L3.31069 15.4506L12.6216 15.4506C13.3433 15.4506 13.9283 16.0357 13.9283 16.7573V23.3811L21.761 12.7905L21.9325 12.5493H12.6216C11.9 12.5493 11.3149 11.9643 11.3149 11.2427V4.61881ZM12.2092 0.186646C13.16 0.186646 13.9283 0.95787 13.9283 1.90619V9.93598H22.3656C23.6866 9.93598 24.7549 11.0076 24.7549 12.3265C24.7549 12.8522 24.5838 13.3418 24.2945 13.7374L23.8834 14.3152C23.8788 14.3218 23.874 14.3283 23.8693 14.3348L14.4236 27.1063C14.4225 27.1078 14.4213 27.1094 14.4202 27.1109C14.1323 27.5032 13.677 27.7726 13.1542 27.8091C13.139 27.8102 13.1238 27.811 13.1086 27.8115L13.0795 27.8125C13.0644 27.813 13.0492 27.8133 13.034 27.8133C12.0833 27.8133 11.3149 27.0421 11.3149 26.0938V18.064L2.87761 18.064C1.55665 18.064 0.488281 16.9923 0.488281 15.6734C0.488281 15.1478 0.659388 14.6582 0.94875 14.2625L1.3598 13.6847C1.36447 13.6782 1.36919 13.6717 1.37397 13.6652L10.8233 0.88863C11.1112 0.496548 11.5664 0.227324 12.089 0.190831C12.1042 0.189771 12.1194 0.188976 12.1347 0.188447L12.1638 0.187434C12.1789 0.186908 12.194 0.186646 12.2092 0.186646Z" fill="currentcolor"/>
  <path d="M35.7461 16.3598C35.8962 17.7606 37.1719 20.1619 40.8738 20.1619C44.1005 20.1619 45.6514 18.1108 45.6514 16.1097C45.6514 14.3087 44.4257 12.833 41.9994 12.3327L40.2485 11.9575C39.5731 11.8324 39.1229 11.4572 39.1229 10.8569C39.1229 10.1565 39.8233 9.63124 40.6987 9.63124C42.0995 9.63124 42.6248 10.5567 42.7248 11.2821L45.5013 10.6568C45.3512 9.33108 44.1756 7.1049 40.6737 7.1049C38.0223 7.1049 36.0713 8.93087 36.0713 11.132C36.0713 12.858 37.1468 14.2837 39.5231 14.809L41.149 15.1842C42.0995 15.3843 42.4747 15.8346 42.4747 16.3848C42.4747 17.0352 41.9494 17.6105 40.8488 17.6105C39.398 17.6105 38.6727 16.71 38.5976 15.7345L35.7461 16.3598Z" fill="currentcolor"/>
  <path d="M56.2828 19.7867H59.4595C59.4095 19.3614 59.3345 18.511 59.3345 17.5605V7.4801H56.0077V14.6339C56.0077 16.0597 55.1572 17.0602 53.6814 17.0602C52.1306 17.0602 51.4302 15.9596 51.4302 14.5839V7.4801H48.1035V15.2592C48.1035 17.9357 49.8044 20.1118 52.781 20.1118C54.0816 20.1118 55.5074 19.6116 56.1828 18.461C56.1828 18.9612 56.2328 19.5365 56.2828 19.7867Z" fill="currentcolor"/>
  <path d="M66.2116 24.5392V18.586C66.8119 19.4115 68.0625 20.0868 69.7634 20.0868C73.2403 20.0868 75.5665 17.3354 75.5665 13.6084C75.5665 9.95642 73.4904 7.20495 69.8885 7.20495C68.0375 7.20495 66.6618 8.03039 66.1115 8.9809V7.4801H62.8848V24.5392H66.2116ZM72.2898 13.6334C72.2898 15.8346 70.9391 17.1102 69.2382 17.1102C67.5373 17.1102 66.1615 15.8095 66.1615 13.6334C66.1615 11.4572 67.5373 10.1815 69.2382 10.1815C70.9391 10.1815 72.2898 11.4572 72.2898 13.6334Z" fill="currentcolor"/>
  <path d="M77.4502 16.4349C77.4502 18.3609 79.051 20.1368 81.6774 20.1368C83.5034 20.1368 84.679 19.2864 85.3044 18.3109C85.3044 18.7861 85.3544 19.4615 85.4294 19.7867H88.481C88.406 19.3614 88.331 18.486 88.331 17.8356V11.7824C88.331 9.30607 86.8802 7.1049 82.9781 7.1049C79.6763 7.1049 77.9004 9.23103 77.7003 11.1571L80.6519 11.7824C80.7519 10.7068 81.5524 9.78132 83.0031 9.78132C84.4039 9.78132 85.0792 10.5067 85.0792 11.3822C85.0792 11.8074 84.8541 12.1576 84.1537 12.2576L81.1271 12.7079C79.076 13.008 77.4502 14.2337 77.4502 16.4349ZM82.3778 17.6605C81.3022 17.6605 80.7769 16.9602 80.7769 16.2348C80.7769 15.2843 81.4523 14.809 82.3027 14.6839L85.0792 14.2587V14.809C85.0792 16.9852 83.7785 17.6605 82.3778 17.6605Z" fill="currentcolor"/>
  <path d="M94.911 19.7867V18.2859C95.5614 19.3364 96.8621 20.0868 98.563 20.0868C102.065 20.0868 104.366 17.3103 104.366 13.5834C104.366 9.9314 102.29 7.15492 98.688 7.15492C96.8621 7.15492 95.5114 7.95535 94.9611 8.83082V1.677H91.6843V19.7867H94.911ZM101.039 13.6084C101.039 15.8596 99.6886 17.1102 97.9877 17.1102C96.3118 17.1102 94.911 15.8346 94.911 13.6084C94.911 11.3572 96.3118 10.1315 97.9877 10.1315C99.6886 10.1315 101.039 11.3572 101.039 13.6084Z" fill="currentcolor"/>
  <path d="M106.25 16.4349C106.25 18.3609 107.851 20.1368 110.477 20.1368C112.303 20.1368 113.479 19.2864 114.104 18.3109C114.104 18.7861 114.154 19.4615 114.229 19.7867H117.281C117.206 19.3614 117.131 18.486 117.131 17.8356V11.7824C117.131 9.30607 115.68 7.1049 111.778 7.1049C108.476 7.1049 106.7 9.23103 106.5 11.1571L109.451 11.7824C109.551 10.7068 110.352 9.78132 111.803 9.78132C113.203 9.78132 113.879 10.5067 113.879 11.3822C113.879 11.8074 113.654 12.1576 112.953 12.2576L109.927 12.7079C107.876 13.008 106.25 14.2337 106.25 16.4349ZM111.177 17.6605C110.102 17.6605 109.576 16.9602 109.576 16.2348C109.576 15.2843 110.252 14.809 111.102 14.6839L113.879 14.2587V14.809C113.879 16.9852 112.578 17.6605 111.177 17.6605Z" fill="currentcolor"/>
  <path d="M119.433 16.3598C119.583 17.7606 120.859 20.1619 124.561 20.1619C127.788 20.1619 129.339 18.1108 129.339 16.1097C129.339 14.3087 128.113 12.833 125.687 12.3327L123.936 11.9575C123.26 11.8324 122.81 11.4572 122.81 10.8569C122.81 10.1565 123.51 9.63124 124.386 9.63124C125.787 9.63124 126.312 10.5567 126.412 11.2821L129.188 10.6568C129.038 9.33108 127.863 7.1049 124.361 7.1049C121.71 7.1049 119.758 8.93087 119.758 11.132C119.758 12.858 120.834 14.2837 123.21 14.809L124.836 15.1842C125.787 15.3843 126.162 15.8346 126.162 16.3848C126.162 17.0352 125.637 17.6105 124.536 17.6105C123.085 17.6105 122.36 16.71 122.285 15.7345L119.433 16.3598Z" fill="currentcolor"/>
  <path d="M134.391 12.2326C134.466 11.107 135.416 9.80634 137.142 9.80634C139.043 9.80634 139.844 11.007 139.894 12.2326H134.391ZM140.219 15.4343C139.819 16.5349 138.968 17.3103 137.417 17.3103C135.767 17.3103 134.391 16.1347 134.316 14.5088H143.121C143.121 14.4588 143.171 13.9586 143.171 13.4833C143.171 9.53119 140.894 7.1049 137.092 7.1049C133.941 7.1049 131.039 9.65626 131.039 13.5834C131.039 17.7356 134.016 20.1619 137.392 20.1619C140.419 20.1619 142.37 18.3859 142.995 16.2598L140.219 15.4343Z" fill="currentcolor"/>
</svg>
