<svg width="93" height="25" viewBox="0 0 93 25" fill="none"
  xmlns="http://www.w3.org/2000/svg">
  <path d="M61.9548 24.4207C61.9525 24.5815 61.8867 24.7349 61.7718 24.8475C61.6638 24.9466 61.5222 25.0011 61.3755 24.9999H36.345C36.1941 24.993 36.0519 24.9273 35.9487 24.817C35.8409 24.712 35.7757 24.5708 35.7657 24.4207C35.7353 17.317 41.8328 11.5853 48.845 11.5853C55.8572 11.5853 61.9548 17.2865 61.9548 24.3902V24.4207ZM59.6682 10.3658C60.1807 10.3658 60.6818 10.2138 61.1079 9.92905C61.5341 9.6443 61.8662 9.23956 62.0624 8.76604C62.2585 8.29251 62.3098 7.77145 62.2099 7.26876C62.1099 6.76606 61.863 6.30431 61.5006 5.94188C61.1382 5.57946 60.6764 5.33265 60.1738 5.23266C59.6711 5.13266 59.15 5.18398 58.6765 5.38013C58.2029 5.57627 57.7982 5.90842 57.5135 6.33459C57.2287 6.76075 57.0767 7.26178 57.0767 7.77433C57.0767 8.46162 57.3497 9.12077 57.8357 9.60677C58.3217 10.0928 58.9809 10.3658 59.6682 10.3658Z" fill="#11181C"/>
  <path d="M22.8692 24.4207C22.8675 24.5668 22.8134 24.7075 22.7167 24.8171C22.6135 24.9274 22.4713 24.993 22.3204 25H1.49724C1.34632 24.993 1.2041 24.9274 1.1009 24.8171C0.993099 24.7121 0.927945 24.5709 0.917969 24.4207C0.929976 24.3099 0.972156 24.2044 1.03992 24.1159L11.4972 5.73171C11.5532 5.65494 11.6262 5.5923 11.7107 5.54878C11.7868 5.51173 11.8699 5.49097 11.9546 5.4878C12.0598 5.47997 12.1653 5.50105 12.2594 5.54878C12.3334 5.59519 12.396 5.65772 12.4424 5.73171L22.7777 24.1159C22.8361 24.2069 22.8678 24.3126 22.8692 24.4207Z" fill="#11181C"/>
  <path d="M91.9256 5.1829C91.8166 5.17844 91.7093 5.21065 91.6208 5.27437L78.9683 14.7256C78.8853 14.8026 78.7767 14.846 78.6634 14.8475C78.5641 14.8499 78.4671 14.8176 78.3891 14.7561L65.7976 5.30485C65.7175 5.24733 65.6218 5.21544 65.5232 5.21339C65.3822 5.22494 65.2512 5.29047 65.1574 5.39632C65.1046 5.45356 65.0638 5.52087 65.0377 5.5942C65.0115 5.66754 65.0003 5.74541 65.0049 5.82315V24.4207C65.0027 24.4936 65.0151 24.5662 65.0412 24.6342C65.0674 24.7023 65.1069 24.7644 65.1574 24.817C65.2512 24.9229 65.3822 24.9884 65.5232 25H91.9256C92.0666 24.9884 92.1977 24.9229 92.2915 24.817C92.3906 24.709 92.4451 24.5674 92.4439 24.4207V5.76217C92.4451 5.61552 92.3906 5.47388 92.2915 5.36583C92.1977 5.25999 92.0666 5.19445 91.9256 5.1829Z" fill="#11181C"/>
  <path d="M36.0416 4.87803H32.9929C32.912 4.87803 32.8345 4.84591 32.7773 4.78873C32.7201 4.73156 32.688 4.65401 32.688 4.57315V0.609736C32.7044 0.529265 32.7044 0.446305 32.688 0.365834C32.6374 0.248734 32.5513 0.15045 32.442 0.0848199C32.3326 0.0191893 32.2054 -0.0104831 32.0782 -2.01599e-05H26.2855C26.1238 -2.01599e-05 25.9687 0.0642218 25.8544 0.178573C25.74 0.292925 25.6758 0.448019 25.6758 0.609736V24.3902C25.6836 24.5466 25.7513 24.694 25.8648 24.8018C25.9783 24.9096 26.129 24.9697 26.2855 24.9695H32.0782C32.2348 24.9697 32.3854 24.9096 32.499 24.8018C32.6125 24.694 32.6801 24.5466 32.688 24.3902V12.4695C32.6798 12.4293 32.6798 12.3878 32.688 12.3475C32.7114 12.294 32.7497 12.2482 32.7983 12.2158C32.847 12.1833 32.9039 12.1656 32.9624 12.1646H36.0416C36.1982 12.1648 36.3489 12.1048 36.4624 11.9969C36.5759 11.8891 36.6436 11.7417 36.6514 11.5853V5.48779C36.6514 5.32607 36.5872 5.17097 36.4728 5.05662C36.3584 4.94227 36.2034 4.87803 36.0416 4.87803Z" fill="currentcolor"/>
</svg>
