<svg width="121" height="30" viewBox="0 0 121 30" fill="none"
  xmlns="http://www.w3.org/2000/svg">
  <path fill-rule="evenodd" clip-rule="evenodd" d="M47.8785 7.90001C46.986 7.8977 46.1288 8.24806 45.4934 8.87479C44.858 9.50153 44.4959 10.3539 44.486 11.2463C44.476 12.1388 44.819 12.999 45.4403 13.6397C46.0616 14.2804 46.9108 14.6498 47.8032 14.6673H47.9432C48.8301 14.6434 49.6722 14.2721 50.2881 13.6333C50.9039 12.9946 51.2443 12.1395 51.2358 11.2522C51.2273 10.365 50.8707 9.51654 50.2427 8.88967C49.6148 8.26279 48.7658 7.90763 47.8785 7.90067V7.90001ZM87.5645 11.5493C87.563 12.914 87.2211 14.2568 86.5698 15.456H79.6412V11.524H83.4858C83.4889 10.4997 83.0864 9.51579 82.3665 8.78719C81.6465 8.05859 80.6674 7.64449 79.6432 7.63534C77.5252 7.63534 75.7998 9.392 75.7998 11.5487C75.7998 13.706 77.5252 15.4707 79.6365 15.4707V19.6273C75.2745 19.6273 71.7212 16.004 71.7212 11.5493C71.7212 7.094 75.2745 3.47067 79.6432 3.47067C84.0118 3.47067 87.5645 7.094 87.5645 11.5493ZM96.1918 8.58467H92.7831V11.8173C92.7854 12.7151 93.1436 13.5753 93.779 14.2095C94.4144 14.8437 95.2754 15.2001 96.1731 15.2007V19.314C92.0572 19.314 88.7071 16.0007 88.6625 11.8847V0.647339H92.7818V4.52734H96.1918V8.58467ZM98.5452 19V4.41201H102.78V19H98.5452ZM53.0545 16.716C54.411 18.0078 55.2357 19.7599 55.3668 21.6285C55.4979 23.4971 54.9258 25.3472 53.763 26.8157C52.6001 28.2842 50.9304 29.2651 49.0816 29.5659C47.2327 29.8667 45.3382 29.4656 43.7698 28.4413L46.0318 25C46.4721 25.2903 46.9742 25.4737 47.4979 25.5358C48.0216 25.5978 48.5526 25.5367 49.0485 25.3574C49.5445 25.1781 49.9917 24.8854 50.3547 24.5028C50.7176 24.1201 50.9862 23.658 51.139 23.1533C51.2919 22.6485 51.3248 22.1151 51.2352 21.5954C51.1455 21.0756 50.9358 20.584 50.6226 20.1597C50.3095 19.7353 49.9016 19.3899 49.4315 19.151C48.9613 18.912 48.4419 18.7861 47.9145 18.7833H47.8345C47.6199 18.7876 47.4061 18.8112 47.1958 18.854C46.7593 18.9436 46.3449 19.1186 45.9763 19.3691C45.6078 19.6195 45.2924 19.9405 45.0485 20.3133L41.6038 18.0587C41.9216 17.5745 42.2943 17.1286 42.7145 16.73C41.6177 15.6961 40.8565 14.3569 40.5293 12.8855C40.2021 11.4142 40.3241 9.87854 40.8794 8.47729C41.4346 7.07604 42.3977 5.87371 43.6439 5.02588C44.8901 4.17806 46.3621 3.72379 47.8694 3.72184C49.3767 3.7199 50.8498 4.17038 52.0982 5.01499C53.3466 5.85959 54.3128 7.05944 54.8717 8.45926C55.4306 9.85907 55.5565 11.3944 55.2331 12.8666C54.9097 14.3387 54.1519 15.68 53.0578 16.7167H53.0545V16.716ZM35.1725 19.9413H31.3285C26.9598 19.9413 23.4072 16.318 23.4072 11.8627C23.4072 7.408 26.9605 3.78467 31.3285 3.78467C35.6972 3.78467 39.2505 7.408 39.2505 11.8627V15.7847H35.1718V11.8627C35.1805 10.8344 34.7806 9.84469 34.0599 9.11113C33.3392 8.37758 32.3568 7.96018 31.3285 7.95067C29.2138 7.95067 27.4932 9.70601 27.4932 11.8627C27.4932 14.0193 29.2185 15.7753 31.3285 15.7753H35.1718V19.9413H35.1725ZM119.644 9.866C120.043 11.4757 119.914 13.1708 119.278 14.7021C118.642 16.2334 117.531 17.5203 116.109 18.3737C114.687 19.2272 113.029 19.6021 111.379 19.4435C109.728 19.285 108.172 18.6012 106.938 17.4927L109.498 14.6267C109.94 15.0229 110.466 15.3134 111.037 15.4761C111.608 15.6388 112.208 15.6693 112.792 15.5655C113.377 15.4617 113.93 15.2262 114.409 14.8768C114.889 14.5275 115.283 14.0735 115.561 13.5493H104.581C104.183 11.9396 104.311 10.2446 104.947 8.71314C105.584 7.18173 106.694 5.89462 108.116 5.04081C109.537 4.18699 111.195 3.81146 112.846 3.96934C114.497 4.12722 116.053 4.8102 117.287 5.918L114.722 8.78467C114.281 8.38804 113.754 8.09735 113.183 7.93469C112.612 7.77202 112.011 7.74165 111.426 7.84589C110.842 7.95013 110.289 8.18624 109.809 8.53627C109.329 8.88631 108.935 9.34107 108.658 9.866H119.644ZM61.0545 8.33334V4.04334C62.157 3.74456 63.3134 3.70292 64.4345 3.92163C65.5556 4.14035 66.6115 4.61357 67.5209 5.30483C68.4303 5.99609 69.1687 6.88692 69.6794 7.90866C70.1901 8.9304 70.4594 10.0558 70.4665 11.198V19.1567H66.3738V11.2653C66.3742 10.3714 66.0199 9.51372 65.3888 8.88058C64.7576 8.24744 63.9011 7.89048 63.0072 7.88801C62.3714 7.88611 61.7484 8.06633 61.2118 8.40734V19H56.9765V8.33334H61.0545ZM13.1345 8.45734C13.4885 9.328 13.6745 10.2573 13.6825 11.1973V19.1573H9.58916V11.2647C9.58951 10.3706 9.23517 9.51284 8.60388 8.87968C7.9726 8.24651 7.11592 7.88963 6.22182 7.88734C5.52158 7.886 4.83876 8.10552 4.27049 8.51467V19H0.0351562V8.33334H4.27049V4.04334C5.99777 3.57613 7.83546 3.74567 9.4481 4.52103C11.0607 5.29638 12.3408 6.62583 13.0545 8.26667V4.04334C14.157 3.74442 15.3134 3.70268 16.4346 3.92134C17.5558 4.13999 18.6118 4.61321 19.5212 5.30449C20.4306 5.99578 21.169 6.88667 21.6797 7.90848C22.1904 8.93029 22.4595 10.0557 22.4665 11.198V19.1567H18.3738V11.2653C18.3744 10.3711 18.02 9.51313 17.3885 8.87991C16.757 8.24669 15.9001 7.88995 15.0058 7.88801C14.3392 7.88667 13.6878 8.08534 13.1345 8.45734Z" fill="currentcolor"/>
  <path d="M35.1719 19.9414H39.3379V24.1074H35.1719V19.9414ZM51.7992 0.333374H56.1912V4.72537H51.7992V0.333374Z" fill="currentcolor"/>
</svg>
