<svg width="132" height="30" viewBox="0 0 132 30" fill="none"
  xmlns="http://www.w3.org/2000/svg">

  <path d="M14.0598 4L10.58 6L7.1002 8L3.62041 10V22L7.1002 20L10.58 18V14L7.1002 16V12L10.58 10L14.0598 8V20L10.58 22L7.1002 24L3.62041 26L0.140625 28L3.62041 30L7.1002 28L10.58 26L14.0598 24L17.5396 22V2L14.0598 0V4ZM35.2574 8.364H38.2668V20.388C38.2668 22.34 37.657 23.828 36.4413 24.856C35.2086 25.8903 33.643 26.4391 32.0367 26.4C30.8648 26.428 29.7009 26.16 28.6446 25.62C27.6749 25.1056 26.888 24.302 26.3925 23.32L29.0073 21.72C29.6132 22.904 30.6536 23.496 32.1324 23.496C33.105 23.496 33.8663 23.228 34.4243 22.688C34.9824 22.148 35.2614 21.38 35.2614 20.384V19.016C34.3526 20.296 33.081 20.936 31.4428 20.936C29.8444 20.976 28.3058 20.288 27.2176 19.056C26.0796 17.8021 25.4684 16.1554 25.5116 14.46C25.4757 12.7727 26.0897 11.1365 27.2256 9.892C27.7486 9.28717 28.397 8.80443 29.1255 8.4776C29.854 8.15077 30.6449 7.98777 31.4428 8C33.0771 8 34.3526 8.64 35.2574 9.92V8.364ZM29.5175 16.952C30.1613 17.5767 31.0217 17.9259 31.9171 17.9259C32.8126 17.9259 33.673 17.5767 34.3167 16.952C34.631 16.6213 34.8762 16.2308 35.0378 15.8035C35.1993 15.3762 35.274 14.9207 35.2574 14.464C35.2731 14.0113 35.1983 13.5601 35.0374 13.1369C34.8766 12.7137 34.6329 12.3271 34.3207 12C33.6772 11.3765 32.8176 11.0281 31.9231 11.0281C31.0286 11.0281 30.169 11.3765 29.5255 12C29.2119 12.3265 28.9667 12.7128 28.8045 13.136C28.6422 13.5592 28.5662 14.0108 28.5808 14.464C28.5648 14.921 28.6401 15.3766 28.8023 15.8039C28.9646 16.2312 29.2105 16.6216 29.5255 16.952H29.5175ZM43.3689 10.332C43.6244 9.59632 44.1333 8.9764 44.8039 8.584C45.4815 8.192 46.2548 7.992 47.0361 8V11.492C46.1439 11.3667 45.237 11.576 44.489 12.08C43.7396 12.58 43.365 13.416 43.365 14.584V20.4H40.2599V8.252H43.3689V10.332ZM57.5193 8.348H60.5885V20.452H57.5193V19.028C56.5945 20.208 55.2991 20.8 53.625 20.8C52.8512 20.805 52.0855 20.6421 51.3803 20.3224C50.6751 20.0027 50.0471 19.5339 49.5393 18.948C48.4035 17.7122 47.7929 16.0806 47.8373 14.4C47.7934 12.72 48.4033 11.08 49.5393 9.852C50.0471 9.26609 50.6751 8.79725 51.3803 8.4776C52.0855 8.15794 52.8512 7.99502 53.625 8C55.2991 8 56.5945 8.592 57.5193 9.772V8.348ZM51.8352 16.864C52.1412 17.18 52.5094 17.4285 52.9163 17.5938C53.3233 17.7591 53.7601 17.8375 54.1989 17.824C55.0878 17.848 55.9488 17.504 56.5746 16.864C56.8897 16.5386 57.1359 16.1525 57.2982 15.729C57.4606 15.3055 57.5358 14.8534 57.5193 14.4C57.5358 13.9466 57.4606 13.4945 57.2982 13.071C57.1359 12.6475 56.8897 12.2614 56.5746 11.936C56.2658 11.6205 55.8954 11.3724 55.4866 11.2072C55.0778 11.042 54.6395 10.9633 54.1989 10.976C53.7601 10.9625 53.3233 11.0409 52.9163 11.2062C52.5094 11.3715 52.1412 11.62 51.8352 11.936C51.5232 12.2631 51.2799 12.6497 51.1197 13.073C50.9594 13.4963 50.8856 13.9475 50.9025 14.4C50.8856 14.8525 50.9594 15.3037 51.1197 15.727C51.2799 16.1503 51.5232 16.5369 51.8352 16.864ZM69.5172 8C71.0877 7.984 72.5864 8.672 73.6308 9.888C74.7693 11.1541 75.3787 12.8112 75.3328 14.516C75.3798 16.2221 74.7703 17.8809 73.6308 19.148C73.124 19.7437 72.4936 20.221 71.7837 20.5464C71.0738 20.8718 70.3016 21.0376 69.5212 21.032C67.8471 21.032 66.5596 20.432 65.6508 19.232V25.6H62.5815V8.356H65.6508V9.804C66.5596 8.604 67.8471 8.004 69.5172 8.004V8ZM66.5835 17.024C66.8868 17.3445 67.2542 17.5971 67.6615 17.7652C68.0688 17.9334 68.5069 18.0134 68.9472 18C69.3891 18.0126 69.8288 17.9323 70.2379 17.7642C70.6471 17.5961 71.0166 17.344 71.3229 17.024C71.6389 16.6902 71.8852 16.2964 72.0474 15.8657C72.2097 15.435 72.2845 14.9761 72.2675 14.516C72.2845 14.0559 72.2097 13.597 72.0474 13.1663C71.8852 12.7356 71.6389 12.3418 71.3229 12.008C71.0166 11.688 70.6471 11.4359 70.2379 11.2678C69.8288 11.0997 69.3891 11.0194 68.9472 11.032C68.507 11.0188 68.0689 11.0989 67.6616 11.2671C67.2544 11.4353 66.887 11.6877 66.5835 12.008C66.2707 12.3436 66.0273 12.7379 65.8672 13.1684C65.7071 13.5989 65.6335 14.0569 65.6508 14.516C65.6335 14.9751 65.7071 15.4331 65.8672 15.8636C66.0273 16.2941 66.2707 16.6884 66.5835 17.024ZM84.2136 7.86C85.4732 7.82 86.6889 8.324 87.5619 9.244C88.4468 10.168 88.8892 11.444 88.8892 13.072V20.8H85.7004V13.468C85.7004 12.628 85.4772 11.988 85.0308 11.544C84.7935 11.3173 84.513 11.1413 84.2061 11.0265C83.8991 10.9116 83.5722 10.8605 83.245 10.876C82.8781 10.8591 82.5118 10.9198 82.1698 11.0541C81.8279 11.1885 81.5179 11.3936 81.26 11.656C80.7657 12.176 80.5146 12.956 80.5146 14V20.8H77.3298V3.2H80.5186V9.62C81.2959 8.448 82.5275 7.86 84.2136 7.86ZM97.1602 20.8C95.3824 20.84 93.6645 20.176 92.4049 18.968C91.7864 18.382 91.2961 17.6733 90.9654 16.8868C90.6346 16.1004 90.4705 15.2535 90.4836 14.4C90.5013 13.2574 90.8234 12.1404 91.4163 11.1649C92.0093 10.1893 92.8516 9.39074 93.8558 8.852C94.8804 8.29145 96.0292 7.99907 97.1961 8.00187C98.3631 8.00467 99.5105 8.30255 100.532 8.868C101.484 9.39751 102.247 10.2131 102.713 11.2L101.346 11.956C101 11.2139 100.427 10.6017 99.7112 10.208C98.933 9.76921 98.0527 9.5456 97.1602 9.56C96.5051 9.54489 95.8537 9.6617 95.2444 9.90354C94.635 10.1454 94.0802 10.5073 93.6126 10.968C93.1462 11.4071 92.7766 11.9393 92.5274 12.5304C92.2782 13.1214 92.155 13.7583 92.1657 14.4C92.155 15.0417 92.2782 15.6786 92.5274 16.2696C92.7766 16.8607 93.1462 17.3929 93.6126 17.832C94.6929 18.912 96.2434 19.432 97.786 19.232C99.3326 19.04 100.688 18.152 101.445 16.844L102.84 17.624C102.312 18.6056 101.51 19.4117 100.532 19.944C99.5015 20.5184 98.3393 20.8134 97.1602 20.8ZM117.019 8C118.254 7.952 119.454 8.428 120.319 9.312C121.156 10.184 121.575 11.36 121.575 12.844V20.4H119.96V12.844C119.96 11.796 119.689 10.984 119.143 10.412C118.865 10.1244 118.53 9.89907 118.159 9.75084C117.788 9.60262 117.39 9.53486 116.991 9.552C116.536 9.53454 116.082 9.61512 115.66 9.7883C115.239 9.96148 114.859 10.2233 114.547 10.556C113.925 11.228 113.614 12.272 113.614 13.692V20.4H111.996V12.844C111.996 11.78 111.741 10.964 111.231 10.4C110.967 10.1158 110.644 9.89278 110.286 9.74634C109.927 9.5999 109.541 9.53358 109.154 9.552C108.693 9.54286 108.235 9.62825 107.808 9.80295C107.381 9.97765 106.994 10.238 106.671 10.568C105.993 11.248 105.65 12.288 105.65 13.688V20.4H104.036V8.292H105.65V10.06C106.03 9.41276 106.577 8.88001 107.233 8.51758C107.888 8.15515 108.629 7.97638 109.377 8C111.131 8 112.367 8.732 113.08 10.2C113.957 8.732 115.269 8 117.022 8H117.019ZM124.086 11.46C124.084 11.7263 124.155 11.988 124.291 12.217C124.426 12.446 124.621 12.6337 124.855 12.76C125.433 13.112 126.067 13.376 126.728 13.544L128.925 14.144C129.638 14.336 130.28 14.712 130.782 15.232C131.039 15.5068 131.238 15.8302 131.368 16.1833C131.498 16.5363 131.556 16.9119 131.54 17.288C131.546 17.7851 131.431 18.2763 131.205 18.7184C130.978 19.1605 130.647 19.5401 130.24 19.824C129.379 20.476 128.267 20.8 126.9 20.796C125.8 20.828 124.716 20.556 123.771 20.012C122.966 19.5519 122.335 18.8394 121.973 17.984L123.408 17.184C123.648 17.8202 124.104 18.3513 124.696 18.684C125.361 19.064 126.131 19.256 126.904 19.236C127.633 19.264 128.355 19.1 128.996 18.764C129.262 18.624 129.483 18.4107 129.632 18.1492C129.781 17.8877 129.852 17.5889 129.838 17.288C129.85 16.752 129.559 16.248 129.08 15.972C128.501 15.6171 127.872 15.3515 127.215 15.184L125.014 14.584C124.305 14.392 123.659 14.024 123.149 13.508C122.891 13.2414 122.69 12.9246 122.559 12.5773C122.427 12.2299 122.367 11.8593 122.384 11.488C122.382 11.004 122.494 10.5265 122.711 10.0942C122.928 9.66186 123.243 9.28698 123.631 9C124.528 8.31057 125.636 7.95688 126.764 8C127.721 7.984 128.67 8.216 129.499 8.68C130.249 9.09274 130.856 9.72656 131.237 10.496L129.822 11.276C129.331 10.136 128.307 9.564 126.764 9.564C126.101 9.54531 125.446 9.71591 124.875 10.056C124.628 10.1959 124.424 10.4004 124.285 10.6477C124.145 10.895 124.075 11.1758 124.082 11.46H124.086Z" fill="currentcolor"/>
</svg>
