<svg width="132" height="20" viewBox="0 0 132 20" fill="none"
  xmlns="http://www.w3.org/2000/svg">
  <path d="M0.892578 0.228516V19.4285H4.51315V12.4068H8.79201C12.3303 12.4068 14.936 9.99309 14.936 6.31766C14.936 2.64223 12.4126 0.228516 8.79201 0.228516H0.892578ZM4.51315 3.51994H8.43543C10.1634 3.51994 11.3154 4.61709 11.3154 6.31766C11.3154 8.01823 10.1634 9.11537 8.43543 9.11537H4.51315V3.51994ZM20.2577 0.228516H16.8017V19.4285H20.2577V0.228516ZM22.8989 8.9508L25.6966 10.7611C26.5469 9.3348 27.6714 8.40223 29.4817 8.40223C31.3469 8.40223 32.3343 9.41709 32.3343 10.7062V11.0354L27.1229 11.6114C24.5171 11.8857 22.6246 13.3942 22.6246 15.5611C22.6246 18.1668 24.6543 19.8125 27.7263 19.8125C30.6063 19.8125 31.5663 18.4137 32.0051 17.5085H32.3891V19.4285H35.7903V10.7337C35.7903 7.55195 33.3766 5.43994 29.6737 5.43994C26.3549 5.43994 24.5171 6.92109 22.8989 8.9508ZM26.2451 15.3691C26.2451 14.5737 26.876 14.1074 28.1651 13.9428L32.3343 13.4491V13.6685C32.3343 15.5337 30.9903 16.9599 28.5766 16.9599C27.0406 16.9599 26.2451 16.3017 26.2451 15.3691ZM37.8629 12.6262C37.8629 16.8502 40.9897 19.8125 44.9394 19.8125C48.752 19.8125 51.1383 17.7005 51.7966 14.6011L48.3954 13.7508C48.0389 15.5337 47.0789 16.7405 44.9943 16.7405C42.7726 16.7405 41.3189 15.0948 41.3189 12.6262C41.3189 10.1577 42.9097 8.51194 44.9943 8.51194C47.0789 8.51194 48.1486 9.88337 48.3954 11.5291L51.7966 10.6514C51.0834 7.55194 48.7246 5.43994 44.9394 5.43994C40.9897 5.43994 37.8629 8.40223 37.8629 12.6262ZM53.104 12.5165C53.104 16.7405 56.0389 19.8125 60.0983 19.8125C63.7463 19.8125 65.3372 17.8925 66.2697 16.4662L63.4446 14.8205C62.9783 15.7805 61.9634 16.8502 60.0434 16.8502C58.0686 16.8502 56.7794 15.4514 56.6423 13.6411H66.544V12.2971C66.544 8.21023 63.8834 5.43994 59.9337 5.43994C55.9291 5.43994 53.104 8.40223 53.104 12.5165ZM56.6697 11.2274C56.944 9.55423 57.9589 8.40223 59.9063 8.40223C61.6891 8.40223 62.7863 9.49937 63.0331 11.2274H56.6697ZM68.6857 5.82395V19.4285H72.1417V11.1451C72.1417 9.44452 73.184 8.62166 74.6103 8.62166C75.9269 8.62166 76.832 9.3348 76.832 10.5965V19.4285H80.288V11.1451C80.288 9.44452 81.3303 8.62166 82.7566 8.62166C84.0732 8.62166 84.9783 9.3348 84.9783 10.5965V19.4285H88.4343V10.3222C88.4343 7.49709 86.432 5.60452 83.936 5.60452C81.7691 5.60452 80.672 6.6468 80.0686 7.90852H79.6846C79.1086 6.53709 77.8194 5.60452 76.064 5.60452C74.1714 5.60452 73.0469 6.53709 72.4709 7.85366H72.0869V5.82395H68.6857ZM90.908 8.9508L93.7057 10.7611C94.556 9.3348 95.6806 8.40223 97.4909 8.40223C99.356 8.40223 100.343 9.41709 100.343 10.7062V11.0354L95.132 11.6114C92.5263 11.8857 90.6337 13.3942 90.6337 15.5611C90.6337 18.1668 92.6634 19.8125 95.7354 19.8125C98.6154 19.8125 99.5754 18.4137 100.014 17.5085H100.398V19.4285H103.799V10.7337C103.799 7.55195 101.386 5.43994 97.6829 5.43994C94.364 5.43994 92.5263 6.92109 90.908 8.9508ZM94.2543 15.3691C94.2543 14.5737 94.8851 14.1074 96.1743 13.9428L100.343 13.4491V13.6685C100.343 15.5337 98.9994 16.9599 96.5857 16.9599C95.0497 16.9599 94.2543 16.3017 94.2543 15.3691ZM110.096 5.82395H106.695V19.4285H110.151V11.7485C110.151 9.82852 111.413 8.89594 113.168 8.89594H115.198V5.76909H113.881C112.153 5.76909 111.001 6.29023 110.48 7.7988H110.096V5.82395ZM131.107 5.82395H126.279L120.739 10.4868H120.41V0.228516H116.954V19.4285H120.41V14.7382L122.494 13.0102L126.883 19.4285H130.887L124.935 10.9531L131.107 5.82395Z" fill="currentcolor"/>
</svg>
