<svg width="168" height="28" viewBox="0 0 168 28" fill="none"
  xmlns="http://www.w3.org/2000/svg">
  <path d="M41.9269 21.5294C45.6052 21.5294 48.1716 19.4201 48.5249 16.0743H45.4701C45.1376 17.8511 43.7972 18.9422 41.9373 18.9422C39.537 18.9422 38.0304 16.9679 38.0304 13.7676C38.0304 10.6089 39.5578 8.62427 41.9269 8.62427C43.7556 8.62427 45.1687 9.82958 45.4597 11.6687H48.5145C48.2755 8.31255 45.5324 6.02661 41.9269 6.02661C37.5836 6.02661 34.8301 8.94638 34.8301 13.778C34.8301 18.62 37.5628 21.5294 41.9269 21.5294Z" fill="currentcolor"/>
  <path d="M55.3204 21.519C58.687 21.519 60.8378 19.3682 60.8378 15.7003C60.8378 12.0843 58.6558 9.90231 55.3204 9.90231C51.985 9.90231 49.803 12.0947 49.803 15.7003C49.803 19.3578 51.9538 21.519 55.3204 21.519ZM55.3204 19.2019C53.8241 19.2019 52.8786 17.9447 52.8786 15.7107C52.8786 13.4975 53.8449 12.2194 55.3204 12.2194C56.7959 12.2194 57.7518 13.4975 57.7518 15.7107C57.7518 17.9447 56.8062 19.2019 55.3204 19.2019Z" fill="currentcolor"/>
  <path d="M66.5423 21.4567C68.184 21.4567 69.4724 20.5943 70.0127 19.3682H70.0647V21.28H73.0572V6.28638H70.0231V12.0532H69.9608C69.4205 10.8167 68.1736 9.96466 66.563 9.96466C63.768 9.96466 62.0016 12.1571 62.0016 15.6899C62.0016 19.2539 63.7576 21.4567 66.5423 21.4567ZM67.5709 12.3961C69.0776 12.3961 70.0439 13.6845 70.0439 15.7107C70.0439 17.7472 69.0776 19.0149 67.5709 19.0149C66.0435 19.0149 65.1084 17.7576 65.1084 15.7107C65.1084 13.6741 66.0435 12.3961 67.5709 12.3961Z" fill="currentcolor"/>
  <path d="M82.4607 17.8719C82.1802 18.724 81.3281 19.2747 80.2163 19.2747C78.6681 19.2747 77.6602 18.1836 77.6602 16.5939V16.4068H85.3389V15.4821C85.3389 12.0947 83.292 9.90231 80.0501 9.90231C76.7562 9.90231 74.6781 12.209 74.6781 15.7626C74.6781 19.3266 76.7355 21.519 80.1644 21.519C82.9179 21.519 84.9129 20.054 85.2454 17.8719H82.4607ZM80.0812 12.1467C81.432 12.1467 82.3568 13.1234 82.4191 14.5469H77.6914C77.7953 13.1546 78.7513 12.1467 80.0812 12.1467Z" fill="currentcolor"/>
  <path d="M86.6273 17.1654C86.7728 19.8358 89.0276 21.5294 92.4149 21.5294C95.9062 21.5294 98.1298 19.7526 98.1298 16.9264C98.1298 14.7443 96.8413 13.4871 93.7034 12.8221L92.0616 12.4792C90.1186 12.0636 89.3497 11.3362 89.3497 10.2452C89.3497 8.87364 90.6381 8.02161 92.3941 8.02161C94.2125 8.02161 95.449 8.94638 95.5945 10.453H97.8492C97.7765 7.83458 95.6048 6.037 92.4253 6.037C89.2354 6.037 86.9806 7.80341 86.9806 10.3699C86.9806 12.5311 88.3418 13.9235 91.3447 14.5573L92.976 14.9002C94.9814 15.3366 95.7711 16.064 95.7711 17.2277C95.7711 18.5681 94.4099 19.5448 92.5084 19.5448C90.5134 19.5448 89.1003 18.6512 88.8925 17.1654H86.6273Z" fill="currentcolor"/>
  <path d="M103.159 21.4671C104.593 21.4671 105.975 20.6982 106.609 19.4825H106.66V21.28H108.811V13.7468C108.811 11.5544 107.118 10.1517 104.468 10.1517C101.766 10.1517 100.083 11.6064 99.9585 13.5806H102.078C102.276 12.6039 103.086 11.9804 104.385 11.9804C105.756 11.9804 106.577 12.7078 106.577 13.9235V14.7651L103.585 14.9418C100.987 15.0872 99.5221 16.2614 99.5221 18.1733C99.5221 20.1371 101.018 21.4671 103.159 21.4671ZM103.782 19.6903C102.577 19.6903 101.787 19.0668 101.787 18.1109C101.787 17.1758 102.546 16.5835 103.886 16.49L106.577 16.3237V17.1861C106.577 18.6097 105.351 19.6903 103.782 19.6903Z" fill="currentcolor"/>
  <path d="M110.993 21.28H113.238V14.9106C113.238 13.2169 114.256 12.0947 115.835 12.0947C117.394 12.0947 118.163 12.9987 118.163 14.6404V21.28H120.418V14.204C120.418 11.6999 119.036 10.1621 116.625 10.1621C114.942 10.1621 113.778 10.931 113.186 12.1779H113.134V10.3491H110.993V21.28Z" fill="currentcolor"/>
  <path d="M126.694 21.4671C128.283 21.4671 129.53 20.667 130.174 19.4201H130.216V21.28H132.398V6.28638H130.143V12.1675H130.102C129.489 10.9622 128.242 10.1725 126.673 10.1725C123.93 10.1725 122.101 12.3649 122.101 15.8146C122.101 19.2643 123.93 21.4671 126.694 21.4671ZM127.286 12.0636C129.011 12.0636 130.164 13.5494 130.164 15.8146C130.164 18.1005 129.011 19.5656 127.286 19.5656C125.509 19.5656 124.397 18.1213 124.397 15.8146C124.397 13.5183 125.509 12.0636 127.286 12.0636Z" fill="currentcolor"/>
  <path d="M140.524 21.4671C143.298 21.4671 145.085 19.285 145.085 15.8146C145.085 12.3545 143.287 10.1725 140.534 10.1725C138.986 10.1725 137.739 10.9414 137.084 12.209H137.032V6.28638H134.788V21.28H136.97V19.4201H137.011C137.687 20.6878 138.923 21.4671 140.524 21.4671ZM139.921 12.0636C141.687 12.0636 142.778 13.5183 142.778 15.8146C142.778 18.1317 141.687 19.5656 139.921 19.5656C138.217 19.5656 137.022 18.0901 137.022 15.8146C137.022 13.5598 138.217 12.0636 139.921 12.0636Z" fill="currentcolor"/>
  <path d="M151.538 21.4879C154.665 21.4879 156.723 19.337 156.723 15.8146C156.723 12.3025 154.655 10.1517 151.538 10.1517C148.42 10.1517 146.353 12.3025 146.353 15.8146C146.353 19.337 148.41 21.4879 151.538 21.4879ZM151.538 19.6383C149.782 19.6383 148.639 18.246 148.639 15.8146C148.639 13.3936 149.782 12.0012 151.538 12.0012C153.294 12.0012 154.437 13.3936 154.437 15.8146C154.437 18.246 153.304 19.6383 151.538 19.6383Z" fill="currentcolor"/>
  <path d="M162.323 17.2589L164.734 21.28H167.207L163.663 15.7522L167.248 10.3491H164.775L162.417 14.3079H162.375L159.985 10.3491H157.471L161.024 15.825L157.419 21.28H159.85L162.271 17.2589H162.323Z" fill="currentcolor"/>
  <g clip-path="url(#clip0)">
    <path fill-rule="evenodd" clip-rule="evenodd" d="M12.8789 14.1305V26.6414C13.0967 26.6414 13.2399 26.5941 13.4354 26.4824L23.4533 20.758C23.8487 20.5313 24.01 20.1803 24.01 19.7244V8.11648C24.01 7.88777 23.9619 7.75095 23.8508 7.55994L13.1993 13.5783C13.0012 13.6915 12.8789 13.9023 12.8789 14.1305ZM18.4443 21.3145C18.4443 21.6325 18.3251 21.7916 18.0468 21.9506L14.7075 23.8587C14.4691 24.0177 14.151 23.9383 14.151 23.6202V15.113C14.151 14.8854 14.3513 14.5905 14.5485 14.4769L22.1812 10.1041C22.3932 9.98213 22.5787 10.1775 22.5787 10.4222V14.9541C22.5787 15.1889 22.4679 15.4 22.2606 15.5106L18.8419 17.3392C18.6346 17.4498 18.4443 17.6608 18.4443 17.8957V21.3145Z" fill="currentcolor"/>
    <path fill-rule="evenodd" clip-rule="evenodd" d="M1.74805 19.7243V8.11642C1.74805 7.65992 1.98775 7.22983 2.38409 7.00333L12.0838 1.51741C12.2928 1.40666 12.6404 1.3584 12.8789 1.3584C13.1175 1.3584 13.4854 1.41747 13.674 1.51741L23.2942 7.00333C23.4845 7.1158 23.7431 7.37486 23.8508 7.55988L13.1969 13.6024C12.9988 13.7156 12.8789 13.9306 12.8789 14.1589V26.6414C12.6611 26.6414 12.4384 26.594 12.2429 26.4824L2.4636 20.8374C2.06725 20.6109 1.74805 20.1808 1.74805 19.7243ZM3.17916 10.4221V14.954C3.17916 15.2719 3.25867 15.431 3.57669 15.59L6.91595 17.4982C7.23397 17.6572 7.31348 17.8957 7.31348 18.1342V21.3145C7.31348 21.6324 7.39299 21.7915 7.71102 21.9505L11.0503 23.8586C11.3683 24.0177 11.6068 23.9382 11.6068 23.6201V15.113C11.6068 14.8745 11.5273 14.6359 11.2093 14.477L3.7357 10.1836C3.49718 10.0246 3.17916 10.1041 3.17916 10.4221ZM16.2182 5.01568L13.2764 6.68531C13.038 6.84432 12.7199 6.84432 12.4814 6.68531L9.53965 5.01568C9.34601 4.90623 9.09757 4.90679 8.9036 5.01568L5.24632 7.08284C4.9283 7.24186 4.9283 7.55988 5.24632 7.71889L12.5608 11.9327C12.7566 12.0448 13.0012 12.0448 13.1969 11.9327L20.5115 7.71889C20.7501 7.55988 20.8296 7.24186 20.5115 7.08284L16.8542 5.01568C16.6603 4.90679 16.4118 4.90623 16.2182 5.01568Z" fill="currentcolor"/>
  </g>
</svg>
