<svg width="109" height="25" viewBox="0 0 109 25" fill="none"
  xmlns="http://www.w3.org/2000/svg">
  <path d="M53.6527 6.15385C49.453 6.15385 46.4249 8.92308 46.4249 13.0769C46.4249 17.2308 49.8334 20 54.0331 20C56.5704 20 58.8072 18.9846 60.1919 17.2731L57.2818 15.5731C56.5133 16.4231 55.3455 16.9192 54.0331 16.9192C52.2109 16.9192 50.6627 15.9577 50.0882 14.4192H60.7473C60.831 13.9885 60.8804 13.5423 60.8804 13.0731C60.8804 8.92308 57.8524 6.15385 53.6527 6.15385ZM50.054 11.7308C50.5295 10.1962 51.8305 9.23077 53.6489 9.23077C55.471 9.23077 56.772 10.1962 57.2437 11.7308H50.054ZM94.6149 6.15385C90.4152 6.15385 87.3872 8.92308 87.3872 13.0769C87.3872 17.2308 90.7957 20 94.9953 20C97.5327 20 99.7695 18.9846 101.154 17.2731L98.244 15.5731C97.4756 16.4231 96.3078 16.9192 94.9953 16.9192C93.1732 16.9192 91.6249 15.9577 91.0505 14.4192H101.71C101.793 13.9885 101.843 13.5423 101.843 13.0731C101.843 8.92308 98.8146 6.15385 94.6149 6.15385ZM91.0201 11.7308C91.4956 10.1962 92.7966 9.23077 94.6149 9.23077C96.4371 9.23077 97.7381 10.1962 98.2098 11.7308H91.0201ZM76.1728 13.0769C76.1728 15.3846 77.664 16.9231 79.9769 16.9231C81.5441 16.9231 82.7196 16.2038 83.3244 15.0308L86.246 16.7346C85.0363 18.7731 82.7691 20 79.9769 20C75.7734 20 72.7491 17.2308 72.7491 13.0769C72.7491 8.92308 75.7772 6.15385 79.9769 6.15385C82.7691 6.15385 85.0325 7.38077 86.246 9.41923L83.3244 11.1231C82.7196 9.95 81.5441 9.23077 79.9769 9.23077C77.6678 9.23077 76.1728 10.7692 76.1728 13.0769ZM107.549 1.92308V19.6154H104.125V1.92308H107.549ZM14.0561 0L28.1121 24.6154H0L14.0561 0ZM49.1981 1.92308L38.657 20.3846L28.1159 1.92308H32.0683L38.657 13.4615L45.2457 1.92308H49.1981ZM71.6079 6.53846V10.2654C71.2275 10.1538 70.8243 10.0769 70.3906 10.0769C68.1804 10.0769 66.5865 11.6154 66.5865 13.9231V19.6154H63.1628V6.53846H66.5865V10.0769C66.5865 8.12308 68.8347 6.53846 71.6079 6.53846Z" fill="currentcolor"/>
</svg>
