<svg width="178" height="40" viewBox="0 0 178 40" fill="none"
  xmlns="http://www.w3.org/2000/svg">
  <path fill-rule="evenodd" clip-rule="evenodd" d="M31.4835 31.4486H0.0351562V2.28882e-05H31.4835V31.4486ZM13.3848 8.9552L15.7597 6.58008L18.135 8.9552L19.4485 7.64119L17.0743 5.26546L19.4485 2.89145L18.135 1.57662L15.7597 3.95129L13.3848 1.57662L12.0704 2.89145L14.4457 5.26546L12.0704 7.64119L13.3848 8.9552ZM15.7597 15.3203L13.3848 17.6949L12.0704 16.3814L14.4457 14.0055L12.0704 11.6315L13.3848 10.3166L15.7597 12.6912L18.135 10.3166L19.4485 11.6315L17.0743 14.0055L19.4485 16.3814L18.135 17.6949L15.7597 15.3203ZM13.3848 29.8592L15.7597 27.4843L18.135 29.8592L19.4485 28.545L17.0743 26.1697L19.4485 23.7952L18.135 22.4811L15.7597 24.8553L13.3848 22.4811L12.0704 23.7952L14.4457 26.1697L12.0704 28.545L13.3848 29.8592ZM20.1751 9.04595L22.9075 8.92052C22.9075 8.92052 22.7225 10.9807 22.7186 14.8475C22.7147 18.7129 23.072 20.9816 23.072 20.9816L20.3649 21.7784L20.3689 18.9155L19.08 20.1268C19.08 20.1268 18.3281 20.8978 16.6276 21.3359C14.9281 21.7715 13.6382 21.6924 12.8657 21.5363C12.0926 21.3818 11.3968 21.1751 10.9591 20.9671C10.5205 20.7617 9.74806 20.3738 9.05422 19.2889C8.64296 18.6494 8.64296 17.0466 8.64296 17.0466L8.67352 14.0588L8.44687 9.00351C8.44687 9.00351 9.2122 9.03773 9.73524 9.03923C10.0485 9.04115 10.3408 9.00793 10.5601 8.98303C10.7905 8.95685 10.9401 8.93985 10.9482 8.98249C10.9732 9.13786 10.9898 16.0195 10.9898 16.0195C10.9898 16.0195 11.0659 17.4882 11.4263 18.2362C12.0588 19.5493 14.8787 19.6577 14.8787 19.6577C14.8787 19.6577 15.3164 19.7108 16.2967 19.6339C17.274 19.5584 19.1853 19.2763 19.8026 18.1175C19.8026 18.1175 20.2412 17.6284 20.4001 14.8455C20.5652 11.9311 20.1751 9.04595 20.1751 9.04595Z" fill="currentcolor"/>
  <path d="M41.6889 2.93426C41.6889 1.22092 40.6467 1.22091 39.4534 1.22091L39.3457 1.13144V0.763723C39.3457 0.525806 39.4972 0.503671 39.7357 0.503671C40.3 0.503671 41.6889 0.613561 42.7091 0.613561C43.7919 0.613561 44.8972 0.503671 45.9819 0.503671L46.0478 0.568683V1.13144L45.9399 1.22091H45.6811C44.2701 1.22091 43.6406 1.37041 43.6406 2.99927V9.28939C43.6406 12.4129 44.2495 14.8647 47.9782 14.8647C51.8623 14.8647 53.1182 12.998 53.1182 9.33166V3.69222C53.1182 1.22092 53.1182 1.39143 51.2118 1.22091L51.124 1.04646V0.633695L51.1902 0.503671C51.5795 0.503671 52.0138 0.613561 53.6398 0.613561C54.5529 0.613561 55.7014 0.503671 56.3959 0.503671L56.4819 0.633695V1.08873L56.3504 1.22091C54.7708 1.22091 54.204 1.30762 54.204 2.39036V10.1334C54.204 14.1063 51.884 16.1215 47.936 16.1215C44.7908 16.1215 41.6889 15.0164 41.6889 11.3934V2.93426Z" fill="currentcolor"/>
  <path d="M57.7203 6.31558C57.7203 5.98946 57.7048 5.90775 57.6393 5.77994C57.4945 5.50081 56.7779 4.91792 56.5033 4.90017L55.6407 4.85185C55.5752 4.85185 55.5586 4.68999 55.5586 4.56107C55.5586 4.47592 55.5586 4.34873 55.6407 4.34873C56.1455 4.34873 56.5338 4.31511 56.9387 4.31511C57.6881 4.31511 58.8752 4.38057 59.1664 4.41413L64.0929 10.3619C64.8395 11.2709 65.5717 12.1171 66.7422 13.2894H66.8065V6.13679C66.8065 5.06375 66.4166 4.90017 65.8951 4.88547L65.1978 4.85185C65.1318 4.85185 65.0986 4.68999 65.0986 4.57777C65.0986 4.47592 65.1474 4.31511 65.2461 4.31511C65.6028 4.31511 66.4487 4.39749 67.2447 4.39749C67.977 4.39749 68.7574 4.31511 69.2117 4.31511C69.2938 4.31511 69.3094 4.38057 69.3094 4.44663V4.75433C69.3094 4.83455 69.2755 4.85185 69.1635 4.85185H68.7414C67.6203 4.85185 67.6203 5.42132 67.6203 6.80311V16.2146H67.2292L58.4514 6.18621V13.6469C58.4514 15.0434 58.6478 15.2037 60.0446 15.2558C60.1089 15.2558 60.1583 15.402 60.1583 15.5299C60.1583 15.6609 60.1422 15.791 60.0934 15.791C59.7844 15.791 58.746 15.7097 58.0631 15.7097C57.2654 15.7097 56.9065 15.791 56.1621 15.791C56.0623 15.791 56.0456 15.6772 56.0456 15.467C56.0456 15.3197 56.0623 15.2558 56.2592 15.2558C56.9387 15.2558 57.7203 15.0944 57.7203 14.2633V6.31558Z" fill="currentcolor"/>
  <path d="M73.5741 12.7845C73.5741 15.1561 73.6229 15.1724 75.2161 15.2558L75.2982 15.3707V15.6772C75.2982 15.7748 75.0535 15.791 74.9077 15.791C74.6797 15.791 73.5908 15.7098 72.9251 15.7098C72.1452 15.7098 71.3475 15.791 70.5032 15.791C70.4383 15.7575 70.4228 15.661 70.4228 15.4974C70.4383 15.2883 70.4711 15.2558 70.9415 15.2558C72.0636 15.2558 72.1119 15.011 72.1119 13.7748V6.00643C72.1119 5.08006 71.8362 4.8519 70.4711 4.8519L70.4228 4.77236L70.3906 4.5102C70.4062 4.33186 70.5532 4.31455 70.6502 4.31455C71.0879 4.31455 71.6088 4.39754 72.7132 4.39754C73.5253 4.39754 74.5022 4.31455 75.1512 4.31455L75.2322 4.4311V4.72188L75.1678 4.82051L74.729 4.8519C74.0784 4.90022 73.5741 4.96784 73.5741 5.71431V12.7845Z" fill="currentcolor"/>
  <path d="M77.4775 5.40402C77.2989 4.9674 76.6499 4.85191 76.1928 4.85191L76.0957 4.77236V4.34878L76.2749 4.31517C76.9577 4.31517 77.9496 4.39688 78.3079 4.39688C79.054 4.39688 79.7851 4.31517 80.5323 4.31517L80.5811 4.36609L80.5323 4.82112L79.769 4.88614C79.5094 4.89956 79.2171 4.99819 79.2171 5.24088C79.2171 5.37195 79.2986 5.58385 79.363 5.73013L81.2318 10.6079L82.2902 13.0261C82.4028 13.2699 82.4189 13.3197 82.4682 13.3197C82.5004 13.3197 82.5476 13.2525 82.613 13.0619L84.9384 6.89958C85.198 6.20186 85.3932 5.59839 85.3766 5.40402C85.36 5.12882 85.2784 4.98299 84.808 4.93639L83.9632 4.85191L83.865 4.80315V4.30108C84.5002 4.30108 85.132 4.39688 85.7677 4.39688C86.2719 4.39688 87.3436 4.30108 87.4579 4.30108L87.5871 4.36609V4.73925L87.4423 4.85191L86.9365 4.88614C86.6108 4.89956 86.481 5.06381 86.2553 5.63372C84.7109 9.35441 84.3371 10.5267 83.1023 13.6621L82.273 15.7748C82.1931 16.0034 82.1604 16.0175 82.0456 16.0175C81.898 16.0175 81.8664 15.9687 81.8348 15.9037L77.4775 5.40402Z" fill="currentcolor"/>
  <path d="M90.1917 5.97281C90.1917 4.91797 89.3952 4.80314 88.4522 4.80314C88.3867 4.80314 88.3867 4.72188 88.3867 4.65536V4.47658C88.3867 4.33186 88.664 4.3156 89.2321 4.3156C89.8828 4.3156 90.6139 4.39754 91.2973 4.39754C91.9452 4.39754 92.5975 4.3156 93.2476 4.3156H96.6769C96.8061 4.3156 96.8222 4.4636 96.8222 4.64061V6.62393C96.8222 6.68895 96.7901 6.75291 96.7096 6.75291C96.5798 6.75291 96.3202 6.77171 96.3025 6.57456L96.2542 6.07249C96.1543 5.03285 95.4404 4.8519 94.5307 4.8519H92.8571C91.9452 4.8519 91.6545 5.04866 91.6545 6.28378V9.22437C91.6545 9.27208 91.7521 9.3544 91.7849 9.3544L93.702 9.28939C94.6766 9.25688 94.9551 8.94702 95.198 8.08594C95.2302 7.99169 95.2796 7.95658 95.4565 7.95658C95.573 7.95658 95.6546 7.97327 95.6546 8.05515C95.6546 8.39663 95.5564 9.14422 95.5564 9.68157C95.5564 10.5559 95.6546 11.0305 95.6546 11.3035C95.6546 11.4032 95.4904 11.5006 95.3927 11.5006C95.2635 11.5006 95.1486 11.4508 95.1165 11.2883C95.036 10.8506 95.036 10.5375 94.9551 10.3132C94.8719 10.0716 94.6766 9.95571 94.1896 9.94162L91.8819 9.8907C91.6545 9.8907 91.6545 9.97412 91.6545 10.0857V13.9557C91.6545 15.1247 92.5171 15.1561 93.6376 15.1561H94.5152C95.3761 15.1561 95.9774 15.1409 96.3851 14.8994C96.7429 14.6838 97.2455 13.6935 97.423 13.2894C97.636 13.2894 97.9128 13.3371 97.9128 13.4508C97.9128 13.5007 97.8656 13.6307 97.8307 13.7098L97.3758 15.3511C97.2455 15.791 97.1645 15.791 96.9526 15.791C95.198 15.791 93.4745 15.7098 91.1181 15.7098C90.5822 15.7098 89.2165 15.791 88.3867 15.791C88.3384 15.791 88.2891 15.6274 88.2891 15.5299C88.2891 15.4021 88.3223 15.2558 88.3867 15.2558C89.804 15.1897 90.1917 15.0435 90.1917 13.5483V5.97281Z" fill="currentcolor"/>
  <path d="M102.372 9.53424C102.584 9.55049 102.777 9.56569 102.989 9.56569C104.29 9.56569 105.915 9.11171 105.915 7.19318C105.915 5.76091 104.939 4.83459 103.51 4.83459C102.404 4.83459 102.372 5.09742 102.372 5.58324V9.53424ZM100.909 6.07138C100.909 5.25884 100.875 4.8519 99.8525 4.8519H99.1868C99.0886 4.8519 99.0742 4.67312 99.0742 4.54376C99.0742 4.4636 99.1219 4.31455 99.1868 4.31455C100.128 4.31455 101.089 4.36608 102.031 4.36608C102.777 4.36608 103.51 4.31455 104.257 4.31455C105.915 4.31455 107.541 5.4207 107.541 7.12772C107.541 8.60576 106.191 9.5982 104.924 9.79318V9.82568C105.557 9.97302 106.223 11.1605 106.388 11.4183L108.174 14.1507C108.743 15.011 109.118 15.1724 110.091 15.2233L110.19 15.3197V15.6274C110.19 15.7748 110.075 15.791 110.011 15.791C109.671 15.791 109.167 15.7434 108.921 15.7434C108.533 15.7434 108.142 15.791 107.752 15.791C107.379 15.791 106.646 14.7022 105.687 12.9947C104.631 11.1247 104.013 10.102 102.942 10.102C102.81 10.102 102.617 10.102 102.372 10.1334V14.1193C102.372 14.7022 102.372 15.2558 103.185 15.2558C103.802 15.2558 104.078 15.2558 104.078 15.3847C104.078 15.6935 104.03 15.791 103.786 15.791C102.942 15.791 102.242 15.7098 101.543 15.7098C101.266 15.7098 99.4625 15.791 99.2356 15.791C99.1375 15.791 99.1058 15.5798 99.1058 15.4498C99.1058 15.3056 99.1702 15.2721 99.4975 15.2558C100.617 15.2038 100.909 15.0435 100.909 13.9221V6.07138Z" fill="currentcolor"/>
  <path d="M112.763 9.87445C111.593 9.17562 111.12 8.5245 111.12 7.25775C111.12 5.22784 112.78 4.08918 114.972 4.08918C115.59 4.08918 116.468 4.30152 117.019 4.54377L117.132 6.57518V6.65645C117.132 6.73882 116.972 6.77172 116.744 6.77172C116.532 6.77172 116.501 6.67315 116.485 6.51023C116.37 5.42138 115.59 4.72188 114.435 4.72188C113.33 4.72188 112.471 5.50087 112.471 6.54423C112.471 7.71218 113.183 8.16937 114.809 9.02829C116.419 9.87445 117.817 10.622 117.817 12.6545C117.817 14.8647 115.817 16.0175 113.787 16.0175C113.12 16.0175 112.014 15.8051 111.396 15.5483C111.267 15.4801 111.219 15.2721 111.171 14.9156L110.975 13.3858C110.975 13.2883 111.3 13.2883 111.396 13.2883C111.445 13.2883 111.494 13.3208 111.527 13.4335C111.9 14.6697 112.745 15.3847 114.047 15.3847C115.184 15.3847 116.273 14.3934 116.273 13.2883C116.273 12.2309 115.671 11.596 114.825 11.0933L112.763 9.87445Z" fill="currentcolor"/>
  <path d="M122.358 12.7845C122.358 15.1561 122.406 15.1724 123.999 15.2558L124.082 15.3707V15.6772C124.082 15.7748 123.836 15.791 123.688 15.791C123.463 15.791 122.374 15.7098 121.706 15.7098C120.926 15.7098 120.132 15.791 119.286 15.791C119.22 15.7575 119.205 15.661 119.205 15.4974C119.22 15.2883 119.253 15.2558 119.724 15.2558C120.848 15.2558 120.894 15.011 120.894 13.7748V6.00643C120.894 5.08006 120.618 4.8519 119.253 4.8519L119.205 4.77236L119.172 4.5102C119.188 4.33186 119.334 4.31455 119.431 4.31455C119.87 4.31455 120.39 4.39754 121.495 4.39754C122.309 4.39754 123.284 4.31455 123.935 4.31455L124.016 4.4311V4.72188L123.952 4.82051L123.51 4.8519C122.861 4.90022 122.358 4.96784 122.358 5.71431V12.7845Z" fill="currentcolor"/>
  <path d="M130.989 14.0543C130.989 15.2547 131.803 15.2547 132.811 15.2547L132.909 15.3371V15.596C132.909 15.791 132.827 15.791 132.564 15.791C132.24 15.791 131.444 15.7098 130.307 15.7098C129.414 15.7098 128.017 15.791 127.625 15.791C127.592 15.6784 127.56 15.596 127.56 15.4974C127.56 15.4498 127.577 15.3522 127.625 15.3197L127.789 15.2547H127.984C129.463 15.2547 129.528 14.752 129.528 13.4021V5.69873L129.48 4.95114H127.302C126.066 4.95114 125.869 5.73012 125.562 6.77171C125.529 6.86878 125.464 6.91649 125.366 6.91649C125.14 6.91649 124.99 6.85037 124.99 6.75329C124.99 6.4781 125.188 4.96739 125.188 3.68245C125.188 3.61744 125.417 3.61744 125.641 3.61744C126.162 4.31516 126.326 4.31516 127.025 4.31516H133.07C134.208 4.31516 134.533 3.9739 134.94 3.47116C135.052 3.47116 135.426 3.47116 135.426 3.61744C135.426 3.74791 135.102 5.08006 135.068 6.25167C135.068 6.4294 135.019 6.77171 134.94 6.77171C134.794 6.77171 134.419 6.68894 134.419 6.60552L134.354 5.79514C134.291 4.96739 133.899 4.95114 133.235 4.95114H130.989V14.0543Z" fill="currentcolor"/>
  <path d="M140.997 10.623C140.997 10.4584 140.981 10.2471 140.801 9.98385L137.134 5.02588C137.037 4.87788 136.89 4.79617 136.512 4.78036L135.891 4.7457L135.793 4.6976V4.27291L135.891 4.22349H136.088C136.365 4.22349 138.117 4.30476 138.426 4.30476C138.837 4.30476 139.492 4.22349 140.031 4.22349C140.39 4.22349 140.554 4.22349 140.554 4.32273V4.51993C140.554 4.68135 140.505 4.76261 140.457 4.76261L139.508 4.79617C139.277 4.79617 139.13 4.89303 139.13 5.07398C139.13 5.14004 139.227 5.30368 139.394 5.51386L141.733 8.77363C141.864 8.95458 142.01 9.116 142.175 9.2655C142.486 8.96867 143.927 6.98796 144.631 5.95869C144.893 5.58059 145.041 5.27007 145.041 5.14004C145.041 4.91144 144.908 4.81392 144.433 4.79617L143.614 4.76261C143.633 4.76261 143.614 4.51993 143.614 4.45275C143.614 4.37038 143.633 4.27291 143.714 4.22349C144.352 4.2885 145.137 4.30476 145.841 4.30476C146.317 4.30476 147.035 4.22349 147.248 4.22349L147.347 4.2885V4.66615L147.283 4.73116L146.676 4.76261C146.152 4.79617 145.498 5.90776 145.186 6.33401L142.471 10.051V13.895C142.471 14.2395 142.486 14.5364 142.519 14.6339C142.65 15.0239 143.075 15.2406 143.682 15.2406H144.123L144.27 15.3056V15.7628L144.189 15.7791H143.942C143.222 15.7791 142.519 15.6956 141.798 15.6956C141.063 15.6956 140.308 15.7791 139.574 15.7791H139.344L139.212 15.7455V15.467C139.212 15.3706 139.244 15.2547 139.376 15.2406L140.145 15.1561C140.62 15.1073 140.997 14.9438 140.997 14.1268V10.623Z" fill="currentcolor"/>
  <path d="M76.4857 32.4029L74.0738 26.1854H74.0283L71.9653 32.4029H76.4857ZM71.6797 33.2523L70.7239 36.3379C70.5497 36.9056 70.4648 37.4029 70.4648 37.7529C70.4648 38.469 71.4844 38.6218 72.0752 38.6218C72.2666 38.6218 72.3131 38.7507 72.3131 39.0357C72.3131 39.2513 72.2882 39.3412 72.1367 39.3412C71.6397 39.3412 70.051 39.2296 69.4641 39.2296C68.8789 39.2296 67.9647 39.3412 67.3102 39.3412C66.877 39.3412 66.877 39.2729 66.877 38.9912V38.7507C66.877 38.6435 67.0694 38.6001 67.5942 38.5557C68.7253 38.4474 68.8789 38.2307 69.2927 37.0324L73.5962 24.5119C74.0283 24.1449 74.4854 23.6415 75.0262 23.4682L80.4868 37.2307C80.8552 38.144 81.2474 38.6001 82.5082 38.6001C82.7467 38.6001 82.79 38.8612 82.79 39.0996C82.79 39.3412 82.6408 39.3412 82.3795 39.3412C82.0262 39.3412 80.6372 39.2296 79.789 39.2296C78.9203 39.2296 78.0489 39.2729 77.1813 39.3412C76.8562 39.3412 76.8335 39.2729 76.8335 38.9696C76.8335 38.7323 76.9633 38.6218 77.269 38.6218C77.5973 38.6218 78.6602 38.5557 78.6602 38.0335C78.6602 37.8601 78.5736 37.5124 78.2691 36.7518L76.8779 33.2523H71.6797Z" fill="currentcolor"/>
  <path d="M50.9651 33.5894C50.9651 30.8587 49.0984 28.0815 46.1742 28.0815C43.169 28.0815 41.7231 30.4368 41.7231 33.1798C41.7231 35.9599 43.4121 38.8353 46.4343 38.8353C49.4234 38.8353 50.9651 36.3835 50.9651 33.5894ZM39.9863 33.7172C39.9863 30.3219 42.8923 27.5447 46.2566 27.5447C49.6661 27.5447 52.7051 29.8838 52.7051 33.2622C52.7051 36.5298 49.5534 39.468 46.3183 39.468C42.9261 39.468 39.9863 37.2622 39.9863 33.7172Z" fill="currentcolor"/>
  <path d="M54.6928 29.5933C54.6928 28.6036 54.5313 28.3902 53.5747 28.3902H53.2973C53.0069 28.4086 52.877 28.3583 52.877 28.2591C52.877 28.1291 52.877 27.8528 53.0578 27.8528H59.7142C60.2662 27.8528 60.8187 27.7731 61.3873 27.7731C61.4838 27.7731 61.6158 27.79 61.6158 27.92L61.6807 29.7531C61.6807 29.8669 61.6985 29.9822 61.6985 30.0959C61.6985 30.1612 61.5681 30.1915 61.4033 30.1915H61.1609C61.1271 29.9991 61.096 29.8023 61.0483 29.6253L60.9019 29.1215C60.7244 28.486 60.2518 28.3902 59.747 28.3902H57.4715C56.2689 28.3902 56.1552 28.7618 56.1552 29.9503V32.8093H58.5627C59.9572 32.8093 60.2995 32.4192 60.2995 31.5257C60.4609 31.4899 60.6245 31.4426 60.7382 31.4426C60.8031 31.4426 60.837 31.4769 60.837 31.5581C60.837 31.6853 60.7721 31.9306 60.7721 33.117C60.7721 33.5894 60.837 34.4333 60.837 34.7898C60.837 34.936 60.7244 35 60.5435 35C60.4132 35 60.3644 34.8559 60.2995 34.5948C60.1869 33.9285 59.8618 33.3434 58.4806 33.3434H56.1552V37.6013C56.1552 38.234 56.2412 38.5753 57.0688 38.6413L57.9125 38.7053C57.993 38.7053 58.0235 38.8049 58.0235 38.9144C58.0235 39.0465 58.0235 39.2405 57.8476 39.2405C56.6278 39.2405 56.1086 39.1603 55.345 39.1603C54.6787 39.1603 53.4782 39.2405 53.0405 39.2405C52.9072 39.2405 52.9072 39.078 52.9072 38.9512C52.9072 38.8526 52.9246 38.7053 52.9918 38.7053L53.7069 38.6576C54.5649 38.5915 54.6928 38.3976 54.6928 37.4398V29.5933Z" fill="currentcolor"/>
  <path d="M94.523 27.816C95.0284 27.816 95.5493 27.863 96.0713 27.863C96.4812 27.863 96.9022 27.816 97.311 27.816C97.5546 27.816 97.6045 27.8792 97.6045 27.9301V28.1897C97.6045 28.3035 97.5546 28.3858 97.4874 28.3858C97.3748 28.3858 97.1973 28.3522 96.9987 28.3522C96.0518 28.3522 96.0518 28.8257 96.0518 29.8864C96.0518 30.8155 96.2327 36.9143 96.2327 37.8114C96.2327 38.2664 96.4629 38.7897 97.1635 38.7897C97.8158 38.7897 97.8951 38.8222 97.8951 38.9696C97.8951 39.1657 97.7997 39.3282 97.7509 39.3282C96.885 39.3282 96.2027 39.2448 95.5154 39.2448C94.832 39.2448 94.1298 39.3282 93.4292 39.3282C93.3143 39.3282 93.2988 39.2621 93.2988 39.1657V39.001C93.2988 38.8385 93.4463 38.7897 94.1963 38.7897C94.523 38.7897 94.8148 38.3986 94.8148 37.8276C94.8148 36.0671 94.751 32.2675 94.6845 29.4779C94.6185 29.4627 94.6362 29.4627 94.6362 29.4627C93.7237 31.3382 92.5333 34.0606 91.9791 35.5124L90.442 39.5405C90.4304 39.5882 90.3805 39.637 90.2967 39.637C90.219 39.637 90.1508 39.5546 90.1031 39.3282C90.0066 38.9176 89.859 38.5275 89.6932 38.1375L86.6123 30.635C86.4975 30.3577 86.4009 30.1626 86.3383 30.1626C86.2689 30.1626 86.2689 30.4881 86.2689 30.669C86.2689 31.9577 86.0759 36.8807 86.0759 37.6814C86.0759 38.3813 86.0759 38.7897 87.5115 38.7897C87.608 38.7897 87.6241 38.8699 87.6241 39.066C87.6241 39.131 87.608 39.3282 87.5425 39.3282C87.3129 39.3282 86.5158 39.2448 85.6338 39.2448C84.7074 39.2448 83.7921 39.3282 83.5625 39.3282C83.5148 39.3282 83.4648 39.2783 83.4648 39.196V38.9522C83.4648 38.806 83.5969 38.7897 83.7921 38.7897C85.129 38.7897 85.3237 38.3813 85.3237 36.962C85.3237 36.1635 85.5994 30.1626 85.5994 29.5754C85.5994 28.7113 85.1767 28.3522 83.7117 28.3522C83.6618 28.3522 83.6285 28.2727 83.6285 28.1735V27.9616C83.6285 27.8792 83.6784 27.816 83.7605 27.816C84.379 27.816 84.9676 27.8966 85.6177 27.8966C86.0248 27.8966 86.4498 27.816 86.858 27.816C86.974 27.816 87.0877 28.0771 87.167 28.289L90.69 36.7182H90.7671L94.523 27.816Z" fill="currentcolor"/>
  <path d="M100.42 33.3922C99.2416 32.6901 98.7695 32.0368 98.7695 30.7683C98.7695 28.7276 100.433 27.5874 102.634 27.5874C103.255 27.5874 104.136 27.7976 104.692 28.0435L104.805 30.0825V30.1631C104.805 30.2451 104.641 30.2765 104.411 30.2765C104.2 30.2765 104.169 30.1794 104.152 30.0175C104.038 28.925 103.255 28.2216 102.097 28.2216C100.989 28.2216 100.125 29.0039 100.125 30.05C100.125 31.2227 100.843 31.6788 102.473 32.5438C104.089 33.3922 105.491 34.1408 105.491 36.1798C105.491 38.3998 103.482 39.5547 101.447 39.5547C100.777 39.5547 99.6665 39.3434 99.048 39.0823C98.9176 39.0173 98.8688 38.805 98.8183 38.4463L98.623 36.9144C98.623 36.8169 98.9503 36.8169 99.048 36.8169C99.0995 36.8169 99.1461 36.8483 99.1778 36.9631C99.5539 38.2015 100.404 38.9187 101.707 38.9187C102.848 38.9187 103.939 37.9241 103.939 36.8169C103.939 35.7562 103.338 35.1202 102.49 34.6154L100.42 33.3922Z" fill="currentcolor"/>
  <path d="M112.295 37.625C112.295 38.833 113.109 38.833 114.121 38.833L114.22 38.9132V39.1743C114.22 39.3715 114.138 39.3715 113.876 39.3715C113.551 39.3715 112.754 39.288 111.61 39.288C110.713 39.288 109.311 39.3715 108.921 39.3715C108.885 39.2555 108.855 39.1743 108.855 39.0779C108.855 39.028 108.873 38.9305 108.921 38.8969L109.085 38.833H109.28C110.764 38.833 110.829 38.326 110.829 36.9738V29.2438L110.779 28.4941H108.596C107.355 28.4941 107.158 29.2764 106.849 30.3197C106.817 30.4183 106.751 30.467 106.654 30.467C106.423 30.467 106.281 30.4016 106.281 30.305C106.281 30.0272 106.474 28.511 106.474 27.2211C106.474 27.1572 106.702 27.1572 106.931 27.1572C107.453 27.8592 107.615 27.8592 108.316 27.8592H114.381C115.524 27.8592 115.851 27.5157 116.257 27.0102C116.373 27.0102 116.747 27.0102 116.747 27.1572C116.747 27.2883 116.421 28.6241 116.388 29.7996C116.388 29.9767 116.338 30.3197 116.257 30.3197C116.11 30.3197 115.737 30.2399 115.737 30.1576L115.672 29.3414C115.605 28.511 115.215 28.4941 114.545 28.4941H112.295V37.625Z" fill="currentcolor"/>
  <path d="M119.14 29.4779C119.14 28.4194 118.34 28.3036 117.396 28.3036C117.331 28.3036 117.331 28.2216 117.331 28.1577V27.9778C117.331 27.8312 117.609 27.816 118.178 27.816C118.829 27.816 119.564 27.8962 120.251 27.8962C120.902 27.8962 121.554 27.816 122.204 27.816H125.649C125.776 27.816 125.793 27.9616 125.793 28.141V30.1306C125.793 30.1963 125.759 30.2617 125.677 30.2617C125.548 30.2617 125.286 30.2765 125.27 30.0825L125.22 29.5755C125.123 28.5322 124.406 28.3523 123.495 28.3523H121.813C120.902 28.3523 120.607 28.5488 120.607 29.7868V32.7399C120.607 32.7876 120.705 32.871 120.74 32.871L122.661 32.8061C123.639 32.7714 123.919 32.4637 124.162 31.5972C124.195 31.4997 124.245 31.466 124.425 31.466C124.538 31.466 124.617 31.4856 124.617 31.5651C124.617 31.909 124.522 32.6587 124.522 33.1961C124.522 34.0769 124.617 34.5493 124.617 34.8266C124.617 34.9252 124.456 35.0227 124.357 35.0227C124.228 35.0227 124.114 34.974 124.081 34.8093C123.999 34.3716 123.999 34.0607 123.919 33.8331C123.835 33.5883 123.639 33.4734 123.15 33.4572L120.836 33.4095C120.607 33.4095 120.607 33.4886 120.607 33.6023V37.4864C120.607 38.6587 121.472 38.6923 122.598 38.6923H123.479C124.343 38.6923 124.945 38.6749 125.353 38.429C125.715 38.2188 126.217 37.2253 126.395 36.8169C126.609 36.8169 126.884 36.8656 126.884 36.9783C126.884 37.0292 126.837 37.1581 126.805 37.2405L126.347 38.8873C126.217 39.3282 126.137 39.3282 125.924 39.3282C124.162 39.3282 122.433 39.2448 120.071 39.2448C119.532 39.2448 118.162 39.3282 117.331 39.3282C117.281 39.3282 117.232 39.1657 117.232 39.0661C117.232 38.936 117.264 38.7898 117.331 38.7898C118.748 38.7237 119.14 38.5774 119.14 37.0769V29.4779Z" fill="currentcolor"/>
  <path d="M130.843 33.0487C131.055 33.0661 131.252 33.0823 131.462 33.0823C132.766 33.0823 134.398 32.6251 134.398 30.7005C134.398 29.2672 133.42 28.3365 131.986 28.3365C130.875 28.3365 130.843 28.5972 130.843 29.0869V33.0487ZM129.376 29.5755C129.376 28.7618 129.342 28.3523 128.313 28.3523H127.644C127.548 28.3523 127.531 28.174 127.531 28.0428C127.531 27.9616 127.582 27.816 127.644 27.816C128.591 27.816 129.557 27.8637 130.501 27.8637C131.252 27.8637 131.986 27.816 132.734 27.816C134.398 27.816 136.029 28.9254 136.029 30.6355C136.029 32.1192 134.675 33.1137 133.403 33.3109V33.3424C134.04 33.4886 134.709 34.6804 134.871 34.9393L136.665 37.6804C137.233 38.546 137.609 38.7085 138.59 38.7573L138.685 38.8537V39.1657C138.685 39.3098 138.572 39.3282 138.507 39.3282C138.163 39.3282 137.657 39.2773 137.413 39.2773C137.021 39.2773 136.631 39.3282 136.241 39.3282C135.865 39.3282 135.131 38.2351 134.17 36.5233C133.11 34.6468 132.488 33.6197 131.411 33.6197C131.283 33.6197 131.086 33.6197 130.843 33.6533V37.6489C130.843 38.2351 130.843 38.7898 131.659 38.7898C132.276 38.7898 132.556 38.7898 132.556 38.9187C132.556 39.2286 132.509 39.3282 132.26 39.3282C131.411 39.3282 130.713 39.2448 130.01 39.2448C129.735 39.2448 127.927 39.3282 127.696 39.3282C127.597 39.3282 127.565 39.117 127.565 38.9848C127.565 38.8385 127.629 38.806 127.955 38.7898C129.079 38.7399 129.376 38.5774 129.376 37.4507V29.5755Z" fill="currentcolor"/>
  <path d="M142.542 36.8861C142.542 38.6803 144.386 38.6803 145.101 38.6803C147.334 38.6803 149.715 36.8385 149.715 33.4289C149.715 30.5256 148.151 29.0905 147.023 28.4396C146.242 28.0972 145.214 28.0153 144.514 28.0153C143.178 28.0153 142.542 28.1117 142.542 29.1576V36.8861ZM141.072 29.6122C141.072 28.9936 140.944 28.3576 140.338 28.3576C140.144 28.3576 139.623 28.4226 139.313 28.4226C139.246 28.4226 139.246 28.1785 139.246 28.0972C139.246 27.999 139.246 27.9496 139.525 27.8863C140.619 27.6566 143.224 27.4779 144.626 27.4779C145.525 27.4779 146.373 27.5596 147.172 27.7697C149.388 28.375 151.46 30.3472 151.46 33.3477C151.46 37.391 148.083 39.2188 144.985 39.2188C143.436 39.2188 142.62 39.1527 141.809 39.1527C140.991 39.1527 140.177 39.2003 139.361 39.2188C139.296 39.2188 139.28 39.0725 139.28 38.9566C139.28 38.8428 139.361 38.6803 139.426 38.6803C139.949 38.6142 140.37 38.5817 140.667 38.3856C140.91 38.2231 141.072 37.9609 141.072 37.4408V29.6122Z" fill="currentcolor"/>
  <path d="M157.963 34.1267L156.153 29.4628H156.118L154.574 34.1267H157.963ZM154.358 34.7616L153.643 37.0769C153.509 37.5005 153.447 37.8765 153.447 38.1376C153.447 38.6749 154.213 38.7898 154.654 38.7898C154.799 38.7898 154.832 38.8873 154.832 39.0986C154.832 39.2622 154.815 39.3282 154.702 39.3282C154.326 39.3282 153.137 39.2448 152.696 39.2448C152.256 39.2448 151.571 39.3282 151.082 39.3282C150.756 39.3282 150.756 39.2784 150.756 39.0661V38.8873C150.756 38.806 150.905 38.7714 151.294 38.7399C152.142 38.6587 152.256 38.4951 152.565 37.5991L155.793 28.2065C156.118 27.9302 156.463 27.5545 156.87 27.4223L160.964 37.7454C161.243 38.429 161.537 38.7714 162.48 38.7714C162.661 38.7714 162.693 38.9696 162.693 39.1473C162.693 39.3282 162.58 39.3282 162.384 39.3282C162.124 39.3282 161.079 39.2448 160.442 39.2448C159.789 39.2448 159.137 39.2784 158.484 39.3282C158.241 39.3282 158.224 39.2784 158.224 39.0487C158.224 38.87 158.323 38.7898 158.549 38.7898C158.795 38.7898 159.595 38.7399 159.595 38.3477C159.595 38.2188 159.53 37.9577 159.301 37.3868L158.258 34.7616H154.358Z" fill="currentcolor"/>
  <path d="M174.016 27.816C174.523 27.816 175.045 27.863 175.567 27.863C175.972 27.863 176.399 27.816 176.806 27.816C177.05 27.816 177.098 27.8792 177.098 27.9301V28.1897C177.098 28.3035 177.05 28.3858 176.987 28.3858C176.871 28.3858 176.69 28.3522 176.495 28.3522C175.552 28.3522 175.552 28.8257 175.552 29.8864C175.552 30.8155 175.729 36.9143 175.729 37.8114C175.729 38.2664 175.959 38.7897 176.66 38.7897C177.309 38.7897 177.394 38.8222 177.394 38.9696C177.394 39.1657 177.294 39.3282 177.246 39.3282C176.38 39.3282 175.697 39.2448 175.012 39.2448C174.327 39.2448 173.626 39.3282 172.923 39.3282C172.809 39.3282 172.794 39.2621 172.794 39.1657V39.001C172.794 38.8385 172.941 38.7897 173.689 38.7897C174.016 38.7897 174.308 38.3986 174.308 37.8276C174.308 36.0671 174.246 32.2675 174.181 29.4779C174.116 29.4627 174.13 29.4627 174.13 29.4627C173.217 31.3382 172.027 34.0606 171.473 35.5124L169.941 39.5405C169.924 39.5882 169.873 39.637 169.794 39.637C169.712 39.637 169.648 39.5546 169.597 39.3282C169.501 38.9176 169.353 38.5275 169.19 38.1375L166.108 30.635C165.993 30.3577 165.897 30.1626 165.832 30.1626C165.767 30.1626 165.767 30.4881 165.767 30.669C165.767 31.9577 165.569 36.8807 165.569 37.6814C165.569 38.3813 165.569 38.7897 167.005 38.7897C167.104 38.7897 167.118 38.8699 167.118 39.066C167.118 39.131 167.104 39.3282 167.036 39.3282C166.81 39.3282 166.01 39.2448 165.129 39.2448C164.198 39.2448 163.285 39.3282 163.059 39.3282C163.011 39.3282 162.963 39.2783 162.963 39.196V38.9522C162.963 38.806 163.091 38.7897 163.285 38.7897C164.624 38.7897 164.82 38.3813 164.82 36.962C164.82 36.1635 165.097 30.1626 165.097 29.5754C165.097 28.7113 164.676 28.3522 163.204 28.3522C163.158 28.3522 163.122 28.2727 163.122 28.1735V27.9616C163.122 27.8792 163.172 27.816 163.255 27.816C163.874 27.816 164.461 27.8966 165.117 27.8966C165.521 27.8966 165.944 27.816 166.352 27.816C166.468 27.816 166.581 28.0771 166.663 28.289L170.184 36.7182H170.266L174.016 27.816Z" fill="currentcolor"/>
</svg>
